%TF.GenerationSoftware,KiCad,Pcbnew,(5.1.10)-1*%
%TF.CreationDate,2021-06-07T20:05:56+02:00*%
%TF.ProjectId,AirFlow,41697246-6c6f-4772-9e6b-696361645f70,rev?*%
%TF.SameCoordinates,Original*%
%TF.FileFunction,Soldermask,Bot*%
%TF.FilePolarity,Negative*%
%FSLAX46Y46*%
G04 Gerber Fmt 4.6, Leading zero omitted, Abs format (unit mm)*
G04 Created by KiCad (PCBNEW (5.1.10)-1) date 2021-06-07 20:05:56*
%MOMM*%
%LPD*%
G01*
G04 APERTURE LIST*
%ADD10C,0.500000*%
%ADD11C,0.250000*%
%ADD12O,1.600000X1.600000*%
%ADD13R,1.600000X1.600000*%
%ADD14R,3.000000X3.000000*%
%ADD15C,3.000000*%
%ADD16O,1.700000X2.000000*%
%ADD17C,1.600000*%
%ADD18R,1.700000X1.700000*%
%ADD19O,1.700000X1.700000*%
%ADD20C,0.100000*%
%ADD21O,1.730000X2.030000*%
G04 APERTURE END LIST*
D10*
X140614400Y-113080800D02*
X141833600Y-113080800D01*
D11*
X139621084Y-113124784D02*
G75*
G02*
X141020800Y-111810800I1704516J-413216D01*
G01*
X138757484Y-112819984D02*
G75*
G02*
X140157200Y-111506000I1704516J-413216D01*
G01*
X140712573Y-114558797D02*
G75*
G02*
X140004800Y-113436400I1019427J1427197D01*
G01*
X141942016Y-111325484D02*
G75*
G02*
X143256000Y-112725200I-413216J-1704516D01*
G01*
X143741316Y-113443216D02*
G75*
G02*
X142341600Y-114757200I-1704516J413216D01*
G01*
X140251984Y-114886916D02*
G75*
G02*
X138938000Y-113487200I413216J1704516D01*
G01*
X141383216Y-111782684D02*
G75*
G02*
X142697200Y-113182400I-413216J-1704516D01*
G01*
X142543827Y-113588800D02*
G75*
G02*
X141376400Y-114351482I-1535862J1076101D01*
G01*
X144706516Y-113544816D02*
G75*
G02*
X143306800Y-114858800I-1704516J413216D01*
G01*
X143110416Y-111325484D02*
G75*
G02*
X144424400Y-112725200I-413216J-1704516D01*
G01*
X139039600Y-114858800D02*
G75*
G02*
X137725616Y-113459084I413216J1704516D01*
G01*
X137639884Y-112718384D02*
G75*
G02*
X139039600Y-111404400I1704516J-413216D01*
G01*
D10*
X123139200Y-94437200D02*
X124358400Y-94437200D01*
D11*
X123237373Y-95915197D02*
G75*
G02*
X122529600Y-94792800I1019427J1427197D01*
G01*
X125068627Y-94945200D02*
G75*
G02*
X123901200Y-95707882I-1535862J1076101D01*
G01*
X123908016Y-93139084D02*
G75*
G02*
X125222000Y-94538800I-413216J-1704516D01*
G01*
X122145884Y-94481184D02*
G75*
G02*
X123545600Y-93167200I1704516J-413216D01*
G01*
X121282284Y-94176384D02*
G75*
G02*
X122682000Y-92862400I1704516J-413216D01*
G01*
X126266116Y-94799616D02*
G75*
G02*
X124866400Y-96113600I-1704516J413216D01*
G01*
X122776784Y-96243316D02*
G75*
G02*
X121462800Y-94843600I413216J1704516D01*
G01*
X124466816Y-92681884D02*
G75*
G02*
X125780800Y-94081600I-413216J-1704516D01*
G01*
X125635216Y-92681884D02*
G75*
G02*
X126949200Y-94081600I-413216J-1704516D01*
G01*
X127231316Y-94901216D02*
G75*
G02*
X125831600Y-96215200I-1704516J413216D01*
G01*
X121564400Y-96215200D02*
G75*
G02*
X120250416Y-94815484I413216J1704516D01*
G01*
X120164684Y-94074784D02*
G75*
G02*
X121564400Y-92760800I1704516J-413216D01*
G01*
D12*
%TO.C,A1*%
X113186400Y-81635600D03*
X115726400Y-81635600D03*
D13*
X122326400Y-129895600D03*
D12*
X152806400Y-81635600D03*
X124866400Y-129895600D03*
X150266400Y-81635600D03*
X127406400Y-129895600D03*
X147726400Y-81635600D03*
X129946400Y-129895600D03*
X145186400Y-81635600D03*
X132486400Y-129895600D03*
X142646400Y-81635600D03*
X135026400Y-129895600D03*
X140106400Y-81635600D03*
X137566400Y-129895600D03*
X136046400Y-81635600D03*
X140106400Y-129895600D03*
X133506400Y-81635600D03*
X145186400Y-129895600D03*
X130966400Y-81635600D03*
X147726400Y-129895600D03*
X128426400Y-81635600D03*
X150266400Y-129895600D03*
X125886400Y-81635600D03*
X152806400Y-129895600D03*
X123346400Y-81635600D03*
X155346400Y-129895600D03*
X120806400Y-81635600D03*
X157886400Y-129895600D03*
X118266400Y-81635600D03*
X157886400Y-81635600D03*
X155346400Y-81635600D03*
%TD*%
D14*
%TO.C,J1*%
X159156400Y-122123200D03*
D15*
X159156400Y-117043200D03*
%TD*%
%TO.C,Jntc1*%
G36*
G01*
X120043200Y-118250400D02*
X120043200Y-116750400D01*
G75*
G02*
X120293200Y-116500400I250000J0D01*
G01*
X121493200Y-116500400D01*
G75*
G02*
X121743200Y-116750400I0J-250000D01*
G01*
X121743200Y-118250400D01*
G75*
G02*
X121493200Y-118500400I-250000J0D01*
G01*
X120293200Y-118500400D01*
G75*
G02*
X120043200Y-118250400I0J250000D01*
G01*
G37*
D16*
X123393200Y-117500400D03*
%TD*%
%TO.C,Jntc2*%
X145298800Y-118211600D03*
G36*
G01*
X141948800Y-118961600D02*
X141948800Y-117461600D01*
G75*
G02*
X142198800Y-117211600I250000J0D01*
G01*
X143398800Y-117211600D01*
G75*
G02*
X143648800Y-117461600I0J-250000D01*
G01*
X143648800Y-118961600D01*
G75*
G02*
X143398800Y-119211600I-250000J0D01*
G01*
X142198800Y-119211600D01*
G75*
G02*
X141948800Y-118961600I0J250000D01*
G01*
G37*
%TD*%
D12*
%TO.C,R3*%
X117856000Y-111455200D03*
D17*
X117856000Y-101295200D03*
%TD*%
%TO.C,R17*%
X138074400Y-117094000D03*
D12*
X127914400Y-117094000D03*
%TD*%
D18*
%TO.C,J5*%
X140106400Y-87172800D03*
D19*
X142646400Y-87172800D03*
X145186400Y-87172800D03*
X147726400Y-87172800D03*
X150266400Y-87172800D03*
X152806400Y-87172800D03*
X155346400Y-87172800D03*
X157886400Y-87172800D03*
%TD*%
D18*
%TO.C,J6*%
X123494800Y-87071200D03*
D19*
X126034800Y-87071200D03*
X128574800Y-87071200D03*
X131114800Y-87071200D03*
X133654800Y-87071200D03*
X136194800Y-87071200D03*
%TD*%
D20*
%TO.C,JP0*%
G36*
X158687200Y-84183600D02*
G01*
X158687200Y-84683600D01*
X158686598Y-84683600D01*
X158686598Y-84708134D01*
X158681788Y-84756965D01*
X158672216Y-84805090D01*
X158657972Y-84852045D01*
X158639195Y-84897378D01*
X158616064Y-84940651D01*
X158588804Y-84981450D01*
X158557676Y-85019379D01*
X158522979Y-85054076D01*
X158485050Y-85085204D01*
X158444251Y-85112464D01*
X158400978Y-85135595D01*
X158355645Y-85154372D01*
X158308690Y-85168616D01*
X158260565Y-85178188D01*
X158211734Y-85182998D01*
X158187200Y-85182998D01*
X158187200Y-85183600D01*
X157687200Y-85183600D01*
X157687200Y-85182998D01*
X157662666Y-85182998D01*
X157613835Y-85178188D01*
X157565710Y-85168616D01*
X157518755Y-85154372D01*
X157473422Y-85135595D01*
X157430149Y-85112464D01*
X157389350Y-85085204D01*
X157351421Y-85054076D01*
X157316724Y-85019379D01*
X157285596Y-84981450D01*
X157258336Y-84940651D01*
X157235205Y-84897378D01*
X157216428Y-84852045D01*
X157202184Y-84805090D01*
X157192612Y-84756965D01*
X157187802Y-84708134D01*
X157187802Y-84683600D01*
X157187200Y-84683600D01*
X157187200Y-84183600D01*
X158687200Y-84183600D01*
G37*
G36*
X157187802Y-83383600D02*
G01*
X157187802Y-83359066D01*
X157192612Y-83310235D01*
X157202184Y-83262110D01*
X157216428Y-83215155D01*
X157235205Y-83169822D01*
X157258336Y-83126549D01*
X157285596Y-83085750D01*
X157316724Y-83047821D01*
X157351421Y-83013124D01*
X157389350Y-82981996D01*
X157430149Y-82954736D01*
X157473422Y-82931605D01*
X157518755Y-82912828D01*
X157565710Y-82898584D01*
X157613835Y-82889012D01*
X157662666Y-82884202D01*
X157687200Y-82884202D01*
X157687200Y-82883600D01*
X158187200Y-82883600D01*
X158187200Y-82884202D01*
X158211734Y-82884202D01*
X158260565Y-82889012D01*
X158308690Y-82898584D01*
X158355645Y-82912828D01*
X158400978Y-82931605D01*
X158444251Y-82954736D01*
X158485050Y-82981996D01*
X158522979Y-83013124D01*
X158557676Y-83047821D01*
X158588804Y-83085750D01*
X158616064Y-83126549D01*
X158639195Y-83169822D01*
X158657972Y-83215155D01*
X158672216Y-83262110D01*
X158681788Y-83310235D01*
X158686598Y-83359066D01*
X158686598Y-83383600D01*
X158687200Y-83383600D01*
X158687200Y-83883600D01*
X157187200Y-83883600D01*
X157187200Y-83383600D01*
X157187802Y-83383600D01*
G37*
%TD*%
%TO.C,JP1*%
G36*
X154698602Y-83383600D02*
G01*
X154698602Y-83359066D01*
X154703412Y-83310235D01*
X154712984Y-83262110D01*
X154727228Y-83215155D01*
X154746005Y-83169822D01*
X154769136Y-83126549D01*
X154796396Y-83085750D01*
X154827524Y-83047821D01*
X154862221Y-83013124D01*
X154900150Y-82981996D01*
X154940949Y-82954736D01*
X154984222Y-82931605D01*
X155029555Y-82912828D01*
X155076510Y-82898584D01*
X155124635Y-82889012D01*
X155173466Y-82884202D01*
X155198000Y-82884202D01*
X155198000Y-82883600D01*
X155698000Y-82883600D01*
X155698000Y-82884202D01*
X155722534Y-82884202D01*
X155771365Y-82889012D01*
X155819490Y-82898584D01*
X155866445Y-82912828D01*
X155911778Y-82931605D01*
X155955051Y-82954736D01*
X155995850Y-82981996D01*
X156033779Y-83013124D01*
X156068476Y-83047821D01*
X156099604Y-83085750D01*
X156126864Y-83126549D01*
X156149995Y-83169822D01*
X156168772Y-83215155D01*
X156183016Y-83262110D01*
X156192588Y-83310235D01*
X156197398Y-83359066D01*
X156197398Y-83383600D01*
X156198000Y-83383600D01*
X156198000Y-83883600D01*
X154698000Y-83883600D01*
X154698000Y-83383600D01*
X154698602Y-83383600D01*
G37*
G36*
X156198000Y-84183600D02*
G01*
X156198000Y-84683600D01*
X156197398Y-84683600D01*
X156197398Y-84708134D01*
X156192588Y-84756965D01*
X156183016Y-84805090D01*
X156168772Y-84852045D01*
X156149995Y-84897378D01*
X156126864Y-84940651D01*
X156099604Y-84981450D01*
X156068476Y-85019379D01*
X156033779Y-85054076D01*
X155995850Y-85085204D01*
X155955051Y-85112464D01*
X155911778Y-85135595D01*
X155866445Y-85154372D01*
X155819490Y-85168616D01*
X155771365Y-85178188D01*
X155722534Y-85182998D01*
X155698000Y-85182998D01*
X155698000Y-85183600D01*
X155198000Y-85183600D01*
X155198000Y-85182998D01*
X155173466Y-85182998D01*
X155124635Y-85178188D01*
X155076510Y-85168616D01*
X155029555Y-85154372D01*
X154984222Y-85135595D01*
X154940949Y-85112464D01*
X154900150Y-85085204D01*
X154862221Y-85054076D01*
X154827524Y-85019379D01*
X154796396Y-84981450D01*
X154769136Y-84940651D01*
X154746005Y-84897378D01*
X154727228Y-84852045D01*
X154712984Y-84805090D01*
X154703412Y-84756965D01*
X154698602Y-84708134D01*
X154698602Y-84683600D01*
X154698000Y-84683600D01*
X154698000Y-84183600D01*
X156198000Y-84183600D01*
G37*
%TD*%
%TO.C,JP2*%
G36*
X153708800Y-84183600D02*
G01*
X153708800Y-84683600D01*
X153708198Y-84683600D01*
X153708198Y-84708134D01*
X153703388Y-84756965D01*
X153693816Y-84805090D01*
X153679572Y-84852045D01*
X153660795Y-84897378D01*
X153637664Y-84940651D01*
X153610404Y-84981450D01*
X153579276Y-85019379D01*
X153544579Y-85054076D01*
X153506650Y-85085204D01*
X153465851Y-85112464D01*
X153422578Y-85135595D01*
X153377245Y-85154372D01*
X153330290Y-85168616D01*
X153282165Y-85178188D01*
X153233334Y-85182998D01*
X153208800Y-85182998D01*
X153208800Y-85183600D01*
X152708800Y-85183600D01*
X152708800Y-85182998D01*
X152684266Y-85182998D01*
X152635435Y-85178188D01*
X152587310Y-85168616D01*
X152540355Y-85154372D01*
X152495022Y-85135595D01*
X152451749Y-85112464D01*
X152410950Y-85085204D01*
X152373021Y-85054076D01*
X152338324Y-85019379D01*
X152307196Y-84981450D01*
X152279936Y-84940651D01*
X152256805Y-84897378D01*
X152238028Y-84852045D01*
X152223784Y-84805090D01*
X152214212Y-84756965D01*
X152209402Y-84708134D01*
X152209402Y-84683600D01*
X152208800Y-84683600D01*
X152208800Y-84183600D01*
X153708800Y-84183600D01*
G37*
G36*
X152209402Y-83383600D02*
G01*
X152209402Y-83359066D01*
X152214212Y-83310235D01*
X152223784Y-83262110D01*
X152238028Y-83215155D01*
X152256805Y-83169822D01*
X152279936Y-83126549D01*
X152307196Y-83085750D01*
X152338324Y-83047821D01*
X152373021Y-83013124D01*
X152410950Y-82981996D01*
X152451749Y-82954736D01*
X152495022Y-82931605D01*
X152540355Y-82912828D01*
X152587310Y-82898584D01*
X152635435Y-82889012D01*
X152684266Y-82884202D01*
X152708800Y-82884202D01*
X152708800Y-82883600D01*
X153208800Y-82883600D01*
X153208800Y-82884202D01*
X153233334Y-82884202D01*
X153282165Y-82889012D01*
X153330290Y-82898584D01*
X153377245Y-82912828D01*
X153422578Y-82931605D01*
X153465851Y-82954736D01*
X153506650Y-82981996D01*
X153544579Y-83013124D01*
X153579276Y-83047821D01*
X153610404Y-83085750D01*
X153637664Y-83126549D01*
X153660795Y-83169822D01*
X153679572Y-83215155D01*
X153693816Y-83262110D01*
X153703388Y-83310235D01*
X153708198Y-83359066D01*
X153708198Y-83383600D01*
X153708800Y-83383600D01*
X153708800Y-83883600D01*
X152208800Y-83883600D01*
X152208800Y-83383600D01*
X152209402Y-83383600D01*
G37*
%TD*%
%TO.C,JP3*%
G36*
X149720202Y-83383600D02*
G01*
X149720202Y-83359066D01*
X149725012Y-83310235D01*
X149734584Y-83262110D01*
X149748828Y-83215155D01*
X149767605Y-83169822D01*
X149790736Y-83126549D01*
X149817996Y-83085750D01*
X149849124Y-83047821D01*
X149883821Y-83013124D01*
X149921750Y-82981996D01*
X149962549Y-82954736D01*
X150005822Y-82931605D01*
X150051155Y-82912828D01*
X150098110Y-82898584D01*
X150146235Y-82889012D01*
X150195066Y-82884202D01*
X150219600Y-82884202D01*
X150219600Y-82883600D01*
X150719600Y-82883600D01*
X150719600Y-82884202D01*
X150744134Y-82884202D01*
X150792965Y-82889012D01*
X150841090Y-82898584D01*
X150888045Y-82912828D01*
X150933378Y-82931605D01*
X150976651Y-82954736D01*
X151017450Y-82981996D01*
X151055379Y-83013124D01*
X151090076Y-83047821D01*
X151121204Y-83085750D01*
X151148464Y-83126549D01*
X151171595Y-83169822D01*
X151190372Y-83215155D01*
X151204616Y-83262110D01*
X151214188Y-83310235D01*
X151218998Y-83359066D01*
X151218998Y-83383600D01*
X151219600Y-83383600D01*
X151219600Y-83883600D01*
X149719600Y-83883600D01*
X149719600Y-83383600D01*
X149720202Y-83383600D01*
G37*
G36*
X151219600Y-84183600D02*
G01*
X151219600Y-84683600D01*
X151218998Y-84683600D01*
X151218998Y-84708134D01*
X151214188Y-84756965D01*
X151204616Y-84805090D01*
X151190372Y-84852045D01*
X151171595Y-84897378D01*
X151148464Y-84940651D01*
X151121204Y-84981450D01*
X151090076Y-85019379D01*
X151055379Y-85054076D01*
X151017450Y-85085204D01*
X150976651Y-85112464D01*
X150933378Y-85135595D01*
X150888045Y-85154372D01*
X150841090Y-85168616D01*
X150792965Y-85178188D01*
X150744134Y-85182998D01*
X150719600Y-85182998D01*
X150719600Y-85183600D01*
X150219600Y-85183600D01*
X150219600Y-85182998D01*
X150195066Y-85182998D01*
X150146235Y-85178188D01*
X150098110Y-85168616D01*
X150051155Y-85154372D01*
X150005822Y-85135595D01*
X149962549Y-85112464D01*
X149921750Y-85085204D01*
X149883821Y-85054076D01*
X149849124Y-85019379D01*
X149817996Y-84981450D01*
X149790736Y-84940651D01*
X149767605Y-84897378D01*
X149748828Y-84852045D01*
X149734584Y-84805090D01*
X149725012Y-84756965D01*
X149720202Y-84708134D01*
X149720202Y-84683600D01*
X149719600Y-84683600D01*
X149719600Y-84183600D01*
X151219600Y-84183600D01*
G37*
%TD*%
%TO.C,JP4*%
G36*
X148730400Y-84183600D02*
G01*
X148730400Y-84683600D01*
X148729798Y-84683600D01*
X148729798Y-84708134D01*
X148724988Y-84756965D01*
X148715416Y-84805090D01*
X148701172Y-84852045D01*
X148682395Y-84897378D01*
X148659264Y-84940651D01*
X148632004Y-84981450D01*
X148600876Y-85019379D01*
X148566179Y-85054076D01*
X148528250Y-85085204D01*
X148487451Y-85112464D01*
X148444178Y-85135595D01*
X148398845Y-85154372D01*
X148351890Y-85168616D01*
X148303765Y-85178188D01*
X148254934Y-85182998D01*
X148230400Y-85182998D01*
X148230400Y-85183600D01*
X147730400Y-85183600D01*
X147730400Y-85182998D01*
X147705866Y-85182998D01*
X147657035Y-85178188D01*
X147608910Y-85168616D01*
X147561955Y-85154372D01*
X147516622Y-85135595D01*
X147473349Y-85112464D01*
X147432550Y-85085204D01*
X147394621Y-85054076D01*
X147359924Y-85019379D01*
X147328796Y-84981450D01*
X147301536Y-84940651D01*
X147278405Y-84897378D01*
X147259628Y-84852045D01*
X147245384Y-84805090D01*
X147235812Y-84756965D01*
X147231002Y-84708134D01*
X147231002Y-84683600D01*
X147230400Y-84683600D01*
X147230400Y-84183600D01*
X148730400Y-84183600D01*
G37*
G36*
X147231002Y-83383600D02*
G01*
X147231002Y-83359066D01*
X147235812Y-83310235D01*
X147245384Y-83262110D01*
X147259628Y-83215155D01*
X147278405Y-83169822D01*
X147301536Y-83126549D01*
X147328796Y-83085750D01*
X147359924Y-83047821D01*
X147394621Y-83013124D01*
X147432550Y-82981996D01*
X147473349Y-82954736D01*
X147516622Y-82931605D01*
X147561955Y-82912828D01*
X147608910Y-82898584D01*
X147657035Y-82889012D01*
X147705866Y-82884202D01*
X147730400Y-82884202D01*
X147730400Y-82883600D01*
X148230400Y-82883600D01*
X148230400Y-82884202D01*
X148254934Y-82884202D01*
X148303765Y-82889012D01*
X148351890Y-82898584D01*
X148398845Y-82912828D01*
X148444178Y-82931605D01*
X148487451Y-82954736D01*
X148528250Y-82981996D01*
X148566179Y-83013124D01*
X148600876Y-83047821D01*
X148632004Y-83085750D01*
X148659264Y-83126549D01*
X148682395Y-83169822D01*
X148701172Y-83215155D01*
X148715416Y-83262110D01*
X148724988Y-83310235D01*
X148729798Y-83359066D01*
X148729798Y-83383600D01*
X148730400Y-83383600D01*
X148730400Y-83883600D01*
X147230400Y-83883600D01*
X147230400Y-83383600D01*
X147231002Y-83383600D01*
G37*
%TD*%
%TO.C,JP5*%
G36*
X144741802Y-83383600D02*
G01*
X144741802Y-83359066D01*
X144746612Y-83310235D01*
X144756184Y-83262110D01*
X144770428Y-83215155D01*
X144789205Y-83169822D01*
X144812336Y-83126549D01*
X144839596Y-83085750D01*
X144870724Y-83047821D01*
X144905421Y-83013124D01*
X144943350Y-82981996D01*
X144984149Y-82954736D01*
X145027422Y-82931605D01*
X145072755Y-82912828D01*
X145119710Y-82898584D01*
X145167835Y-82889012D01*
X145216666Y-82884202D01*
X145241200Y-82884202D01*
X145241200Y-82883600D01*
X145741200Y-82883600D01*
X145741200Y-82884202D01*
X145765734Y-82884202D01*
X145814565Y-82889012D01*
X145862690Y-82898584D01*
X145909645Y-82912828D01*
X145954978Y-82931605D01*
X145998251Y-82954736D01*
X146039050Y-82981996D01*
X146076979Y-83013124D01*
X146111676Y-83047821D01*
X146142804Y-83085750D01*
X146170064Y-83126549D01*
X146193195Y-83169822D01*
X146211972Y-83215155D01*
X146226216Y-83262110D01*
X146235788Y-83310235D01*
X146240598Y-83359066D01*
X146240598Y-83383600D01*
X146241200Y-83383600D01*
X146241200Y-83883600D01*
X144741200Y-83883600D01*
X144741200Y-83383600D01*
X144741802Y-83383600D01*
G37*
G36*
X146241200Y-84183600D02*
G01*
X146241200Y-84683600D01*
X146240598Y-84683600D01*
X146240598Y-84708134D01*
X146235788Y-84756965D01*
X146226216Y-84805090D01*
X146211972Y-84852045D01*
X146193195Y-84897378D01*
X146170064Y-84940651D01*
X146142804Y-84981450D01*
X146111676Y-85019379D01*
X146076979Y-85054076D01*
X146039050Y-85085204D01*
X145998251Y-85112464D01*
X145954978Y-85135595D01*
X145909645Y-85154372D01*
X145862690Y-85168616D01*
X145814565Y-85178188D01*
X145765734Y-85182998D01*
X145741200Y-85182998D01*
X145741200Y-85183600D01*
X145241200Y-85183600D01*
X145241200Y-85182998D01*
X145216666Y-85182998D01*
X145167835Y-85178188D01*
X145119710Y-85168616D01*
X145072755Y-85154372D01*
X145027422Y-85135595D01*
X144984149Y-85112464D01*
X144943350Y-85085204D01*
X144905421Y-85054076D01*
X144870724Y-85019379D01*
X144839596Y-84981450D01*
X144812336Y-84940651D01*
X144789205Y-84897378D01*
X144770428Y-84852045D01*
X144756184Y-84805090D01*
X144746612Y-84756965D01*
X144741802Y-84708134D01*
X144741802Y-84683600D01*
X144741200Y-84683600D01*
X144741200Y-84183600D01*
X146241200Y-84183600D01*
G37*
%TD*%
%TO.C,JP6*%
G36*
X142252602Y-83383600D02*
G01*
X142252602Y-83359066D01*
X142257412Y-83310235D01*
X142266984Y-83262110D01*
X142281228Y-83215155D01*
X142300005Y-83169822D01*
X142323136Y-83126549D01*
X142350396Y-83085750D01*
X142381524Y-83047821D01*
X142416221Y-83013124D01*
X142454150Y-82981996D01*
X142494949Y-82954736D01*
X142538222Y-82931605D01*
X142583555Y-82912828D01*
X142630510Y-82898584D01*
X142678635Y-82889012D01*
X142727466Y-82884202D01*
X142752000Y-82884202D01*
X142752000Y-82883600D01*
X143252000Y-82883600D01*
X143252000Y-82884202D01*
X143276534Y-82884202D01*
X143325365Y-82889012D01*
X143373490Y-82898584D01*
X143420445Y-82912828D01*
X143465778Y-82931605D01*
X143509051Y-82954736D01*
X143549850Y-82981996D01*
X143587779Y-83013124D01*
X143622476Y-83047821D01*
X143653604Y-83085750D01*
X143680864Y-83126549D01*
X143703995Y-83169822D01*
X143722772Y-83215155D01*
X143737016Y-83262110D01*
X143746588Y-83310235D01*
X143751398Y-83359066D01*
X143751398Y-83383600D01*
X143752000Y-83383600D01*
X143752000Y-83883600D01*
X142252000Y-83883600D01*
X142252000Y-83383600D01*
X142252602Y-83383600D01*
G37*
G36*
X143752000Y-84183600D02*
G01*
X143752000Y-84683600D01*
X143751398Y-84683600D01*
X143751398Y-84708134D01*
X143746588Y-84756965D01*
X143737016Y-84805090D01*
X143722772Y-84852045D01*
X143703995Y-84897378D01*
X143680864Y-84940651D01*
X143653604Y-84981450D01*
X143622476Y-85019379D01*
X143587779Y-85054076D01*
X143549850Y-85085204D01*
X143509051Y-85112464D01*
X143465778Y-85135595D01*
X143420445Y-85154372D01*
X143373490Y-85168616D01*
X143325365Y-85178188D01*
X143276534Y-85182998D01*
X143252000Y-85182998D01*
X143252000Y-85183600D01*
X142752000Y-85183600D01*
X142752000Y-85182998D01*
X142727466Y-85182998D01*
X142678635Y-85178188D01*
X142630510Y-85168616D01*
X142583555Y-85154372D01*
X142538222Y-85135595D01*
X142494949Y-85112464D01*
X142454150Y-85085204D01*
X142416221Y-85054076D01*
X142381524Y-85019379D01*
X142350396Y-84981450D01*
X142323136Y-84940651D01*
X142300005Y-84897378D01*
X142281228Y-84852045D01*
X142266984Y-84805090D01*
X142257412Y-84756965D01*
X142252602Y-84708134D01*
X142252602Y-84683600D01*
X142252000Y-84683600D01*
X142252000Y-84183600D01*
X143752000Y-84183600D01*
G37*
%TD*%
%TO.C,JP7*%
G36*
X141262800Y-84183600D02*
G01*
X141262800Y-84683600D01*
X141262198Y-84683600D01*
X141262198Y-84708134D01*
X141257388Y-84756965D01*
X141247816Y-84805090D01*
X141233572Y-84852045D01*
X141214795Y-84897378D01*
X141191664Y-84940651D01*
X141164404Y-84981450D01*
X141133276Y-85019379D01*
X141098579Y-85054076D01*
X141060650Y-85085204D01*
X141019851Y-85112464D01*
X140976578Y-85135595D01*
X140931245Y-85154372D01*
X140884290Y-85168616D01*
X140836165Y-85178188D01*
X140787334Y-85182998D01*
X140762800Y-85182998D01*
X140762800Y-85183600D01*
X140262800Y-85183600D01*
X140262800Y-85182998D01*
X140238266Y-85182998D01*
X140189435Y-85178188D01*
X140141310Y-85168616D01*
X140094355Y-85154372D01*
X140049022Y-85135595D01*
X140005749Y-85112464D01*
X139964950Y-85085204D01*
X139927021Y-85054076D01*
X139892324Y-85019379D01*
X139861196Y-84981450D01*
X139833936Y-84940651D01*
X139810805Y-84897378D01*
X139792028Y-84852045D01*
X139777784Y-84805090D01*
X139768212Y-84756965D01*
X139763402Y-84708134D01*
X139763402Y-84683600D01*
X139762800Y-84683600D01*
X139762800Y-84183600D01*
X141262800Y-84183600D01*
G37*
G36*
X139763402Y-83383600D02*
G01*
X139763402Y-83359066D01*
X139768212Y-83310235D01*
X139777784Y-83262110D01*
X139792028Y-83215155D01*
X139810805Y-83169822D01*
X139833936Y-83126549D01*
X139861196Y-83085750D01*
X139892324Y-83047821D01*
X139927021Y-83013124D01*
X139964950Y-82981996D01*
X140005749Y-82954736D01*
X140049022Y-82931605D01*
X140094355Y-82912828D01*
X140141310Y-82898584D01*
X140189435Y-82889012D01*
X140238266Y-82884202D01*
X140262800Y-82884202D01*
X140262800Y-82883600D01*
X140762800Y-82883600D01*
X140762800Y-82884202D01*
X140787334Y-82884202D01*
X140836165Y-82889012D01*
X140884290Y-82898584D01*
X140931245Y-82912828D01*
X140976578Y-82931605D01*
X141019851Y-82954736D01*
X141060650Y-82981996D01*
X141098579Y-83013124D01*
X141133276Y-83047821D01*
X141164404Y-83085750D01*
X141191664Y-83126549D01*
X141214795Y-83169822D01*
X141233572Y-83215155D01*
X141247816Y-83262110D01*
X141257388Y-83310235D01*
X141262198Y-83359066D01*
X141262198Y-83383600D01*
X141262800Y-83383600D01*
X141262800Y-83883600D01*
X139762800Y-83883600D01*
X139762800Y-83383600D01*
X139763402Y-83383600D01*
G37*
%TD*%
D21*
%TO.C,U2*%
X122986800Y-89814400D03*
X120446800Y-89814400D03*
X128066800Y-89814400D03*
X125526800Y-89814400D03*
X133146800Y-89814400D03*
X130606800Y-89814400D03*
D15*
X112890300Y-72732900D03*
X133083300Y-72796400D03*
D21*
X117906800Y-89877900D03*
X115366800Y-89941400D03*
X112699800Y-89877900D03*
%TD*%
%TO.C,U3*%
X149352000Y-89865200D03*
X146812000Y-89865200D03*
X154432000Y-89865200D03*
X151892000Y-89865200D03*
X159512000Y-89865200D03*
X156972000Y-89865200D03*
D15*
X139255500Y-72783700D03*
X159448500Y-72847200D03*
D21*
X144272000Y-89928700D03*
X141732000Y-89992200D03*
X139065000Y-89928700D03*
%TD*%
D20*
%TO.C,JP8*%
G36*
X136894000Y-84132800D02*
G01*
X136894000Y-84632800D01*
X136893398Y-84632800D01*
X136893398Y-84657334D01*
X136888588Y-84706165D01*
X136879016Y-84754290D01*
X136864772Y-84801245D01*
X136845995Y-84846578D01*
X136822864Y-84889851D01*
X136795604Y-84930650D01*
X136764476Y-84968579D01*
X136729779Y-85003276D01*
X136691850Y-85034404D01*
X136651051Y-85061664D01*
X136607778Y-85084795D01*
X136562445Y-85103572D01*
X136515490Y-85117816D01*
X136467365Y-85127388D01*
X136418534Y-85132198D01*
X136394000Y-85132198D01*
X136394000Y-85132800D01*
X135894000Y-85132800D01*
X135894000Y-85132198D01*
X135869466Y-85132198D01*
X135820635Y-85127388D01*
X135772510Y-85117816D01*
X135725555Y-85103572D01*
X135680222Y-85084795D01*
X135636949Y-85061664D01*
X135596150Y-85034404D01*
X135558221Y-85003276D01*
X135523524Y-84968579D01*
X135492396Y-84930650D01*
X135465136Y-84889851D01*
X135442005Y-84846578D01*
X135423228Y-84801245D01*
X135408984Y-84754290D01*
X135399412Y-84706165D01*
X135394602Y-84657334D01*
X135394602Y-84632800D01*
X135394000Y-84632800D01*
X135394000Y-84132800D01*
X136894000Y-84132800D01*
G37*
G36*
X135394602Y-83332800D02*
G01*
X135394602Y-83308266D01*
X135399412Y-83259435D01*
X135408984Y-83211310D01*
X135423228Y-83164355D01*
X135442005Y-83119022D01*
X135465136Y-83075749D01*
X135492396Y-83034950D01*
X135523524Y-82997021D01*
X135558221Y-82962324D01*
X135596150Y-82931196D01*
X135636949Y-82903936D01*
X135680222Y-82880805D01*
X135725555Y-82862028D01*
X135772510Y-82847784D01*
X135820635Y-82838212D01*
X135869466Y-82833402D01*
X135894000Y-82833402D01*
X135894000Y-82832800D01*
X136394000Y-82832800D01*
X136394000Y-82833402D01*
X136418534Y-82833402D01*
X136467365Y-82838212D01*
X136515490Y-82847784D01*
X136562445Y-82862028D01*
X136607778Y-82880805D01*
X136651051Y-82903936D01*
X136691850Y-82931196D01*
X136729779Y-82962324D01*
X136764476Y-82997021D01*
X136795604Y-83034950D01*
X136822864Y-83075749D01*
X136845995Y-83119022D01*
X136864772Y-83164355D01*
X136879016Y-83211310D01*
X136888588Y-83259435D01*
X136893398Y-83308266D01*
X136893398Y-83332800D01*
X136894000Y-83332800D01*
X136894000Y-83832800D01*
X135394000Y-83832800D01*
X135394000Y-83332800D01*
X135394602Y-83332800D01*
G37*
%TD*%
%TO.C,JP9*%
G36*
X132905402Y-83332800D02*
G01*
X132905402Y-83308266D01*
X132910212Y-83259435D01*
X132919784Y-83211310D01*
X132934028Y-83164355D01*
X132952805Y-83119022D01*
X132975936Y-83075749D01*
X133003196Y-83034950D01*
X133034324Y-82997021D01*
X133069021Y-82962324D01*
X133106950Y-82931196D01*
X133147749Y-82903936D01*
X133191022Y-82880805D01*
X133236355Y-82862028D01*
X133283310Y-82847784D01*
X133331435Y-82838212D01*
X133380266Y-82833402D01*
X133404800Y-82833402D01*
X133404800Y-82832800D01*
X133904800Y-82832800D01*
X133904800Y-82833402D01*
X133929334Y-82833402D01*
X133978165Y-82838212D01*
X134026290Y-82847784D01*
X134073245Y-82862028D01*
X134118578Y-82880805D01*
X134161851Y-82903936D01*
X134202650Y-82931196D01*
X134240579Y-82962324D01*
X134275276Y-82997021D01*
X134306404Y-83034950D01*
X134333664Y-83075749D01*
X134356795Y-83119022D01*
X134375572Y-83164355D01*
X134389816Y-83211310D01*
X134399388Y-83259435D01*
X134404198Y-83308266D01*
X134404198Y-83332800D01*
X134404800Y-83332800D01*
X134404800Y-83832800D01*
X132904800Y-83832800D01*
X132904800Y-83332800D01*
X132905402Y-83332800D01*
G37*
G36*
X134404800Y-84132800D02*
G01*
X134404800Y-84632800D01*
X134404198Y-84632800D01*
X134404198Y-84657334D01*
X134399388Y-84706165D01*
X134389816Y-84754290D01*
X134375572Y-84801245D01*
X134356795Y-84846578D01*
X134333664Y-84889851D01*
X134306404Y-84930650D01*
X134275276Y-84968579D01*
X134240579Y-85003276D01*
X134202650Y-85034404D01*
X134161851Y-85061664D01*
X134118578Y-85084795D01*
X134073245Y-85103572D01*
X134026290Y-85117816D01*
X133978165Y-85127388D01*
X133929334Y-85132198D01*
X133904800Y-85132198D01*
X133904800Y-85132800D01*
X133404800Y-85132800D01*
X133404800Y-85132198D01*
X133380266Y-85132198D01*
X133331435Y-85127388D01*
X133283310Y-85117816D01*
X133236355Y-85103572D01*
X133191022Y-85084795D01*
X133147749Y-85061664D01*
X133106950Y-85034404D01*
X133069021Y-85003276D01*
X133034324Y-84968579D01*
X133003196Y-84930650D01*
X132975936Y-84889851D01*
X132952805Y-84846578D01*
X132934028Y-84801245D01*
X132919784Y-84754290D01*
X132910212Y-84706165D01*
X132905402Y-84657334D01*
X132905402Y-84632800D01*
X132904800Y-84632800D01*
X132904800Y-84132800D01*
X134404800Y-84132800D01*
G37*
%TD*%
%TO.C,JP10*%
G36*
X131864800Y-84132800D02*
G01*
X131864800Y-84632800D01*
X131864198Y-84632800D01*
X131864198Y-84657334D01*
X131859388Y-84706165D01*
X131849816Y-84754290D01*
X131835572Y-84801245D01*
X131816795Y-84846578D01*
X131793664Y-84889851D01*
X131766404Y-84930650D01*
X131735276Y-84968579D01*
X131700579Y-85003276D01*
X131662650Y-85034404D01*
X131621851Y-85061664D01*
X131578578Y-85084795D01*
X131533245Y-85103572D01*
X131486290Y-85117816D01*
X131438165Y-85127388D01*
X131389334Y-85132198D01*
X131364800Y-85132198D01*
X131364800Y-85132800D01*
X130864800Y-85132800D01*
X130864800Y-85132198D01*
X130840266Y-85132198D01*
X130791435Y-85127388D01*
X130743310Y-85117816D01*
X130696355Y-85103572D01*
X130651022Y-85084795D01*
X130607749Y-85061664D01*
X130566950Y-85034404D01*
X130529021Y-85003276D01*
X130494324Y-84968579D01*
X130463196Y-84930650D01*
X130435936Y-84889851D01*
X130412805Y-84846578D01*
X130394028Y-84801245D01*
X130379784Y-84754290D01*
X130370212Y-84706165D01*
X130365402Y-84657334D01*
X130365402Y-84632800D01*
X130364800Y-84632800D01*
X130364800Y-84132800D01*
X131864800Y-84132800D01*
G37*
G36*
X130365402Y-83332800D02*
G01*
X130365402Y-83308266D01*
X130370212Y-83259435D01*
X130379784Y-83211310D01*
X130394028Y-83164355D01*
X130412805Y-83119022D01*
X130435936Y-83075749D01*
X130463196Y-83034950D01*
X130494324Y-82997021D01*
X130529021Y-82962324D01*
X130566950Y-82931196D01*
X130607749Y-82903936D01*
X130651022Y-82880805D01*
X130696355Y-82862028D01*
X130743310Y-82847784D01*
X130791435Y-82838212D01*
X130840266Y-82833402D01*
X130864800Y-82833402D01*
X130864800Y-82832800D01*
X131364800Y-82832800D01*
X131364800Y-82833402D01*
X131389334Y-82833402D01*
X131438165Y-82838212D01*
X131486290Y-82847784D01*
X131533245Y-82862028D01*
X131578578Y-82880805D01*
X131621851Y-82903936D01*
X131662650Y-82931196D01*
X131700579Y-82962324D01*
X131735276Y-82997021D01*
X131766404Y-83034950D01*
X131793664Y-83075749D01*
X131816795Y-83119022D01*
X131835572Y-83164355D01*
X131849816Y-83211310D01*
X131859388Y-83259435D01*
X131864198Y-83308266D01*
X131864198Y-83332800D01*
X131864800Y-83332800D01*
X131864800Y-83832800D01*
X130364800Y-83832800D01*
X130364800Y-83332800D01*
X130365402Y-83332800D01*
G37*
%TD*%
%TO.C,JP11*%
G36*
X127876202Y-83322400D02*
G01*
X127876202Y-83297866D01*
X127881012Y-83249035D01*
X127890584Y-83200910D01*
X127904828Y-83153955D01*
X127923605Y-83108622D01*
X127946736Y-83065349D01*
X127973996Y-83024550D01*
X128005124Y-82986621D01*
X128039821Y-82951924D01*
X128077750Y-82920796D01*
X128118549Y-82893536D01*
X128161822Y-82870405D01*
X128207155Y-82851628D01*
X128254110Y-82837384D01*
X128302235Y-82827812D01*
X128351066Y-82823002D01*
X128375600Y-82823002D01*
X128375600Y-82822400D01*
X128875600Y-82822400D01*
X128875600Y-82823002D01*
X128900134Y-82823002D01*
X128948965Y-82827812D01*
X128997090Y-82837384D01*
X129044045Y-82851628D01*
X129089378Y-82870405D01*
X129132651Y-82893536D01*
X129173450Y-82920796D01*
X129211379Y-82951924D01*
X129246076Y-82986621D01*
X129277204Y-83024550D01*
X129304464Y-83065349D01*
X129327595Y-83108622D01*
X129346372Y-83153955D01*
X129360616Y-83200910D01*
X129370188Y-83249035D01*
X129374998Y-83297866D01*
X129374998Y-83322400D01*
X129375600Y-83322400D01*
X129375600Y-83822400D01*
X127875600Y-83822400D01*
X127875600Y-83322400D01*
X127876202Y-83322400D01*
G37*
G36*
X129375600Y-84122400D02*
G01*
X129375600Y-84622400D01*
X129374998Y-84622400D01*
X129374998Y-84646934D01*
X129370188Y-84695765D01*
X129360616Y-84743890D01*
X129346372Y-84790845D01*
X129327595Y-84836178D01*
X129304464Y-84879451D01*
X129277204Y-84920250D01*
X129246076Y-84958179D01*
X129211379Y-84992876D01*
X129173450Y-85024004D01*
X129132651Y-85051264D01*
X129089378Y-85074395D01*
X129044045Y-85093172D01*
X128997090Y-85107416D01*
X128948965Y-85116988D01*
X128900134Y-85121798D01*
X128875600Y-85121798D01*
X128875600Y-85122400D01*
X128375600Y-85122400D01*
X128375600Y-85121798D01*
X128351066Y-85121798D01*
X128302235Y-85116988D01*
X128254110Y-85107416D01*
X128207155Y-85093172D01*
X128161822Y-85074395D01*
X128118549Y-85051264D01*
X128077750Y-85024004D01*
X128039821Y-84992876D01*
X128005124Y-84958179D01*
X127973996Y-84920250D01*
X127946736Y-84879451D01*
X127923605Y-84836178D01*
X127904828Y-84790845D01*
X127890584Y-84743890D01*
X127881012Y-84695765D01*
X127876202Y-84646934D01*
X127876202Y-84622400D01*
X127875600Y-84622400D01*
X127875600Y-84122400D01*
X129375600Y-84122400D01*
G37*
%TD*%
%TO.C,JP12*%
G36*
X125336202Y-83332800D02*
G01*
X125336202Y-83308266D01*
X125341012Y-83259435D01*
X125350584Y-83211310D01*
X125364828Y-83164355D01*
X125383605Y-83119022D01*
X125406736Y-83075749D01*
X125433996Y-83034950D01*
X125465124Y-82997021D01*
X125499821Y-82962324D01*
X125537750Y-82931196D01*
X125578549Y-82903936D01*
X125621822Y-82880805D01*
X125667155Y-82862028D01*
X125714110Y-82847784D01*
X125762235Y-82838212D01*
X125811066Y-82833402D01*
X125835600Y-82833402D01*
X125835600Y-82832800D01*
X126335600Y-82832800D01*
X126335600Y-82833402D01*
X126360134Y-82833402D01*
X126408965Y-82838212D01*
X126457090Y-82847784D01*
X126504045Y-82862028D01*
X126549378Y-82880805D01*
X126592651Y-82903936D01*
X126633450Y-82931196D01*
X126671379Y-82962324D01*
X126706076Y-82997021D01*
X126737204Y-83034950D01*
X126764464Y-83075749D01*
X126787595Y-83119022D01*
X126806372Y-83164355D01*
X126820616Y-83211310D01*
X126830188Y-83259435D01*
X126834998Y-83308266D01*
X126834998Y-83332800D01*
X126835600Y-83332800D01*
X126835600Y-83832800D01*
X125335600Y-83832800D01*
X125335600Y-83332800D01*
X125336202Y-83332800D01*
G37*
G36*
X126835600Y-84132800D02*
G01*
X126835600Y-84632800D01*
X126834998Y-84632800D01*
X126834998Y-84657334D01*
X126830188Y-84706165D01*
X126820616Y-84754290D01*
X126806372Y-84801245D01*
X126787595Y-84846578D01*
X126764464Y-84889851D01*
X126737204Y-84930650D01*
X126706076Y-84968579D01*
X126671379Y-85003276D01*
X126633450Y-85034404D01*
X126592651Y-85061664D01*
X126549378Y-85084795D01*
X126504045Y-85103572D01*
X126457090Y-85117816D01*
X126408965Y-85127388D01*
X126360134Y-85132198D01*
X126335600Y-85132198D01*
X126335600Y-85132800D01*
X125835600Y-85132800D01*
X125835600Y-85132198D01*
X125811066Y-85132198D01*
X125762235Y-85127388D01*
X125714110Y-85117816D01*
X125667155Y-85103572D01*
X125621822Y-85084795D01*
X125578549Y-85061664D01*
X125537750Y-85034404D01*
X125499821Y-85003276D01*
X125465124Y-84968579D01*
X125433996Y-84930650D01*
X125406736Y-84889851D01*
X125383605Y-84846578D01*
X125364828Y-84801245D01*
X125350584Y-84754290D01*
X125341012Y-84706165D01*
X125336202Y-84657334D01*
X125336202Y-84632800D01*
X125335600Y-84632800D01*
X125335600Y-84132800D01*
X126835600Y-84132800D01*
G37*
%TD*%
%TO.C,JP13*%
G36*
X124346400Y-84122400D02*
G01*
X124346400Y-84622400D01*
X124345798Y-84622400D01*
X124345798Y-84646934D01*
X124340988Y-84695765D01*
X124331416Y-84743890D01*
X124317172Y-84790845D01*
X124298395Y-84836178D01*
X124275264Y-84879451D01*
X124248004Y-84920250D01*
X124216876Y-84958179D01*
X124182179Y-84992876D01*
X124144250Y-85024004D01*
X124103451Y-85051264D01*
X124060178Y-85074395D01*
X124014845Y-85093172D01*
X123967890Y-85107416D01*
X123919765Y-85116988D01*
X123870934Y-85121798D01*
X123846400Y-85121798D01*
X123846400Y-85122400D01*
X123346400Y-85122400D01*
X123346400Y-85121798D01*
X123321866Y-85121798D01*
X123273035Y-85116988D01*
X123224910Y-85107416D01*
X123177955Y-85093172D01*
X123132622Y-85074395D01*
X123089349Y-85051264D01*
X123048550Y-85024004D01*
X123010621Y-84992876D01*
X122975924Y-84958179D01*
X122944796Y-84920250D01*
X122917536Y-84879451D01*
X122894405Y-84836178D01*
X122875628Y-84790845D01*
X122861384Y-84743890D01*
X122851812Y-84695765D01*
X122847002Y-84646934D01*
X122847002Y-84622400D01*
X122846400Y-84622400D01*
X122846400Y-84122400D01*
X124346400Y-84122400D01*
G37*
G36*
X122847002Y-83322400D02*
G01*
X122847002Y-83297866D01*
X122851812Y-83249035D01*
X122861384Y-83200910D01*
X122875628Y-83153955D01*
X122894405Y-83108622D01*
X122917536Y-83065349D01*
X122944796Y-83024550D01*
X122975924Y-82986621D01*
X123010621Y-82951924D01*
X123048550Y-82920796D01*
X123089349Y-82893536D01*
X123132622Y-82870405D01*
X123177955Y-82851628D01*
X123224910Y-82837384D01*
X123273035Y-82827812D01*
X123321866Y-82823002D01*
X123346400Y-82823002D01*
X123346400Y-82822400D01*
X123846400Y-82822400D01*
X123846400Y-82823002D01*
X123870934Y-82823002D01*
X123919765Y-82827812D01*
X123967890Y-82837384D01*
X124014845Y-82851628D01*
X124060178Y-82870405D01*
X124103451Y-82893536D01*
X124144250Y-82920796D01*
X124182179Y-82951924D01*
X124216876Y-82986621D01*
X124248004Y-83024550D01*
X124275264Y-83065349D01*
X124298395Y-83108622D01*
X124317172Y-83153955D01*
X124331416Y-83200910D01*
X124340988Y-83249035D01*
X124345798Y-83297866D01*
X124345798Y-83322400D01*
X124346400Y-83322400D01*
X124346400Y-83822400D01*
X122846400Y-83822400D01*
X122846400Y-83322400D01*
X122847002Y-83322400D01*
G37*
%TD*%
%TO.C,JP_SCL1*%
G36*
X112381600Y-84442400D02*
G01*
X112381600Y-83942400D01*
X112382202Y-83942400D01*
X112382202Y-83917866D01*
X112387012Y-83869035D01*
X112396584Y-83820910D01*
X112410828Y-83773955D01*
X112429605Y-83728622D01*
X112452736Y-83685349D01*
X112479996Y-83644550D01*
X112511124Y-83606621D01*
X112545821Y-83571924D01*
X112583750Y-83540796D01*
X112624549Y-83513536D01*
X112667822Y-83490405D01*
X112713155Y-83471628D01*
X112760110Y-83457384D01*
X112808235Y-83447812D01*
X112857066Y-83443002D01*
X112881600Y-83443002D01*
X112881600Y-83442400D01*
X113381600Y-83442400D01*
X113381600Y-83443002D01*
X113406134Y-83443002D01*
X113454965Y-83447812D01*
X113503090Y-83457384D01*
X113550045Y-83471628D01*
X113595378Y-83490405D01*
X113638651Y-83513536D01*
X113679450Y-83540796D01*
X113717379Y-83571924D01*
X113752076Y-83606621D01*
X113783204Y-83644550D01*
X113810464Y-83685349D01*
X113833595Y-83728622D01*
X113852372Y-83773955D01*
X113866616Y-83820910D01*
X113876188Y-83869035D01*
X113880998Y-83917866D01*
X113880998Y-83942400D01*
X113881600Y-83942400D01*
X113881600Y-84442400D01*
X112381600Y-84442400D01*
G37*
G36*
X113880998Y-85242400D02*
G01*
X113880998Y-85266934D01*
X113876188Y-85315765D01*
X113866616Y-85363890D01*
X113852372Y-85410845D01*
X113833595Y-85456178D01*
X113810464Y-85499451D01*
X113783204Y-85540250D01*
X113752076Y-85578179D01*
X113717379Y-85612876D01*
X113679450Y-85644004D01*
X113638651Y-85671264D01*
X113595378Y-85694395D01*
X113550045Y-85713172D01*
X113503090Y-85727416D01*
X113454965Y-85736988D01*
X113406134Y-85741798D01*
X113381600Y-85741798D01*
X113381600Y-85742400D01*
X112881600Y-85742400D01*
X112881600Y-85741798D01*
X112857066Y-85741798D01*
X112808235Y-85736988D01*
X112760110Y-85727416D01*
X112713155Y-85713172D01*
X112667822Y-85694395D01*
X112624549Y-85671264D01*
X112583750Y-85644004D01*
X112545821Y-85612876D01*
X112511124Y-85578179D01*
X112479996Y-85540250D01*
X112452736Y-85499451D01*
X112429605Y-85456178D01*
X112410828Y-85410845D01*
X112396584Y-85363890D01*
X112387012Y-85315765D01*
X112382202Y-85266934D01*
X112382202Y-85242400D01*
X112381600Y-85242400D01*
X112381600Y-84742400D01*
X113881600Y-84742400D01*
X113881600Y-85242400D01*
X113880998Y-85242400D01*
G37*
%TD*%
%TO.C,JP_SDA1*%
G36*
X116624198Y-85242400D02*
G01*
X116624198Y-85266934D01*
X116619388Y-85315765D01*
X116609816Y-85363890D01*
X116595572Y-85410845D01*
X116576795Y-85456178D01*
X116553664Y-85499451D01*
X116526404Y-85540250D01*
X116495276Y-85578179D01*
X116460579Y-85612876D01*
X116422650Y-85644004D01*
X116381851Y-85671264D01*
X116338578Y-85694395D01*
X116293245Y-85713172D01*
X116246290Y-85727416D01*
X116198165Y-85736988D01*
X116149334Y-85741798D01*
X116124800Y-85741798D01*
X116124800Y-85742400D01*
X115624800Y-85742400D01*
X115624800Y-85741798D01*
X115600266Y-85741798D01*
X115551435Y-85736988D01*
X115503310Y-85727416D01*
X115456355Y-85713172D01*
X115411022Y-85694395D01*
X115367749Y-85671264D01*
X115326950Y-85644004D01*
X115289021Y-85612876D01*
X115254324Y-85578179D01*
X115223196Y-85540250D01*
X115195936Y-85499451D01*
X115172805Y-85456178D01*
X115154028Y-85410845D01*
X115139784Y-85363890D01*
X115130212Y-85315765D01*
X115125402Y-85266934D01*
X115125402Y-85242400D01*
X115124800Y-85242400D01*
X115124800Y-84742400D01*
X116624800Y-84742400D01*
X116624800Y-85242400D01*
X116624198Y-85242400D01*
G37*
G36*
X115124800Y-84442400D02*
G01*
X115124800Y-83942400D01*
X115125402Y-83942400D01*
X115125402Y-83917866D01*
X115130212Y-83869035D01*
X115139784Y-83820910D01*
X115154028Y-83773955D01*
X115172805Y-83728622D01*
X115195936Y-83685349D01*
X115223196Y-83644550D01*
X115254324Y-83606621D01*
X115289021Y-83571924D01*
X115326950Y-83540796D01*
X115367749Y-83513536D01*
X115411022Y-83490405D01*
X115456355Y-83471628D01*
X115503310Y-83457384D01*
X115551435Y-83447812D01*
X115600266Y-83443002D01*
X115624800Y-83443002D01*
X115624800Y-83442400D01*
X116124800Y-83442400D01*
X116124800Y-83443002D01*
X116149334Y-83443002D01*
X116198165Y-83447812D01*
X116246290Y-83457384D01*
X116293245Y-83471628D01*
X116338578Y-83490405D01*
X116381851Y-83513536D01*
X116422650Y-83540796D01*
X116460579Y-83571924D01*
X116495276Y-83606621D01*
X116526404Y-83644550D01*
X116553664Y-83685349D01*
X116576795Y-83728622D01*
X116595572Y-83773955D01*
X116609816Y-83820910D01*
X116619388Y-83869035D01*
X116624198Y-83917866D01*
X116624198Y-83942400D01*
X116624800Y-83942400D01*
X116624800Y-84442400D01*
X115124800Y-84442400D01*
G37*
%TD*%
%TO.C,JP3V3*%
G36*
X129247802Y-126238000D02*
G01*
X129247802Y-126213466D01*
X129252612Y-126164635D01*
X129262184Y-126116510D01*
X129276428Y-126069555D01*
X129295205Y-126024222D01*
X129318336Y-125980949D01*
X129345596Y-125940150D01*
X129376724Y-125902221D01*
X129411421Y-125867524D01*
X129449350Y-125836396D01*
X129490149Y-125809136D01*
X129533422Y-125786005D01*
X129578755Y-125767228D01*
X129625710Y-125752984D01*
X129673835Y-125743412D01*
X129722666Y-125738602D01*
X129747200Y-125738602D01*
X129747200Y-125738000D01*
X130247200Y-125738000D01*
X130247200Y-125738602D01*
X130271734Y-125738602D01*
X130320565Y-125743412D01*
X130368690Y-125752984D01*
X130415645Y-125767228D01*
X130460978Y-125786005D01*
X130504251Y-125809136D01*
X130545050Y-125836396D01*
X130582979Y-125867524D01*
X130617676Y-125902221D01*
X130648804Y-125940150D01*
X130676064Y-125980949D01*
X130699195Y-126024222D01*
X130717972Y-126069555D01*
X130732216Y-126116510D01*
X130741788Y-126164635D01*
X130746598Y-126213466D01*
X130746598Y-126238000D01*
X130747200Y-126238000D01*
X130747200Y-126738000D01*
X129247200Y-126738000D01*
X129247200Y-126238000D01*
X129247802Y-126238000D01*
G37*
G36*
X130747200Y-127038000D02*
G01*
X130747200Y-127538000D01*
X130746598Y-127538000D01*
X130746598Y-127562534D01*
X130741788Y-127611365D01*
X130732216Y-127659490D01*
X130717972Y-127706445D01*
X130699195Y-127751778D01*
X130676064Y-127795051D01*
X130648804Y-127835850D01*
X130617676Y-127873779D01*
X130582979Y-127908476D01*
X130545050Y-127939604D01*
X130504251Y-127966864D01*
X130460978Y-127989995D01*
X130415645Y-128008772D01*
X130368690Y-128023016D01*
X130320565Y-128032588D01*
X130271734Y-128037398D01*
X130247200Y-128037398D01*
X130247200Y-128038000D01*
X129747200Y-128038000D01*
X129747200Y-128037398D01*
X129722666Y-128037398D01*
X129673835Y-128032588D01*
X129625710Y-128023016D01*
X129578755Y-128008772D01*
X129533422Y-127989995D01*
X129490149Y-127966864D01*
X129449350Y-127939604D01*
X129411421Y-127908476D01*
X129376724Y-127873779D01*
X129345596Y-127835850D01*
X129318336Y-127795051D01*
X129295205Y-127751778D01*
X129276428Y-127706445D01*
X129262184Y-127659490D01*
X129252612Y-127611365D01*
X129247802Y-127562534D01*
X129247802Y-127538000D01*
X129247200Y-127538000D01*
X129247200Y-127038000D01*
X130747200Y-127038000D01*
G37*
%TD*%
%TO.C,JP5V1*%
G36*
X133236400Y-126997600D02*
G01*
X133236400Y-127497600D01*
X133235798Y-127497600D01*
X133235798Y-127522134D01*
X133230988Y-127570965D01*
X133221416Y-127619090D01*
X133207172Y-127666045D01*
X133188395Y-127711378D01*
X133165264Y-127754651D01*
X133138004Y-127795450D01*
X133106876Y-127833379D01*
X133072179Y-127868076D01*
X133034250Y-127899204D01*
X132993451Y-127926464D01*
X132950178Y-127949595D01*
X132904845Y-127968372D01*
X132857890Y-127982616D01*
X132809765Y-127992188D01*
X132760934Y-127996998D01*
X132736400Y-127996998D01*
X132736400Y-127997600D01*
X132236400Y-127997600D01*
X132236400Y-127996998D01*
X132211866Y-127996998D01*
X132163035Y-127992188D01*
X132114910Y-127982616D01*
X132067955Y-127968372D01*
X132022622Y-127949595D01*
X131979349Y-127926464D01*
X131938550Y-127899204D01*
X131900621Y-127868076D01*
X131865924Y-127833379D01*
X131834796Y-127795450D01*
X131807536Y-127754651D01*
X131784405Y-127711378D01*
X131765628Y-127666045D01*
X131751384Y-127619090D01*
X131741812Y-127570965D01*
X131737002Y-127522134D01*
X131737002Y-127497600D01*
X131736400Y-127497600D01*
X131736400Y-126997600D01*
X133236400Y-126997600D01*
G37*
G36*
X131737002Y-126197600D02*
G01*
X131737002Y-126173066D01*
X131741812Y-126124235D01*
X131751384Y-126076110D01*
X131765628Y-126029155D01*
X131784405Y-125983822D01*
X131807536Y-125940549D01*
X131834796Y-125899750D01*
X131865924Y-125861821D01*
X131900621Y-125827124D01*
X131938550Y-125795996D01*
X131979349Y-125768736D01*
X132022622Y-125745605D01*
X132067955Y-125726828D01*
X132114910Y-125712584D01*
X132163035Y-125703012D01*
X132211866Y-125698202D01*
X132236400Y-125698202D01*
X132236400Y-125697600D01*
X132736400Y-125697600D01*
X132736400Y-125698202D01*
X132760934Y-125698202D01*
X132809765Y-125703012D01*
X132857890Y-125712584D01*
X132904845Y-125726828D01*
X132950178Y-125745605D01*
X132993451Y-125768736D01*
X133034250Y-125795996D01*
X133072179Y-125827124D01*
X133106876Y-125861821D01*
X133138004Y-125899750D01*
X133165264Y-125940549D01*
X133188395Y-125983822D01*
X133207172Y-126029155D01*
X133221416Y-126076110D01*
X133230988Y-126124235D01*
X133235798Y-126173066D01*
X133235798Y-126197600D01*
X133236400Y-126197600D01*
X133236400Y-126697600D01*
X131736400Y-126697600D01*
X131736400Y-126197600D01*
X131737002Y-126197600D01*
G37*
%TD*%
%TO.C,JPGND1*%
G36*
X136766202Y-126146800D02*
G01*
X136766202Y-126122266D01*
X136771012Y-126073435D01*
X136780584Y-126025310D01*
X136794828Y-125978355D01*
X136813605Y-125933022D01*
X136836736Y-125889749D01*
X136863996Y-125848950D01*
X136895124Y-125811021D01*
X136929821Y-125776324D01*
X136967750Y-125745196D01*
X137008549Y-125717936D01*
X137051822Y-125694805D01*
X137097155Y-125676028D01*
X137144110Y-125661784D01*
X137192235Y-125652212D01*
X137241066Y-125647402D01*
X137265600Y-125647402D01*
X137265600Y-125646800D01*
X137765600Y-125646800D01*
X137765600Y-125647402D01*
X137790134Y-125647402D01*
X137838965Y-125652212D01*
X137887090Y-125661784D01*
X137934045Y-125676028D01*
X137979378Y-125694805D01*
X138022651Y-125717936D01*
X138063450Y-125745196D01*
X138101379Y-125776324D01*
X138136076Y-125811021D01*
X138167204Y-125848950D01*
X138194464Y-125889749D01*
X138217595Y-125933022D01*
X138236372Y-125978355D01*
X138250616Y-126025310D01*
X138260188Y-126073435D01*
X138264998Y-126122266D01*
X138264998Y-126146800D01*
X138265600Y-126146800D01*
X138265600Y-126646800D01*
X136765600Y-126646800D01*
X136765600Y-126146800D01*
X136766202Y-126146800D01*
G37*
G36*
X138265600Y-126946800D02*
G01*
X138265600Y-127446800D01*
X138264998Y-127446800D01*
X138264998Y-127471334D01*
X138260188Y-127520165D01*
X138250616Y-127568290D01*
X138236372Y-127615245D01*
X138217595Y-127660578D01*
X138194464Y-127703851D01*
X138167204Y-127744650D01*
X138136076Y-127782579D01*
X138101379Y-127817276D01*
X138063450Y-127848404D01*
X138022651Y-127875664D01*
X137979378Y-127898795D01*
X137934045Y-127917572D01*
X137887090Y-127931816D01*
X137838965Y-127941388D01*
X137790134Y-127946198D01*
X137765600Y-127946198D01*
X137765600Y-127946800D01*
X137265600Y-127946800D01*
X137265600Y-127946198D01*
X137241066Y-127946198D01*
X137192235Y-127941388D01*
X137144110Y-127931816D01*
X137097155Y-127917572D01*
X137051822Y-127898795D01*
X137008549Y-127875664D01*
X136967750Y-127848404D01*
X136929821Y-127817276D01*
X136895124Y-127782579D01*
X136863996Y-127744650D01*
X136836736Y-127703851D01*
X136813605Y-127660578D01*
X136794828Y-127615245D01*
X136780584Y-127568290D01*
X136771012Y-127520165D01*
X136766202Y-127471334D01*
X136766202Y-127446800D01*
X136765600Y-127446800D01*
X136765600Y-126946800D01*
X138265600Y-126946800D01*
G37*
%TD*%
%TO.C,JPGND2*%
G36*
X135776400Y-126957200D02*
G01*
X135776400Y-127457200D01*
X135775798Y-127457200D01*
X135775798Y-127481734D01*
X135770988Y-127530565D01*
X135761416Y-127578690D01*
X135747172Y-127625645D01*
X135728395Y-127670978D01*
X135705264Y-127714251D01*
X135678004Y-127755050D01*
X135646876Y-127792979D01*
X135612179Y-127827676D01*
X135574250Y-127858804D01*
X135533451Y-127886064D01*
X135490178Y-127909195D01*
X135444845Y-127927972D01*
X135397890Y-127942216D01*
X135349765Y-127951788D01*
X135300934Y-127956598D01*
X135276400Y-127956598D01*
X135276400Y-127957200D01*
X134776400Y-127957200D01*
X134776400Y-127956598D01*
X134751866Y-127956598D01*
X134703035Y-127951788D01*
X134654910Y-127942216D01*
X134607955Y-127927972D01*
X134562622Y-127909195D01*
X134519349Y-127886064D01*
X134478550Y-127858804D01*
X134440621Y-127827676D01*
X134405924Y-127792979D01*
X134374796Y-127755050D01*
X134347536Y-127714251D01*
X134324405Y-127670978D01*
X134305628Y-127625645D01*
X134291384Y-127578690D01*
X134281812Y-127530565D01*
X134277002Y-127481734D01*
X134277002Y-127457200D01*
X134276400Y-127457200D01*
X134276400Y-126957200D01*
X135776400Y-126957200D01*
G37*
G36*
X134277002Y-126157200D02*
G01*
X134277002Y-126132666D01*
X134281812Y-126083835D01*
X134291384Y-126035710D01*
X134305628Y-125988755D01*
X134324405Y-125943422D01*
X134347536Y-125900149D01*
X134374796Y-125859350D01*
X134405924Y-125821421D01*
X134440621Y-125786724D01*
X134478550Y-125755596D01*
X134519349Y-125728336D01*
X134562622Y-125705205D01*
X134607955Y-125686428D01*
X134654910Y-125672184D01*
X134703035Y-125662612D01*
X134751866Y-125657802D01*
X134776400Y-125657802D01*
X134776400Y-125657200D01*
X135276400Y-125657200D01*
X135276400Y-125657802D01*
X135300934Y-125657802D01*
X135349765Y-125662612D01*
X135397890Y-125672184D01*
X135444845Y-125686428D01*
X135490178Y-125705205D01*
X135533451Y-125728336D01*
X135574250Y-125755596D01*
X135612179Y-125786724D01*
X135646876Y-125821421D01*
X135678004Y-125859350D01*
X135705264Y-125900149D01*
X135728395Y-125943422D01*
X135747172Y-125988755D01*
X135761416Y-126035710D01*
X135770988Y-126083835D01*
X135775798Y-126132666D01*
X135775798Y-126157200D01*
X135776400Y-126157200D01*
X135776400Y-126657200D01*
X134276400Y-126657200D01*
X134276400Y-126157200D01*
X134277002Y-126157200D01*
G37*
%TD*%
M02*
