%TF.GenerationSoftware,KiCad,Pcbnew,(5.1.10)-1*%
%TF.CreationDate,2021-06-07T20:05:56+02:00*%
%TF.ProjectId,AirFlow,41697246-6c6f-4772-9e6b-696361645f70,rev?*%
%TF.SameCoordinates,Original*%
%TF.FileFunction,Paste,Top*%
%TF.FilePolarity,Positive*%
%FSLAX46Y46*%
G04 Gerber Fmt 4.6, Leading zero omitted, Abs format (unit mm)*
G04 Created by KiCad (PCBNEW (5.1.10)-1) date 2021-06-07 20:05:56*
%MOMM*%
%LPD*%
G01*
G04 APERTURE LIST*
%ADD10R,0.450000X0.600000*%
%ADD11R,0.800000X0.900000*%
%ADD12R,0.600000X0.450000*%
G04 APERTURE END LIST*
%TO.C,U1*%
G36*
G01*
X130408000Y-99718000D02*
X130408000Y-99418000D01*
G75*
G02*
X130558000Y-99268000I150000J0D01*
G01*
X132208000Y-99268000D01*
G75*
G02*
X132358000Y-99418000I0J-150000D01*
G01*
X132358000Y-99718000D01*
G75*
G02*
X132208000Y-99868000I-150000J0D01*
G01*
X130558000Y-99868000D01*
G75*
G02*
X130408000Y-99718000I0J150000D01*
G01*
G37*
G36*
G01*
X130408000Y-100988000D02*
X130408000Y-100688000D01*
G75*
G02*
X130558000Y-100538000I150000J0D01*
G01*
X132208000Y-100538000D01*
G75*
G02*
X132358000Y-100688000I0J-150000D01*
G01*
X132358000Y-100988000D01*
G75*
G02*
X132208000Y-101138000I-150000J0D01*
G01*
X130558000Y-101138000D01*
G75*
G02*
X130408000Y-100988000I0J150000D01*
G01*
G37*
G36*
G01*
X130408000Y-102258000D02*
X130408000Y-101958000D01*
G75*
G02*
X130558000Y-101808000I150000J0D01*
G01*
X132208000Y-101808000D01*
G75*
G02*
X132358000Y-101958000I0J-150000D01*
G01*
X132358000Y-102258000D01*
G75*
G02*
X132208000Y-102408000I-150000J0D01*
G01*
X130558000Y-102408000D01*
G75*
G02*
X130408000Y-102258000I0J150000D01*
G01*
G37*
G36*
G01*
X130408000Y-103528000D02*
X130408000Y-103228000D01*
G75*
G02*
X130558000Y-103078000I150000J0D01*
G01*
X132208000Y-103078000D01*
G75*
G02*
X132358000Y-103228000I0J-150000D01*
G01*
X132358000Y-103528000D01*
G75*
G02*
X132208000Y-103678000I-150000J0D01*
G01*
X130558000Y-103678000D01*
G75*
G02*
X130408000Y-103528000I0J150000D01*
G01*
G37*
G36*
G01*
X130408000Y-104798000D02*
X130408000Y-104498000D01*
G75*
G02*
X130558000Y-104348000I150000J0D01*
G01*
X132208000Y-104348000D01*
G75*
G02*
X132358000Y-104498000I0J-150000D01*
G01*
X132358000Y-104798000D01*
G75*
G02*
X132208000Y-104948000I-150000J0D01*
G01*
X130558000Y-104948000D01*
G75*
G02*
X130408000Y-104798000I0J150000D01*
G01*
G37*
G36*
G01*
X130408000Y-106068000D02*
X130408000Y-105768000D01*
G75*
G02*
X130558000Y-105618000I150000J0D01*
G01*
X132208000Y-105618000D01*
G75*
G02*
X132358000Y-105768000I0J-150000D01*
G01*
X132358000Y-106068000D01*
G75*
G02*
X132208000Y-106218000I-150000J0D01*
G01*
X130558000Y-106218000D01*
G75*
G02*
X130408000Y-106068000I0J150000D01*
G01*
G37*
G36*
G01*
X130408000Y-107338000D02*
X130408000Y-107038000D01*
G75*
G02*
X130558000Y-106888000I150000J0D01*
G01*
X132208000Y-106888000D01*
G75*
G02*
X132358000Y-107038000I0J-150000D01*
G01*
X132358000Y-107338000D01*
G75*
G02*
X132208000Y-107488000I-150000J0D01*
G01*
X130558000Y-107488000D01*
G75*
G02*
X130408000Y-107338000I0J150000D01*
G01*
G37*
G36*
G01*
X135358000Y-107338000D02*
X135358000Y-107038000D01*
G75*
G02*
X135508000Y-106888000I150000J0D01*
G01*
X137158000Y-106888000D01*
G75*
G02*
X137308000Y-107038000I0J-150000D01*
G01*
X137308000Y-107338000D01*
G75*
G02*
X137158000Y-107488000I-150000J0D01*
G01*
X135508000Y-107488000D01*
G75*
G02*
X135358000Y-107338000I0J150000D01*
G01*
G37*
G36*
G01*
X135358000Y-106068000D02*
X135358000Y-105768000D01*
G75*
G02*
X135508000Y-105618000I150000J0D01*
G01*
X137158000Y-105618000D01*
G75*
G02*
X137308000Y-105768000I0J-150000D01*
G01*
X137308000Y-106068000D01*
G75*
G02*
X137158000Y-106218000I-150000J0D01*
G01*
X135508000Y-106218000D01*
G75*
G02*
X135358000Y-106068000I0J150000D01*
G01*
G37*
G36*
G01*
X135358000Y-104798000D02*
X135358000Y-104498000D01*
G75*
G02*
X135508000Y-104348000I150000J0D01*
G01*
X137158000Y-104348000D01*
G75*
G02*
X137308000Y-104498000I0J-150000D01*
G01*
X137308000Y-104798000D01*
G75*
G02*
X137158000Y-104948000I-150000J0D01*
G01*
X135508000Y-104948000D01*
G75*
G02*
X135358000Y-104798000I0J150000D01*
G01*
G37*
G36*
G01*
X135358000Y-103528000D02*
X135358000Y-103228000D01*
G75*
G02*
X135508000Y-103078000I150000J0D01*
G01*
X137158000Y-103078000D01*
G75*
G02*
X137308000Y-103228000I0J-150000D01*
G01*
X137308000Y-103528000D01*
G75*
G02*
X137158000Y-103678000I-150000J0D01*
G01*
X135508000Y-103678000D01*
G75*
G02*
X135358000Y-103528000I0J150000D01*
G01*
G37*
G36*
G01*
X135358000Y-102258000D02*
X135358000Y-101958000D01*
G75*
G02*
X135508000Y-101808000I150000J0D01*
G01*
X137158000Y-101808000D01*
G75*
G02*
X137308000Y-101958000I0J-150000D01*
G01*
X137308000Y-102258000D01*
G75*
G02*
X137158000Y-102408000I-150000J0D01*
G01*
X135508000Y-102408000D01*
G75*
G02*
X135358000Y-102258000I0J150000D01*
G01*
G37*
G36*
G01*
X135358000Y-100988000D02*
X135358000Y-100688000D01*
G75*
G02*
X135508000Y-100538000I150000J0D01*
G01*
X137158000Y-100538000D01*
G75*
G02*
X137308000Y-100688000I0J-150000D01*
G01*
X137308000Y-100988000D01*
G75*
G02*
X137158000Y-101138000I-150000J0D01*
G01*
X135508000Y-101138000D01*
G75*
G02*
X135358000Y-100988000I0J150000D01*
G01*
G37*
G36*
G01*
X135358000Y-99718000D02*
X135358000Y-99418000D01*
G75*
G02*
X135508000Y-99268000I150000J0D01*
G01*
X137158000Y-99268000D01*
G75*
G02*
X137308000Y-99418000I0J-150000D01*
G01*
X137308000Y-99718000D01*
G75*
G02*
X137158000Y-99868000I-150000J0D01*
G01*
X135508000Y-99868000D01*
G75*
G02*
X135358000Y-99718000I0J150000D01*
G01*
G37*
%TD*%
%TO.C,C3*%
G36*
G01*
X129904000Y-111929000D02*
X129904000Y-110829000D01*
G75*
G02*
X130154000Y-110579000I250000J0D01*
G01*
X132654000Y-110579000D01*
G75*
G02*
X132904000Y-110829000I0J-250000D01*
G01*
X132904000Y-111929000D01*
G75*
G02*
X132654000Y-112179000I-250000J0D01*
G01*
X130154000Y-112179000D01*
G75*
G02*
X129904000Y-111929000I0J250000D01*
G01*
G37*
G36*
G01*
X134304000Y-111929000D02*
X134304000Y-110829000D01*
G75*
G02*
X134554000Y-110579000I250000J0D01*
G01*
X137054000Y-110579000D01*
G75*
G02*
X137304000Y-110829000I0J-250000D01*
G01*
X137304000Y-111929000D01*
G75*
G02*
X137054000Y-112179000I-250000J0D01*
G01*
X134554000Y-112179000D01*
G75*
G02*
X134304000Y-111929000I0J250000D01*
G01*
G37*
%TD*%
%TO.C,C1*%
G36*
G01*
X124543800Y-104851800D02*
X125493800Y-104851800D01*
G75*
G02*
X125743800Y-105101800I0J-250000D01*
G01*
X125743800Y-105776800D01*
G75*
G02*
X125493800Y-106026800I-250000J0D01*
G01*
X124543800Y-106026800D01*
G75*
G02*
X124293800Y-105776800I0J250000D01*
G01*
X124293800Y-105101800D01*
G75*
G02*
X124543800Y-104851800I250000J0D01*
G01*
G37*
G36*
G01*
X124543800Y-106926800D02*
X125493800Y-106926800D01*
G75*
G02*
X125743800Y-107176800I0J-250000D01*
G01*
X125743800Y-107851800D01*
G75*
G02*
X125493800Y-108101800I-250000J0D01*
G01*
X124543800Y-108101800D01*
G75*
G02*
X124293800Y-107851800I0J250000D01*
G01*
X124293800Y-107176800D01*
G75*
G02*
X124543800Y-106926800I250000J0D01*
G01*
G37*
%TD*%
%TO.C,C2*%
G36*
G01*
X140810400Y-100805000D02*
X140810400Y-99855000D01*
G75*
G02*
X141060400Y-99605000I250000J0D01*
G01*
X141735400Y-99605000D01*
G75*
G02*
X141985400Y-99855000I0J-250000D01*
G01*
X141985400Y-100805000D01*
G75*
G02*
X141735400Y-101055000I-250000J0D01*
G01*
X141060400Y-101055000D01*
G75*
G02*
X140810400Y-100805000I0J250000D01*
G01*
G37*
G36*
G01*
X138735400Y-100805000D02*
X138735400Y-99855000D01*
G75*
G02*
X138985400Y-99605000I250000J0D01*
G01*
X139660400Y-99605000D01*
G75*
G02*
X139910400Y-99855000I0J-250000D01*
G01*
X139910400Y-100805000D01*
G75*
G02*
X139660400Y-101055000I-250000J0D01*
G01*
X138985400Y-101055000D01*
G75*
G02*
X138735400Y-100805000I0J250000D01*
G01*
G37*
%TD*%
%TO.C,C4*%
G36*
G01*
X127033000Y-101753000D02*
X127983000Y-101753000D01*
G75*
G02*
X128233000Y-102003000I0J-250000D01*
G01*
X128233000Y-102678000D01*
G75*
G02*
X127983000Y-102928000I-250000J0D01*
G01*
X127033000Y-102928000D01*
G75*
G02*
X126783000Y-102678000I0J250000D01*
G01*
X126783000Y-102003000D01*
G75*
G02*
X127033000Y-101753000I250000J0D01*
G01*
G37*
G36*
G01*
X127033000Y-103828000D02*
X127983000Y-103828000D01*
G75*
G02*
X128233000Y-104078000I0J-250000D01*
G01*
X128233000Y-104753000D01*
G75*
G02*
X127983000Y-105003000I-250000J0D01*
G01*
X127033000Y-105003000D01*
G75*
G02*
X126783000Y-104753000I0J250000D01*
G01*
X126783000Y-104078000D01*
G75*
G02*
X127033000Y-103828000I250000J0D01*
G01*
G37*
%TD*%
D10*
%TO.C,D2*%
X150164800Y-119312400D03*
X150164800Y-117212400D03*
%TD*%
%TO.C,D4*%
X150012400Y-115451600D03*
X150012400Y-113351600D03*
%TD*%
D11*
%TO.C,Q1*%
X125920500Y-93297500D03*
X126870500Y-95297500D03*
X124970500Y-95297500D03*
%TD*%
%TO.C,Q2*%
X141983500Y-110950500D03*
X140083500Y-110950500D03*
X141033500Y-112950500D03*
%TD*%
%TO.C,R1*%
G36*
G01*
X123876000Y-99103601D02*
X123876000Y-98203599D01*
G75*
G02*
X124125999Y-97953600I249999J0D01*
G01*
X124826001Y-97953600D01*
G75*
G02*
X125076000Y-98203599I0J-249999D01*
G01*
X125076000Y-99103601D01*
G75*
G02*
X124826001Y-99353600I-249999J0D01*
G01*
X124125999Y-99353600D01*
G75*
G02*
X123876000Y-99103601I0J249999D01*
G01*
G37*
G36*
G01*
X125876000Y-99103601D02*
X125876000Y-98203599D01*
G75*
G02*
X126125999Y-97953600I249999J0D01*
G01*
X126826001Y-97953600D01*
G75*
G02*
X127076000Y-98203599I0J-249999D01*
G01*
X127076000Y-99103601D01*
G75*
G02*
X126826001Y-99353600I-249999J0D01*
G01*
X126125999Y-99353600D01*
G75*
G02*
X125876000Y-99103601I0J249999D01*
G01*
G37*
%TD*%
%TO.C,R2*%
G36*
G01*
X130752001Y-98120000D02*
X129851999Y-98120000D01*
G75*
G02*
X129602000Y-97870001I0J249999D01*
G01*
X129602000Y-97169999D01*
G75*
G02*
X129851999Y-96920000I249999J0D01*
G01*
X130752001Y-96920000D01*
G75*
G02*
X131002000Y-97169999I0J-249999D01*
G01*
X131002000Y-97870001D01*
G75*
G02*
X130752001Y-98120000I-249999J0D01*
G01*
G37*
G36*
G01*
X130752001Y-96120000D02*
X129851999Y-96120000D01*
G75*
G02*
X129602000Y-95870001I0J249999D01*
G01*
X129602000Y-95169999D01*
G75*
G02*
X129851999Y-94920000I249999J0D01*
G01*
X130752001Y-94920000D01*
G75*
G02*
X131002000Y-95169999I0J-249999D01*
G01*
X131002000Y-95870001D01*
G75*
G02*
X130752001Y-96120000I-249999J0D01*
G01*
G37*
%TD*%
%TO.C,R4*%
G36*
G01*
X125214801Y-101200000D02*
X124314799Y-101200000D01*
G75*
G02*
X124064800Y-100950001I0J249999D01*
G01*
X124064800Y-100249999D01*
G75*
G02*
X124314799Y-100000000I249999J0D01*
G01*
X125214801Y-100000000D01*
G75*
G02*
X125464800Y-100249999I0J-249999D01*
G01*
X125464800Y-100950001D01*
G75*
G02*
X125214801Y-101200000I-249999J0D01*
G01*
G37*
G36*
G01*
X125214801Y-103200000D02*
X124314799Y-103200000D01*
G75*
G02*
X124064800Y-102950001I0J249999D01*
G01*
X124064800Y-102249999D01*
G75*
G02*
X124314799Y-102000000I249999J0D01*
G01*
X125214801Y-102000000D01*
G75*
G02*
X125464800Y-102249999I0J-249999D01*
G01*
X125464800Y-102950001D01*
G75*
G02*
X125214801Y-103200000I-249999J0D01*
G01*
G37*
%TD*%
%TO.C,R5*%
G36*
G01*
X127946999Y-108286500D02*
X128847001Y-108286500D01*
G75*
G02*
X129097000Y-108536499I0J-249999D01*
G01*
X129097000Y-109236501D01*
G75*
G02*
X128847001Y-109486500I-249999J0D01*
G01*
X127946999Y-109486500D01*
G75*
G02*
X127697000Y-109236501I0J249999D01*
G01*
X127697000Y-108536499D01*
G75*
G02*
X127946999Y-108286500I249999J0D01*
G01*
G37*
G36*
G01*
X127946999Y-106286500D02*
X128847001Y-106286500D01*
G75*
G02*
X129097000Y-106536499I0J-249999D01*
G01*
X129097000Y-107236501D01*
G75*
G02*
X128847001Y-107486500I-249999J0D01*
G01*
X127946999Y-107486500D01*
G75*
G02*
X127697000Y-107236501I0J249999D01*
G01*
X127697000Y-106536499D01*
G75*
G02*
X127946999Y-106286500I249999J0D01*
G01*
G37*
%TD*%
%TO.C,R6*%
G36*
G01*
X127565999Y-111277600D02*
X128466001Y-111277600D01*
G75*
G02*
X128716000Y-111527599I0J-249999D01*
G01*
X128716000Y-112227601D01*
G75*
G02*
X128466001Y-112477600I-249999J0D01*
G01*
X127565999Y-112477600D01*
G75*
G02*
X127316000Y-112227601I0J249999D01*
G01*
X127316000Y-111527599D01*
G75*
G02*
X127565999Y-111277600I249999J0D01*
G01*
G37*
G36*
G01*
X127565999Y-113277600D02*
X128466001Y-113277600D01*
G75*
G02*
X128716000Y-113527599I0J-249999D01*
G01*
X128716000Y-114227601D01*
G75*
G02*
X128466001Y-114477600I-249999J0D01*
G01*
X127565999Y-114477600D01*
G75*
G02*
X127316000Y-114227601I0J249999D01*
G01*
X127316000Y-113527599D01*
G75*
G02*
X127565999Y-113277600I249999J0D01*
G01*
G37*
%TD*%
%TO.C,R7*%
G36*
G01*
X131816800Y-96462001D02*
X131816800Y-95561999D01*
G75*
G02*
X132066799Y-95312000I249999J0D01*
G01*
X132766801Y-95312000D01*
G75*
G02*
X133016800Y-95561999I0J-249999D01*
G01*
X133016800Y-96462001D01*
G75*
G02*
X132766801Y-96712000I-249999J0D01*
G01*
X132066799Y-96712000D01*
G75*
G02*
X131816800Y-96462001I0J249999D01*
G01*
G37*
G36*
G01*
X133816800Y-96462001D02*
X133816800Y-95561999D01*
G75*
G02*
X134066799Y-95312000I249999J0D01*
G01*
X134766801Y-95312000D01*
G75*
G02*
X135016800Y-95561999I0J-249999D01*
G01*
X135016800Y-96462001D01*
G75*
G02*
X134766801Y-96712000I-249999J0D01*
G01*
X134066799Y-96712000D01*
G75*
G02*
X133816800Y-96462001I0J249999D01*
G01*
G37*
%TD*%
%TO.C,R8*%
G36*
G01*
X125799001Y-112217000D02*
X124898999Y-112217000D01*
G75*
G02*
X124649000Y-111967001I0J249999D01*
G01*
X124649000Y-111266999D01*
G75*
G02*
X124898999Y-111017000I249999J0D01*
G01*
X125799001Y-111017000D01*
G75*
G02*
X126049000Y-111266999I0J-249999D01*
G01*
X126049000Y-111967001D01*
G75*
G02*
X125799001Y-112217000I-249999J0D01*
G01*
G37*
G36*
G01*
X125799001Y-110217000D02*
X124898999Y-110217000D01*
G75*
G02*
X124649000Y-109967001I0J249999D01*
G01*
X124649000Y-109266999D01*
G75*
G02*
X124898999Y-109017000I249999J0D01*
G01*
X125799001Y-109017000D01*
G75*
G02*
X126049000Y-109266999I0J-249999D01*
G01*
X126049000Y-109967001D01*
G75*
G02*
X125799001Y-110217000I-249999J0D01*
G01*
G37*
%TD*%
%TO.C,R9*%
G36*
G01*
X122776401Y-106280000D02*
X121876399Y-106280000D01*
G75*
G02*
X121626400Y-106030001I0J249999D01*
G01*
X121626400Y-105329999D01*
G75*
G02*
X121876399Y-105080000I249999J0D01*
G01*
X122776401Y-105080000D01*
G75*
G02*
X123026400Y-105329999I0J-249999D01*
G01*
X123026400Y-106030001D01*
G75*
G02*
X122776401Y-106280000I-249999J0D01*
G01*
G37*
G36*
G01*
X122776401Y-108280000D02*
X121876399Y-108280000D01*
G75*
G02*
X121626400Y-108030001I0J249999D01*
G01*
X121626400Y-107329999D01*
G75*
G02*
X121876399Y-107080000I249999J0D01*
G01*
X122776401Y-107080000D01*
G75*
G02*
X123026400Y-107329999I0J-249999D01*
G01*
X123026400Y-108030001D01*
G75*
G02*
X122776401Y-108280000I-249999J0D01*
G01*
G37*
%TD*%
%TO.C,R15*%
G36*
G01*
X140303200Y-106266401D02*
X140303200Y-105366399D01*
G75*
G02*
X140553199Y-105116400I249999J0D01*
G01*
X141253201Y-105116400D01*
G75*
G02*
X141503200Y-105366399I0J-249999D01*
G01*
X141503200Y-106266401D01*
G75*
G02*
X141253201Y-106516400I-249999J0D01*
G01*
X140553199Y-106516400D01*
G75*
G02*
X140303200Y-106266401I0J249999D01*
G01*
G37*
G36*
G01*
X138303200Y-106266401D02*
X138303200Y-105366399D01*
G75*
G02*
X138553199Y-105116400I249999J0D01*
G01*
X139253201Y-105116400D01*
G75*
G02*
X139503200Y-105366399I0J-249999D01*
G01*
X139503200Y-106266401D01*
G75*
G02*
X139253201Y-106516400I-249999J0D01*
G01*
X138553199Y-106516400D01*
G75*
G02*
X138303200Y-106266401I0J249999D01*
G01*
G37*
%TD*%
%TO.C,R16*%
G36*
G01*
X141370000Y-109060401D02*
X141370000Y-108160399D01*
G75*
G02*
X141619999Y-107910400I249999J0D01*
G01*
X142320001Y-107910400D01*
G75*
G02*
X142570000Y-108160399I0J-249999D01*
G01*
X142570000Y-109060401D01*
G75*
G02*
X142320001Y-109310400I-249999J0D01*
G01*
X141619999Y-109310400D01*
G75*
G02*
X141370000Y-109060401I0J249999D01*
G01*
G37*
G36*
G01*
X139370000Y-109060401D02*
X139370000Y-108160399D01*
G75*
G02*
X139619999Y-107910400I249999J0D01*
G01*
X140320001Y-107910400D01*
G75*
G02*
X140570000Y-108160399I0J-249999D01*
G01*
X140570000Y-109060401D01*
G75*
G02*
X140320001Y-109310400I-249999J0D01*
G01*
X139619999Y-109310400D01*
G75*
G02*
X139370000Y-109060401I0J249999D01*
G01*
G37*
%TD*%
%TO.C,R18*%
G36*
G01*
X144228399Y-102200400D02*
X145128401Y-102200400D01*
G75*
G02*
X145378400Y-102450399I0J-249999D01*
G01*
X145378400Y-103150401D01*
G75*
G02*
X145128401Y-103400400I-249999J0D01*
G01*
X144228399Y-103400400D01*
G75*
G02*
X143978400Y-103150401I0J249999D01*
G01*
X143978400Y-102450399D01*
G75*
G02*
X144228399Y-102200400I249999J0D01*
G01*
G37*
G36*
G01*
X144228399Y-104200400D02*
X145128401Y-104200400D01*
G75*
G02*
X145378400Y-104450399I0J-249999D01*
G01*
X145378400Y-105150401D01*
G75*
G02*
X145128401Y-105400400I-249999J0D01*
G01*
X144228399Y-105400400D01*
G75*
G02*
X143978400Y-105150401I0J249999D01*
G01*
X143978400Y-104450399D01*
G75*
G02*
X144228399Y-104200400I249999J0D01*
G01*
G37*
%TD*%
%TO.C,R19*%
G36*
G01*
X139115600Y-97289199D02*
X139115600Y-98189201D01*
G75*
G02*
X138865601Y-98439200I-249999J0D01*
G01*
X138165599Y-98439200D01*
G75*
G02*
X137915600Y-98189201I0J249999D01*
G01*
X137915600Y-97289199D01*
G75*
G02*
X138165599Y-97039200I249999J0D01*
G01*
X138865601Y-97039200D01*
G75*
G02*
X139115600Y-97289199I0J-249999D01*
G01*
G37*
G36*
G01*
X137115600Y-97289199D02*
X137115600Y-98189201D01*
G75*
G02*
X136865601Y-98439200I-249999J0D01*
G01*
X136165599Y-98439200D01*
G75*
G02*
X135915600Y-98189201I0J249999D01*
G01*
X135915600Y-97289199D01*
G75*
G02*
X136165599Y-97039200I249999J0D01*
G01*
X136865601Y-97039200D01*
G75*
G02*
X137115600Y-97289199I0J-249999D01*
G01*
G37*
%TD*%
%TO.C,R20*%
G36*
G01*
X143030400Y-97935201D02*
X143030400Y-97035199D01*
G75*
G02*
X143280399Y-96785200I249999J0D01*
G01*
X143980401Y-96785200D01*
G75*
G02*
X144230400Y-97035199I0J-249999D01*
G01*
X144230400Y-97935201D01*
G75*
G02*
X143980401Y-98185200I-249999J0D01*
G01*
X143280399Y-98185200D01*
G75*
G02*
X143030400Y-97935201I0J249999D01*
G01*
G37*
G36*
G01*
X141030400Y-97935201D02*
X141030400Y-97035199D01*
G75*
G02*
X141280399Y-96785200I249999J0D01*
G01*
X141980401Y-96785200D01*
G75*
G02*
X142230400Y-97035199I0J-249999D01*
G01*
X142230400Y-97935201D01*
G75*
G02*
X141980401Y-98185200I-249999J0D01*
G01*
X141280399Y-98185200D01*
G75*
G02*
X141030400Y-97935201I0J249999D01*
G01*
G37*
%TD*%
%TO.C,R21*%
G36*
G01*
X142030400Y-103269201D02*
X142030400Y-102369199D01*
G75*
G02*
X142280399Y-102119200I249999J0D01*
G01*
X142980401Y-102119200D01*
G75*
G02*
X143230400Y-102369199I0J-249999D01*
G01*
X143230400Y-103269201D01*
G75*
G02*
X142980401Y-103519200I-249999J0D01*
G01*
X142280399Y-103519200D01*
G75*
G02*
X142030400Y-103269201I0J249999D01*
G01*
G37*
G36*
G01*
X140030400Y-103269201D02*
X140030400Y-102369199D01*
G75*
G02*
X140280399Y-102119200I249999J0D01*
G01*
X140980401Y-102119200D01*
G75*
G02*
X141230400Y-102369199I0J-249999D01*
G01*
X141230400Y-103269201D01*
G75*
G02*
X140980401Y-103519200I-249999J0D01*
G01*
X140280399Y-103519200D01*
G75*
G02*
X140030400Y-103269201I0J249999D01*
G01*
G37*
%TD*%
%TO.C,R22*%
G36*
G01*
X146364400Y-108755601D02*
X146364400Y-107855599D01*
G75*
G02*
X146614399Y-107605600I249999J0D01*
G01*
X147314401Y-107605600D01*
G75*
G02*
X147564400Y-107855599I0J-249999D01*
G01*
X147564400Y-108755601D01*
G75*
G02*
X147314401Y-109005600I-249999J0D01*
G01*
X146614399Y-109005600D01*
G75*
G02*
X146364400Y-108755601I0J249999D01*
G01*
G37*
G36*
G01*
X144364400Y-108755601D02*
X144364400Y-107855599D01*
G75*
G02*
X144614399Y-107605600I249999J0D01*
G01*
X145314401Y-107605600D01*
G75*
G02*
X145564400Y-107855599I0J-249999D01*
G01*
X145564400Y-108755601D01*
G75*
G02*
X145314401Y-109005600I-249999J0D01*
G01*
X144614399Y-109005600D01*
G75*
G02*
X144364400Y-108755601I0J249999D01*
G01*
G37*
%TD*%
%TO.C,R23*%
G36*
G01*
X143027200Y-93783999D02*
X143027200Y-94684001D01*
G75*
G02*
X142777201Y-94934000I-249999J0D01*
G01*
X142077199Y-94934000D01*
G75*
G02*
X141827200Y-94684001I0J249999D01*
G01*
X141827200Y-93783999D01*
G75*
G02*
X142077199Y-93534000I249999J0D01*
G01*
X142777201Y-93534000D01*
G75*
G02*
X143027200Y-93783999I0J-249999D01*
G01*
G37*
G36*
G01*
X141027200Y-93783999D02*
X141027200Y-94684001D01*
G75*
G02*
X140777201Y-94934000I-249999J0D01*
G01*
X140077199Y-94934000D01*
G75*
G02*
X139827200Y-94684001I0J249999D01*
G01*
X139827200Y-93783999D01*
G75*
G02*
X140077199Y-93534000I249999J0D01*
G01*
X140777201Y-93534000D01*
G75*
G02*
X141027200Y-93783999I0J-249999D01*
G01*
G37*
%TD*%
%TO.C,Rntc2*%
G36*
G01*
X144872400Y-112006801D02*
X144872400Y-111106799D01*
G75*
G02*
X145122399Y-110856800I249999J0D01*
G01*
X145822401Y-110856800D01*
G75*
G02*
X146072400Y-111106799I0J-249999D01*
G01*
X146072400Y-112006801D01*
G75*
G02*
X145822401Y-112256800I-249999J0D01*
G01*
X145122399Y-112256800D01*
G75*
G02*
X144872400Y-112006801I0J249999D01*
G01*
G37*
G36*
G01*
X146872400Y-112006801D02*
X146872400Y-111106799D01*
G75*
G02*
X147122399Y-110856800I249999J0D01*
G01*
X147822401Y-110856800D01*
G75*
G02*
X148072400Y-111106799I0J-249999D01*
G01*
X148072400Y-112006801D01*
G75*
G02*
X147822401Y-112256800I-249999J0D01*
G01*
X147122399Y-112256800D01*
G75*
G02*
X146872400Y-112006801I0J249999D01*
G01*
G37*
%TD*%
D12*
%TO.C,D1*%
X131809200Y-93268800D03*
X129709200Y-93268800D03*
%TD*%
D10*
%TO.C,D3*%
X137718800Y-93438000D03*
X137718800Y-95538000D03*
%TD*%
%TO.C,Rntc1*%
G36*
G01*
X118405200Y-113595999D02*
X118405200Y-114496001D01*
G75*
G02*
X118155201Y-114746000I-249999J0D01*
G01*
X117455199Y-114746000D01*
G75*
G02*
X117205200Y-114496001I0J249999D01*
G01*
X117205200Y-113595999D01*
G75*
G02*
X117455199Y-113346000I249999J0D01*
G01*
X118155201Y-113346000D01*
G75*
G02*
X118405200Y-113595999I0J-249999D01*
G01*
G37*
G36*
G01*
X116405200Y-113595999D02*
X116405200Y-114496001D01*
G75*
G02*
X116155201Y-114746000I-249999J0D01*
G01*
X115455199Y-114746000D01*
G75*
G02*
X115205200Y-114496001I0J249999D01*
G01*
X115205200Y-113595999D01*
G75*
G02*
X115455199Y-113346000I249999J0D01*
G01*
X116155201Y-113346000D01*
G75*
G02*
X116405200Y-113595999I0J-249999D01*
G01*
G37*
%TD*%
%TO.C,Led1*%
G36*
G01*
X158692001Y-109388600D02*
X157791999Y-109388600D01*
G75*
G02*
X157542000Y-109138601I0J249999D01*
G01*
X157542000Y-108488599D01*
G75*
G02*
X157791999Y-108238600I249999J0D01*
G01*
X158692001Y-108238600D01*
G75*
G02*
X158942000Y-108488599I0J-249999D01*
G01*
X158942000Y-109138601D01*
G75*
G02*
X158692001Y-109388600I-249999J0D01*
G01*
G37*
G36*
G01*
X158692001Y-107338600D02*
X157791999Y-107338600D01*
G75*
G02*
X157542000Y-107088601I0J249999D01*
G01*
X157542000Y-106438599D01*
G75*
G02*
X157791999Y-106188600I249999J0D01*
G01*
X158692001Y-106188600D01*
G75*
G02*
X158942000Y-106438599I0J-249999D01*
G01*
X158942000Y-107088601D01*
G75*
G02*
X158692001Y-107338600I-249999J0D01*
G01*
G37*
%TD*%
%TO.C,R24*%
G36*
G01*
X152254799Y-106366000D02*
X153154801Y-106366000D01*
G75*
G02*
X153404800Y-106615999I0J-249999D01*
G01*
X153404800Y-107316001D01*
G75*
G02*
X153154801Y-107566000I-249999J0D01*
G01*
X152254799Y-107566000D01*
G75*
G02*
X152004800Y-107316001I0J249999D01*
G01*
X152004800Y-106615999D01*
G75*
G02*
X152254799Y-106366000I249999J0D01*
G01*
G37*
G36*
G01*
X152254799Y-108366000D02*
X153154801Y-108366000D01*
G75*
G02*
X153404800Y-108615999I0J-249999D01*
G01*
X153404800Y-109316001D01*
G75*
G02*
X153154801Y-109566000I-249999J0D01*
G01*
X152254799Y-109566000D01*
G75*
G02*
X152004800Y-109316001I0J249999D01*
G01*
X152004800Y-108615999D01*
G75*
G02*
X152254799Y-108366000I249999J0D01*
G01*
G37*
%TD*%
M02*
