%TF.GenerationSoftware,KiCad,Pcbnew,(5.1.10)-1*%
%TF.CreationDate,2021-06-07T20:05:56+02:00*%
%TF.ProjectId,AirFlow,41697246-6c6f-4772-9e6b-696361645f70,rev?*%
%TF.SameCoordinates,Original*%
%TF.FileFunction,Legend,Top*%
%TF.FilePolarity,Positive*%
%FSLAX46Y46*%
G04 Gerber Fmt 4.6, Leading zero omitted, Abs format (unit mm)*
G04 Created by KiCad (PCBNEW (5.1.10)-1) date 2021-06-07 20:05:56*
%MOMM*%
%LPD*%
G01*
G04 APERTURE LIST*
%ADD10C,0.225000*%
%ADD11C,0.187500*%
%ADD12C,4.000000*%
%ADD13C,0.300000*%
%ADD14C,0.120000*%
%ADD15C,0.150000*%
G04 APERTURE END LIST*
D10*
X139615257Y-75652380D02*
X140186685Y-75652380D01*
X139900971Y-76652380D02*
X139900971Y-75652380D01*
X140520019Y-76652380D02*
X140520019Y-75652380D01*
X140948590Y-76652380D02*
X140948590Y-76128571D01*
X140900971Y-76033333D01*
X140805733Y-75985714D01*
X140662876Y-75985714D01*
X140567638Y-76033333D01*
X140520019Y-76080952D01*
X141805733Y-76604761D02*
X141710495Y-76652380D01*
X141520019Y-76652380D01*
X141424780Y-76604761D01*
X141377161Y-76509523D01*
X141377161Y-76128571D01*
X141424780Y-76033333D01*
X141520019Y-75985714D01*
X141710495Y-75985714D01*
X141805733Y-76033333D01*
X141853352Y-76128571D01*
X141853352Y-76223809D01*
X141377161Y-76319047D01*
X142281923Y-76652380D02*
X142281923Y-75985714D01*
X142281923Y-76176190D02*
X142329542Y-76080952D01*
X142377161Y-76033333D01*
X142472400Y-75985714D01*
X142567638Y-75985714D01*
X142900971Y-76652380D02*
X142900971Y-75985714D01*
X142900971Y-76080952D02*
X142948590Y-76033333D01*
X143043828Y-75985714D01*
X143186685Y-75985714D01*
X143281923Y-76033333D01*
X143329542Y-76128571D01*
X143329542Y-76652380D01*
X143329542Y-76128571D02*
X143377161Y-76033333D01*
X143472400Y-75985714D01*
X143615257Y-75985714D01*
X143710495Y-76033333D01*
X143758114Y-76128571D01*
X143758114Y-76652380D01*
X144377161Y-76652380D02*
X144281923Y-76604761D01*
X144234304Y-76557142D01*
X144186685Y-76461904D01*
X144186685Y-76176190D01*
X144234304Y-76080952D01*
X144281923Y-76033333D01*
X144377161Y-75985714D01*
X144520019Y-75985714D01*
X144615257Y-76033333D01*
X144662876Y-76080952D01*
X144710495Y-76176190D01*
X144710495Y-76461904D01*
X144662876Y-76557142D01*
X144615257Y-76604761D01*
X144520019Y-76652380D01*
X144377161Y-76652380D01*
X145710495Y-76557142D02*
X145662876Y-76604761D01*
X145520019Y-76652380D01*
X145424780Y-76652380D01*
X145281923Y-76604761D01*
X145186685Y-76509523D01*
X145139066Y-76414285D01*
X145091447Y-76223809D01*
X145091447Y-76080952D01*
X145139066Y-75890476D01*
X145186685Y-75795238D01*
X145281923Y-75700000D01*
X145424780Y-75652380D01*
X145520019Y-75652380D01*
X145662876Y-75700000D01*
X145710495Y-75747619D01*
X146281923Y-76652380D02*
X146186685Y-76604761D01*
X146139066Y-76557142D01*
X146091447Y-76461904D01*
X146091447Y-76176190D01*
X146139066Y-76080952D01*
X146186685Y-76033333D01*
X146281923Y-75985714D01*
X146424780Y-75985714D01*
X146520019Y-76033333D01*
X146567638Y-76080952D01*
X146615257Y-76176190D01*
X146615257Y-76461904D01*
X146567638Y-76557142D01*
X146520019Y-76604761D01*
X146424780Y-76652380D01*
X146281923Y-76652380D01*
X147472400Y-75985714D02*
X147472400Y-76652380D01*
X147043828Y-75985714D02*
X147043828Y-76509523D01*
X147091447Y-76604761D01*
X147186685Y-76652380D01*
X147329542Y-76652380D01*
X147424780Y-76604761D01*
X147472400Y-76557142D01*
X147948590Y-75985714D02*
X147948590Y-76985714D01*
X147948590Y-76033333D02*
X148043828Y-75985714D01*
X148234304Y-75985714D01*
X148329542Y-76033333D01*
X148377161Y-76080952D01*
X148424780Y-76176190D01*
X148424780Y-76461904D01*
X148377161Y-76557142D01*
X148329542Y-76604761D01*
X148234304Y-76652380D01*
X148043828Y-76652380D01*
X147948590Y-76604761D01*
X148996209Y-76652380D02*
X148900971Y-76604761D01*
X148853352Y-76509523D01*
X148853352Y-75652380D01*
X149758114Y-76604761D02*
X149662876Y-76652380D01*
X149472400Y-76652380D01*
X149377161Y-76604761D01*
X149329542Y-76509523D01*
X149329542Y-76128571D01*
X149377161Y-76033333D01*
X149472400Y-75985714D01*
X149662876Y-75985714D01*
X149758114Y-76033333D01*
X149805733Y-76128571D01*
X149805733Y-76223809D01*
X149329542Y-76319047D01*
X150996209Y-76652380D02*
X150996209Y-75652380D01*
X151329542Y-76366666D01*
X151662876Y-75652380D01*
X151662876Y-76652380D01*
X152281923Y-76652380D02*
X152186685Y-76604761D01*
X152139066Y-76557142D01*
X152091447Y-76461904D01*
X152091447Y-76176190D01*
X152139066Y-76080952D01*
X152186685Y-76033333D01*
X152281923Y-75985714D01*
X152424780Y-75985714D01*
X152520019Y-76033333D01*
X152567638Y-76080952D01*
X152615257Y-76176190D01*
X152615257Y-76461904D01*
X152567638Y-76557142D01*
X152520019Y-76604761D01*
X152424780Y-76652380D01*
X152281923Y-76652380D01*
X153472400Y-76652380D02*
X153472400Y-75652380D01*
X153472400Y-76604761D02*
X153377161Y-76652380D01*
X153186685Y-76652380D01*
X153091447Y-76604761D01*
X153043828Y-76557142D01*
X152996209Y-76461904D01*
X152996209Y-76176190D01*
X153043828Y-76080952D01*
X153091447Y-76033333D01*
X153186685Y-75985714D01*
X153377161Y-75985714D01*
X153472400Y-76033333D01*
X154662876Y-75747619D02*
X154710495Y-75700000D01*
X154805733Y-75652380D01*
X155043828Y-75652380D01*
X155139066Y-75700000D01*
X155186685Y-75747619D01*
X155234304Y-75842857D01*
X155234304Y-75938095D01*
X155186685Y-76080952D01*
X154615257Y-76652380D01*
X155234304Y-76652380D01*
X115536057Y-75449180D02*
X116107485Y-75449180D01*
X115821771Y-76449180D02*
X115821771Y-75449180D01*
X116440819Y-76449180D02*
X116440819Y-75449180D01*
X116869390Y-76449180D02*
X116869390Y-75925371D01*
X116821771Y-75830133D01*
X116726533Y-75782514D01*
X116583676Y-75782514D01*
X116488438Y-75830133D01*
X116440819Y-75877752D01*
X117726533Y-76401561D02*
X117631295Y-76449180D01*
X117440819Y-76449180D01*
X117345580Y-76401561D01*
X117297961Y-76306323D01*
X117297961Y-75925371D01*
X117345580Y-75830133D01*
X117440819Y-75782514D01*
X117631295Y-75782514D01*
X117726533Y-75830133D01*
X117774152Y-75925371D01*
X117774152Y-76020609D01*
X117297961Y-76115847D01*
X118202723Y-76449180D02*
X118202723Y-75782514D01*
X118202723Y-75972990D02*
X118250342Y-75877752D01*
X118297961Y-75830133D01*
X118393200Y-75782514D01*
X118488438Y-75782514D01*
X118821771Y-76449180D02*
X118821771Y-75782514D01*
X118821771Y-75877752D02*
X118869390Y-75830133D01*
X118964628Y-75782514D01*
X119107485Y-75782514D01*
X119202723Y-75830133D01*
X119250342Y-75925371D01*
X119250342Y-76449180D01*
X119250342Y-75925371D02*
X119297961Y-75830133D01*
X119393200Y-75782514D01*
X119536057Y-75782514D01*
X119631295Y-75830133D01*
X119678914Y-75925371D01*
X119678914Y-76449180D01*
X120297961Y-76449180D02*
X120202723Y-76401561D01*
X120155104Y-76353942D01*
X120107485Y-76258704D01*
X120107485Y-75972990D01*
X120155104Y-75877752D01*
X120202723Y-75830133D01*
X120297961Y-75782514D01*
X120440819Y-75782514D01*
X120536057Y-75830133D01*
X120583676Y-75877752D01*
X120631295Y-75972990D01*
X120631295Y-76258704D01*
X120583676Y-76353942D01*
X120536057Y-76401561D01*
X120440819Y-76449180D01*
X120297961Y-76449180D01*
X121631295Y-76353942D02*
X121583676Y-76401561D01*
X121440819Y-76449180D01*
X121345580Y-76449180D01*
X121202723Y-76401561D01*
X121107485Y-76306323D01*
X121059866Y-76211085D01*
X121012247Y-76020609D01*
X121012247Y-75877752D01*
X121059866Y-75687276D01*
X121107485Y-75592038D01*
X121202723Y-75496800D01*
X121345580Y-75449180D01*
X121440819Y-75449180D01*
X121583676Y-75496800D01*
X121631295Y-75544419D01*
X122202723Y-76449180D02*
X122107485Y-76401561D01*
X122059866Y-76353942D01*
X122012247Y-76258704D01*
X122012247Y-75972990D01*
X122059866Y-75877752D01*
X122107485Y-75830133D01*
X122202723Y-75782514D01*
X122345580Y-75782514D01*
X122440819Y-75830133D01*
X122488438Y-75877752D01*
X122536057Y-75972990D01*
X122536057Y-76258704D01*
X122488438Y-76353942D01*
X122440819Y-76401561D01*
X122345580Y-76449180D01*
X122202723Y-76449180D01*
X123393200Y-75782514D02*
X123393200Y-76449180D01*
X122964628Y-75782514D02*
X122964628Y-76306323D01*
X123012247Y-76401561D01*
X123107485Y-76449180D01*
X123250342Y-76449180D01*
X123345580Y-76401561D01*
X123393200Y-76353942D01*
X123869390Y-75782514D02*
X123869390Y-76782514D01*
X123869390Y-75830133D02*
X123964628Y-75782514D01*
X124155104Y-75782514D01*
X124250342Y-75830133D01*
X124297961Y-75877752D01*
X124345580Y-75972990D01*
X124345580Y-76258704D01*
X124297961Y-76353942D01*
X124250342Y-76401561D01*
X124155104Y-76449180D01*
X123964628Y-76449180D01*
X123869390Y-76401561D01*
X124917009Y-76449180D02*
X124821771Y-76401561D01*
X124774152Y-76306323D01*
X124774152Y-75449180D01*
X125678914Y-76401561D02*
X125583676Y-76449180D01*
X125393200Y-76449180D01*
X125297961Y-76401561D01*
X125250342Y-76306323D01*
X125250342Y-75925371D01*
X125297961Y-75830133D01*
X125393200Y-75782514D01*
X125583676Y-75782514D01*
X125678914Y-75830133D01*
X125726533Y-75925371D01*
X125726533Y-76020609D01*
X125250342Y-76115847D01*
X126917009Y-76449180D02*
X126917009Y-75449180D01*
X127250342Y-76163466D01*
X127583676Y-75449180D01*
X127583676Y-76449180D01*
X128202723Y-76449180D02*
X128107485Y-76401561D01*
X128059866Y-76353942D01*
X128012247Y-76258704D01*
X128012247Y-75972990D01*
X128059866Y-75877752D01*
X128107485Y-75830133D01*
X128202723Y-75782514D01*
X128345580Y-75782514D01*
X128440819Y-75830133D01*
X128488438Y-75877752D01*
X128536057Y-75972990D01*
X128536057Y-76258704D01*
X128488438Y-76353942D01*
X128440819Y-76401561D01*
X128345580Y-76449180D01*
X128202723Y-76449180D01*
X129393200Y-76449180D02*
X129393200Y-75449180D01*
X129393200Y-76401561D02*
X129297961Y-76449180D01*
X129107485Y-76449180D01*
X129012247Y-76401561D01*
X128964628Y-76353942D01*
X128917009Y-76258704D01*
X128917009Y-75972990D01*
X128964628Y-75877752D01*
X129012247Y-75830133D01*
X129107485Y-75782514D01*
X129297961Y-75782514D01*
X129393200Y-75830133D01*
X131155104Y-76449180D02*
X130583676Y-76449180D01*
X130869390Y-76449180D02*
X130869390Y-75449180D01*
X130774152Y-75592038D01*
X130678914Y-75687276D01*
X130583676Y-75734895D01*
D11*
X160562485Y-108515885D02*
X160562485Y-108944457D01*
X160562485Y-108730171D02*
X159812485Y-108730171D01*
X159919628Y-108801600D01*
X159991057Y-108873028D01*
X160026771Y-108944457D01*
X159883914Y-108230171D02*
X159848200Y-108194457D01*
X159812485Y-108123028D01*
X159812485Y-107944457D01*
X159848200Y-107873028D01*
X159883914Y-107837314D01*
X159955342Y-107801600D01*
X160026771Y-107801600D01*
X160133914Y-107837314D01*
X160562485Y-108265885D01*
X160562485Y-107801600D01*
X159812485Y-107587314D02*
X160562485Y-107337314D01*
X159812485Y-107087314D01*
D12*
X104444800Y-108712000D02*
X104444800Y-90271600D01*
D13*
X100173600Y-110329085D02*
X100173600Y-109614800D01*
X100602171Y-110471942D02*
X99102171Y-109971942D01*
X100602171Y-109471942D01*
X100602171Y-108971942D02*
X99602171Y-108971942D01*
X99102171Y-108971942D02*
X99173600Y-109043371D01*
X99245028Y-108971942D01*
X99173600Y-108900514D01*
X99102171Y-108971942D01*
X99245028Y-108971942D01*
X100602171Y-108257657D02*
X99602171Y-108257657D01*
X99887885Y-108257657D02*
X99745028Y-108186228D01*
X99673600Y-108114800D01*
X99602171Y-107971942D01*
X99602171Y-107829085D01*
X99816457Y-106829085D02*
X99816457Y-107329085D01*
X100602171Y-107329085D02*
X99102171Y-107329085D01*
X99102171Y-106614800D01*
X100602171Y-105829085D02*
X100530742Y-105971942D01*
X100387885Y-106043371D01*
X99102171Y-106043371D01*
X100602171Y-105043371D02*
X100530742Y-105186228D01*
X100459314Y-105257657D01*
X100316457Y-105329085D01*
X99887885Y-105329085D01*
X99745028Y-105257657D01*
X99673600Y-105186228D01*
X99602171Y-105043371D01*
X99602171Y-104829085D01*
X99673600Y-104686228D01*
X99745028Y-104614800D01*
X99887885Y-104543371D01*
X100316457Y-104543371D01*
X100459314Y-104614800D01*
X100530742Y-104686228D01*
X100602171Y-104829085D01*
X100602171Y-105043371D01*
X99602171Y-104043371D02*
X100602171Y-103757657D01*
X99887885Y-103471942D01*
X100602171Y-103186228D01*
X99602171Y-102900514D01*
X100530742Y-101257657D02*
X100602171Y-101043371D01*
X100602171Y-100686228D01*
X100530742Y-100543371D01*
X100459314Y-100471942D01*
X100316457Y-100400514D01*
X100173600Y-100400514D01*
X100030742Y-100471942D01*
X99959314Y-100543371D01*
X99887885Y-100686228D01*
X99816457Y-100971942D01*
X99745028Y-101114800D01*
X99673600Y-101186228D01*
X99530742Y-101257657D01*
X99387885Y-101257657D01*
X99245028Y-101186228D01*
X99173600Y-101114800D01*
X99102171Y-100971942D01*
X99102171Y-100614800D01*
X99173600Y-100400514D01*
X100530742Y-99186228D02*
X100602171Y-99329085D01*
X100602171Y-99614800D01*
X100530742Y-99757657D01*
X100387885Y-99829085D01*
X99816457Y-99829085D01*
X99673600Y-99757657D01*
X99602171Y-99614800D01*
X99602171Y-99329085D01*
X99673600Y-99186228D01*
X99816457Y-99114800D01*
X99959314Y-99114800D01*
X100102171Y-99829085D01*
X99602171Y-98471942D02*
X100602171Y-98471942D01*
X99745028Y-98471942D02*
X99673600Y-98400514D01*
X99602171Y-98257657D01*
X99602171Y-98043371D01*
X99673600Y-97900514D01*
X99816457Y-97829085D01*
X100602171Y-97829085D01*
X100530742Y-97186228D02*
X100602171Y-97043371D01*
X100602171Y-96757657D01*
X100530742Y-96614800D01*
X100387885Y-96543371D01*
X100316457Y-96543371D01*
X100173600Y-96614800D01*
X100102171Y-96757657D01*
X100102171Y-96971942D01*
X100030742Y-97114800D01*
X99887885Y-97186228D01*
X99816457Y-97186228D01*
X99673600Y-97114800D01*
X99602171Y-96971942D01*
X99602171Y-96757657D01*
X99673600Y-96614800D01*
X100602171Y-95686228D02*
X100530742Y-95829085D01*
X100459314Y-95900514D01*
X100316457Y-95971942D01*
X99887885Y-95971942D01*
X99745028Y-95900514D01*
X99673600Y-95829085D01*
X99602171Y-95686228D01*
X99602171Y-95471942D01*
X99673600Y-95329085D01*
X99745028Y-95257657D01*
X99887885Y-95186228D01*
X100316457Y-95186228D01*
X100459314Y-95257657D01*
X100530742Y-95329085D01*
X100602171Y-95471942D01*
X100602171Y-95686228D01*
X100602171Y-94543371D02*
X99602171Y-94543371D01*
X99887885Y-94543371D02*
X99745028Y-94471942D01*
X99673600Y-94400514D01*
X99602171Y-94257657D01*
X99602171Y-94114800D01*
X99602171Y-92614800D02*
X100602171Y-92257657D01*
X99602171Y-91900514D01*
X100602171Y-90543371D02*
X100602171Y-91400514D01*
X100602171Y-90971942D02*
X99102171Y-90971942D01*
X99316457Y-91114800D01*
X99459314Y-91257657D01*
X99530742Y-91400514D01*
X100459314Y-89900514D02*
X100530742Y-89829085D01*
X100602171Y-89900514D01*
X100530742Y-89971942D01*
X100459314Y-89900514D01*
X100602171Y-89900514D01*
X99102171Y-88900514D02*
X99102171Y-88757657D01*
X99173600Y-88614800D01*
X99245028Y-88543371D01*
X99387885Y-88471942D01*
X99673600Y-88400514D01*
X100030742Y-88400514D01*
X100316457Y-88471942D01*
X100459314Y-88543371D01*
X100530742Y-88614800D01*
X100602171Y-88757657D01*
X100602171Y-88900514D01*
X100530742Y-89043371D01*
X100459314Y-89114800D01*
X100316457Y-89186228D01*
X100030742Y-89257657D01*
X99673600Y-89257657D01*
X99387885Y-89186228D01*
X99245028Y-89114800D01*
X99173600Y-89043371D01*
X99102171Y-88900514D01*
D14*
%TO.C,J1*%
X162966400Y-124663200D02*
X162966400Y-114503200D01*
X155346400Y-124663200D02*
X162966400Y-124663200D01*
X155346400Y-114503200D02*
X155346400Y-124663200D01*
X162966400Y-114503200D02*
X155346400Y-114503200D01*
X161696400Y-114503200D02*
X161696400Y-124663200D01*
%TO.C,U1*%
X133858000Y-98943000D02*
X130408000Y-98943000D01*
X133858000Y-98943000D02*
X135808000Y-98943000D01*
X133858000Y-107813000D02*
X131908000Y-107813000D01*
X133858000Y-107813000D02*
X135808000Y-107813000D01*
%TO.C,C3*%
X130291500Y-109381500D02*
X130291500Y-110006500D01*
X129979000Y-109694000D02*
X130604000Y-109694000D01*
X130844000Y-113074563D02*
X131908437Y-114139000D01*
X130844000Y-109683437D02*
X131908437Y-108619000D01*
X130844000Y-109683437D02*
X130844000Y-110319000D01*
X130844000Y-113074563D02*
X130844000Y-112439000D01*
X131908437Y-114139000D02*
X136364000Y-114139000D01*
X131908437Y-108619000D02*
X136364000Y-108619000D01*
X136364000Y-108619000D02*
X136364000Y-110319000D01*
X136364000Y-114139000D02*
X136364000Y-112439000D01*
%TO.C,C1*%
X124283800Y-106215548D02*
X124283800Y-106738052D01*
X125753800Y-106215548D02*
X125753800Y-106738052D01*
%TO.C,C2*%
X140099148Y-99595000D02*
X140621652Y-99595000D01*
X140099148Y-101065000D02*
X140621652Y-101065000D01*
%TO.C,C4*%
X126773000Y-103116748D02*
X126773000Y-103639252D01*
X128243000Y-103116748D02*
X128243000Y-103639252D01*
%TO.C,D2*%
X151014800Y-116762400D02*
X149314800Y-116762400D01*
X149314800Y-116762400D02*
X149314800Y-119312400D01*
X151014800Y-116762400D02*
X151014800Y-119312400D01*
%TO.C,D4*%
X149162400Y-115901600D02*
X149162400Y-113351600D01*
X150862400Y-115901600D02*
X150862400Y-113351600D01*
X149162400Y-115901600D02*
X150862400Y-115901600D01*
%TO.C,Jntc1*%
X117983200Y-120110400D02*
X120483200Y-120110400D01*
X117983200Y-117610400D02*
X117983200Y-120110400D01*
X125003200Y-118310400D02*
X125003200Y-119810400D01*
X126003200Y-118310400D02*
X125003200Y-118310400D01*
X119283200Y-118310400D02*
X119283200Y-119810400D01*
X118283200Y-118310400D02*
X119283200Y-118310400D01*
X125503200Y-117500400D02*
X126003200Y-117500400D01*
X125503200Y-116290400D02*
X125503200Y-117500400D01*
X118783200Y-116290400D02*
X125503200Y-116290400D01*
X118783200Y-117500400D02*
X118783200Y-116290400D01*
X118283200Y-117500400D02*
X118783200Y-117500400D01*
X126003200Y-115790400D02*
X118283200Y-115790400D01*
X126003200Y-119810400D02*
X126003200Y-115790400D01*
X118283200Y-119810400D02*
X126003200Y-119810400D01*
X118283200Y-115790400D02*
X118283200Y-119810400D01*
%TO.C,Jntc2*%
X140188800Y-116501600D02*
X140188800Y-120521600D01*
X140188800Y-120521600D02*
X147908800Y-120521600D01*
X147908800Y-120521600D02*
X147908800Y-116501600D01*
X147908800Y-116501600D02*
X140188800Y-116501600D01*
X140188800Y-118211600D02*
X140688800Y-118211600D01*
X140688800Y-118211600D02*
X140688800Y-117001600D01*
X140688800Y-117001600D02*
X147408800Y-117001600D01*
X147408800Y-117001600D02*
X147408800Y-118211600D01*
X147408800Y-118211600D02*
X147908800Y-118211600D01*
X140188800Y-119021600D02*
X141188800Y-119021600D01*
X141188800Y-119021600D02*
X141188800Y-120521600D01*
X147908800Y-119021600D02*
X146908800Y-119021600D01*
X146908800Y-119021600D02*
X146908800Y-120521600D01*
X139888800Y-118321600D02*
X139888800Y-120821600D01*
X139888800Y-120821600D02*
X142388800Y-120821600D01*
%TO.C,Q1*%
X127500500Y-93537500D02*
X126570500Y-93537500D01*
X124340500Y-93537500D02*
X125270500Y-93537500D01*
X124340500Y-93537500D02*
X124340500Y-95697500D01*
X127500500Y-93537500D02*
X127500500Y-94997500D01*
%TO.C,Q2*%
X139453500Y-112710500D02*
X139453500Y-111250500D01*
X142613500Y-112710500D02*
X142613500Y-110550500D01*
X142613500Y-112710500D02*
X141683500Y-112710500D01*
X139453500Y-112710500D02*
X140383500Y-112710500D01*
%TO.C,R1*%
X125248936Y-99388600D02*
X125703064Y-99388600D01*
X125248936Y-97918600D02*
X125703064Y-97918600D01*
%TO.C,R2*%
X131037000Y-96747064D02*
X131037000Y-96292936D01*
X129567000Y-96747064D02*
X129567000Y-96292936D01*
%TO.C,R3*%
X119226000Y-103105200D02*
X116486000Y-103105200D01*
X116486000Y-103105200D02*
X116486000Y-109645200D01*
X116486000Y-109645200D02*
X119226000Y-109645200D01*
X119226000Y-109645200D02*
X119226000Y-103105200D01*
X117856000Y-102335200D02*
X117856000Y-103105200D01*
X117856000Y-110415200D02*
X117856000Y-109645200D01*
%TO.C,R4*%
X124029800Y-101827064D02*
X124029800Y-101372936D01*
X125499800Y-101827064D02*
X125499800Y-101372936D01*
%TO.C,R5*%
X129132000Y-107659436D02*
X129132000Y-108113564D01*
X127662000Y-107659436D02*
X127662000Y-108113564D01*
%TO.C,R6*%
X127281000Y-112650536D02*
X127281000Y-113104664D01*
X128751000Y-112650536D02*
X128751000Y-113104664D01*
%TO.C,R7*%
X133189736Y-96747000D02*
X133643864Y-96747000D01*
X133189736Y-95277000D02*
X133643864Y-95277000D01*
%TO.C,R8*%
X126084000Y-110844064D02*
X126084000Y-110389936D01*
X124614000Y-110844064D02*
X124614000Y-110389936D01*
%TO.C,R9*%
X121591400Y-106907064D02*
X121591400Y-106452936D01*
X123061400Y-106907064D02*
X123061400Y-106452936D01*
%TO.C,R15*%
X139676136Y-105081400D02*
X140130264Y-105081400D01*
X139676136Y-106551400D02*
X140130264Y-106551400D01*
%TO.C,R16*%
X140742936Y-107875400D02*
X141197064Y-107875400D01*
X140742936Y-109345400D02*
X141197064Y-109345400D01*
%TO.C,R17*%
X128954400Y-117094000D02*
X129724400Y-117094000D01*
X137034400Y-117094000D02*
X136264400Y-117094000D01*
X129724400Y-118464000D02*
X136264400Y-118464000D01*
X129724400Y-115724000D02*
X129724400Y-118464000D01*
X136264400Y-115724000D02*
X129724400Y-115724000D01*
X136264400Y-118464000D02*
X136264400Y-115724000D01*
%TO.C,R18*%
X143943400Y-103573336D02*
X143943400Y-104027464D01*
X145413400Y-103573336D02*
X145413400Y-104027464D01*
%TO.C,R19*%
X137742664Y-97004200D02*
X137288536Y-97004200D01*
X137742664Y-98474200D02*
X137288536Y-98474200D01*
%TO.C,R20*%
X142403336Y-96750200D02*
X142857464Y-96750200D01*
X142403336Y-98220200D02*
X142857464Y-98220200D01*
%TO.C,R21*%
X141403336Y-102084200D02*
X141857464Y-102084200D01*
X141403336Y-103554200D02*
X141857464Y-103554200D01*
%TO.C,R22*%
X145737336Y-107570600D02*
X146191464Y-107570600D01*
X145737336Y-109040600D02*
X146191464Y-109040600D01*
%TO.C,R23*%
X141654264Y-93499000D02*
X141200136Y-93499000D01*
X141654264Y-94969000D02*
X141200136Y-94969000D01*
%TO.C,Rntc2*%
X146245336Y-112291800D02*
X146699464Y-112291800D01*
X146245336Y-110821800D02*
X146699464Y-110821800D01*
%TO.C,D1*%
X129259200Y-92418800D02*
X131809200Y-92418800D01*
X129259200Y-94118800D02*
X131809200Y-94118800D01*
X129259200Y-92418800D02*
X129259200Y-94118800D01*
%TO.C,D3*%
X138568800Y-92988000D02*
X136868800Y-92988000D01*
X136868800Y-92988000D02*
X136868800Y-95538000D01*
X138568800Y-92988000D02*
X138568800Y-95538000D01*
%TO.C,Rntc1*%
X117032264Y-113311000D02*
X116578136Y-113311000D01*
X117032264Y-114781000D02*
X116578136Y-114781000D01*
%TO.C,Led1*%
X159202000Y-109648600D02*
X159202000Y-106788600D01*
X157282000Y-109648600D02*
X159202000Y-109648600D01*
X157282000Y-106788600D02*
X157282000Y-109648600D01*
%TO.C,R24*%
X151969800Y-107738936D02*
X151969800Y-108193064D01*
X153439800Y-107738936D02*
X153439800Y-108193064D01*
%TO.C,TP1*%
X123174800Y-94843600D02*
G75*
G03*
X123174800Y-94843600I-950000J0D01*
G01*
%TO.C,TP2*%
X144714000Y-113030000D02*
G75*
G03*
X144714000Y-113030000I-950000J0D01*
G01*
%TO.C,U2*%
X134988300Y-92290900D02*
X111059300Y-92290900D01*
X110985300Y-70827900D02*
X110985300Y-92290900D01*
X110985300Y-70827900D02*
X134988300Y-70827900D01*
X134988300Y-92290900D02*
X134988300Y-70827900D01*
%TO.C,U3*%
X161353500Y-92341700D02*
X137424500Y-92341700D01*
X137350500Y-70878700D02*
X137350500Y-92341700D01*
X137350500Y-70878700D02*
X161353500Y-70878700D01*
X161353500Y-92341700D02*
X161353500Y-70878700D01*
%TO.C,JPA5*%
X159050000Y-128410400D02*
X158450000Y-128410400D01*
X159750000Y-126310400D02*
X159750000Y-127710400D01*
X158450000Y-125610400D02*
X159050000Y-125610400D01*
X157750000Y-127710400D02*
X157750000Y-126310400D01*
X157750000Y-126310400D02*
G75*
G02*
X158450000Y-125610400I700000J0D01*
G01*
X159050000Y-125610400D02*
G75*
G02*
X159750000Y-126310400I0J-700000D01*
G01*
X159750000Y-127710400D02*
G75*
G02*
X159050000Y-128410400I-700000J0D01*
G01*
X158450000Y-128410400D02*
G75*
G02*
X157750000Y-127710400I0J700000D01*
G01*
%TO.C,JPA2*%
X149601200Y-128450800D02*
X149001200Y-128450800D01*
X150301200Y-126350800D02*
X150301200Y-127750800D01*
X149001200Y-125650800D02*
X149601200Y-125650800D01*
X148301200Y-127750800D02*
X148301200Y-126350800D01*
X148301200Y-126350800D02*
G75*
G02*
X149001200Y-125650800I700000J0D01*
G01*
X149601200Y-125650800D02*
G75*
G02*
X150301200Y-126350800I0J-700000D01*
G01*
X150301200Y-127750800D02*
G75*
G02*
X149601200Y-128450800I-700000J0D01*
G01*
X149001200Y-128450800D02*
G75*
G02*
X148301200Y-127750800I0J700000D01*
G01*
%TO.C,JPA3*%
X151450800Y-127710400D02*
X151450800Y-126310400D01*
X152150800Y-125610400D02*
X152750800Y-125610400D01*
X153450800Y-126310400D02*
X153450800Y-127710400D01*
X152750800Y-128410400D02*
X152150800Y-128410400D01*
X152150800Y-128410400D02*
G75*
G02*
X151450800Y-127710400I0J700000D01*
G01*
X153450800Y-127710400D02*
G75*
G02*
X152750800Y-128410400I-700000J0D01*
G01*
X152750800Y-125610400D02*
G75*
G02*
X153450800Y-126310400I0J-700000D01*
G01*
X151450800Y-126310400D02*
G75*
G02*
X152150800Y-125610400I700000J0D01*
G01*
%TO.C,JPA4*%
X155900400Y-128410400D02*
X155300400Y-128410400D01*
X156600400Y-126310400D02*
X156600400Y-127710400D01*
X155300400Y-125610400D02*
X155900400Y-125610400D01*
X154600400Y-127710400D02*
X154600400Y-126310400D01*
X154600400Y-126310400D02*
G75*
G02*
X155300400Y-125610400I700000J0D01*
G01*
X155900400Y-125610400D02*
G75*
G02*
X156600400Y-126310400I0J-700000D01*
G01*
X156600400Y-127710400D02*
G75*
G02*
X155900400Y-128410400I-700000J0D01*
G01*
X155300400Y-128410400D02*
G75*
G02*
X154600400Y-127710400I0J700000D01*
G01*
%TO.C,JPA0*%
X141900400Y-127710400D02*
X141900400Y-126310400D01*
X142600400Y-125610400D02*
X143200400Y-125610400D01*
X143900400Y-126310400D02*
X143900400Y-127710400D01*
X143200400Y-128410400D02*
X142600400Y-128410400D01*
X142600400Y-128410400D02*
G75*
G02*
X141900400Y-127710400I0J700000D01*
G01*
X143900400Y-127710400D02*
G75*
G02*
X143200400Y-128410400I-700000J0D01*
G01*
X143200400Y-125610400D02*
G75*
G02*
X143900400Y-126310400I0J-700000D01*
G01*
X141900400Y-126310400D02*
G75*
G02*
X142600400Y-125610400I700000J0D01*
G01*
%TO.C,JPA1*%
X146400800Y-128400000D02*
X145800800Y-128400000D01*
X147100800Y-126300000D02*
X147100800Y-127700000D01*
X145800800Y-125600000D02*
X146400800Y-125600000D01*
X145100800Y-127700000D02*
X145100800Y-126300000D01*
X145100800Y-126300000D02*
G75*
G02*
X145800800Y-125600000I700000J0D01*
G01*
X146400800Y-125600000D02*
G75*
G02*
X147100800Y-126300000I0J-700000D01*
G01*
X147100800Y-127700000D02*
G75*
G02*
X146400800Y-128400000I-700000J0D01*
G01*
X145800800Y-128400000D02*
G75*
G02*
X145100800Y-127700000I0J700000D01*
G01*
%TO.C,J1*%
D15*
X160742380Y-126063333D02*
X161456666Y-126063333D01*
X161599523Y-126110952D01*
X161694761Y-126206190D01*
X161742380Y-126349047D01*
X161742380Y-126444285D01*
X161742380Y-125063333D02*
X161742380Y-125634761D01*
X161742380Y-125349047D02*
X160742380Y-125349047D01*
X160885238Y-125444285D01*
X160980476Y-125539523D01*
X161028095Y-125634761D01*
%TO.C,U1*%
X132689695Y-97445580D02*
X132689695Y-98255104D01*
X132737314Y-98350342D01*
X132784933Y-98397961D01*
X132880171Y-98445580D01*
X133070647Y-98445580D01*
X133165885Y-98397961D01*
X133213504Y-98350342D01*
X133261123Y-98255104D01*
X133261123Y-97445580D01*
X134261123Y-98445580D02*
X133689695Y-98445580D01*
X133975409Y-98445580D02*
X133975409Y-97445580D01*
X133880171Y-97588438D01*
X133784933Y-97683676D01*
X133689695Y-97731295D01*
%TO.C,C3*%
X133373833Y-113704642D02*
X133326214Y-113752261D01*
X133183357Y-113799880D01*
X133088119Y-113799880D01*
X132945261Y-113752261D01*
X132850023Y-113657023D01*
X132802404Y-113561785D01*
X132754785Y-113371309D01*
X132754785Y-113228452D01*
X132802404Y-113037976D01*
X132850023Y-112942738D01*
X132945261Y-112847500D01*
X133088119Y-112799880D01*
X133183357Y-112799880D01*
X133326214Y-112847500D01*
X133373833Y-112895119D01*
X133707166Y-112799880D02*
X134326214Y-112799880D01*
X133992880Y-113180833D01*
X134135738Y-113180833D01*
X134230976Y-113228452D01*
X134278595Y-113276071D01*
X134326214Y-113371309D01*
X134326214Y-113609404D01*
X134278595Y-113704642D01*
X134230976Y-113752261D01*
X134135738Y-113799880D01*
X133850023Y-113799880D01*
X133754785Y-113752261D01*
X133707166Y-113704642D01*
%TO.C,C1*%
X127052342Y-106592666D02*
X127099961Y-106640285D01*
X127147580Y-106783142D01*
X127147580Y-106878380D01*
X127099961Y-107021238D01*
X127004723Y-107116476D01*
X126909485Y-107164095D01*
X126719009Y-107211714D01*
X126576152Y-107211714D01*
X126385676Y-107164095D01*
X126290438Y-107116476D01*
X126195200Y-107021238D01*
X126147580Y-106878380D01*
X126147580Y-106783142D01*
X126195200Y-106640285D01*
X126242819Y-106592666D01*
X127147580Y-105640285D02*
X127147580Y-106211714D01*
X127147580Y-105926000D02*
X126147580Y-105926000D01*
X126290438Y-106021238D01*
X126385676Y-106116476D01*
X126433295Y-106211714D01*
%TO.C,C2*%
X143190933Y-100585542D02*
X143143314Y-100633161D01*
X143000457Y-100680780D01*
X142905219Y-100680780D01*
X142762361Y-100633161D01*
X142667123Y-100537923D01*
X142619504Y-100442685D01*
X142571885Y-100252209D01*
X142571885Y-100109352D01*
X142619504Y-99918876D01*
X142667123Y-99823638D01*
X142762361Y-99728400D01*
X142905219Y-99680780D01*
X143000457Y-99680780D01*
X143143314Y-99728400D01*
X143190933Y-99776019D01*
X143571885Y-99776019D02*
X143619504Y-99728400D01*
X143714742Y-99680780D01*
X143952838Y-99680780D01*
X144048076Y-99728400D01*
X144095695Y-99776019D01*
X144143314Y-99871257D01*
X144143314Y-99966495D01*
X144095695Y-100109352D01*
X143524266Y-100680780D01*
X144143314Y-100680780D01*
%TO.C,C4*%
X127763542Y-100687166D02*
X127811161Y-100734785D01*
X127858780Y-100877642D01*
X127858780Y-100972880D01*
X127811161Y-101115738D01*
X127715923Y-101210976D01*
X127620685Y-101258595D01*
X127430209Y-101306214D01*
X127287352Y-101306214D01*
X127096876Y-101258595D01*
X127001638Y-101210976D01*
X126906400Y-101115738D01*
X126858780Y-100972880D01*
X126858780Y-100877642D01*
X126906400Y-100734785D01*
X126954019Y-100687166D01*
X127192114Y-99830023D02*
X127858780Y-99830023D01*
X126811161Y-100068119D02*
X127525447Y-100306214D01*
X127525447Y-99687166D01*
%TO.C,D2*%
X152467180Y-119000495D02*
X151467180Y-119000495D01*
X151467180Y-118762400D01*
X151514800Y-118619542D01*
X151610038Y-118524304D01*
X151705276Y-118476685D01*
X151895752Y-118429066D01*
X152038609Y-118429066D01*
X152229085Y-118476685D01*
X152324323Y-118524304D01*
X152419561Y-118619542D01*
X152467180Y-118762400D01*
X152467180Y-119000495D01*
X151562419Y-118048114D02*
X151514800Y-118000495D01*
X151467180Y-117905257D01*
X151467180Y-117667161D01*
X151514800Y-117571923D01*
X151562419Y-117524304D01*
X151657657Y-117476685D01*
X151752895Y-117476685D01*
X151895752Y-117524304D01*
X152467180Y-118095733D01*
X152467180Y-117476685D01*
%TO.C,D4*%
X152344380Y-115190495D02*
X151344380Y-115190495D01*
X151344380Y-114952400D01*
X151392000Y-114809542D01*
X151487238Y-114714304D01*
X151582476Y-114666685D01*
X151772952Y-114619066D01*
X151915809Y-114619066D01*
X152106285Y-114666685D01*
X152201523Y-114714304D01*
X152296761Y-114809542D01*
X152344380Y-114952400D01*
X152344380Y-115190495D01*
X151677714Y-113761923D02*
X152344380Y-113761923D01*
X151296761Y-114000019D02*
X152011047Y-114238114D01*
X152011047Y-113619066D01*
%TO.C,Jntc1*%
X120358400Y-120965980D02*
X120358400Y-121680266D01*
X120310780Y-121823123D01*
X120215542Y-121918361D01*
X120072685Y-121965980D01*
X119977447Y-121965980D01*
X120834590Y-121299314D02*
X120834590Y-121965980D01*
X120834590Y-121394552D02*
X120882209Y-121346933D01*
X120977447Y-121299314D01*
X121120304Y-121299314D01*
X121215542Y-121346933D01*
X121263161Y-121442171D01*
X121263161Y-121965980D01*
X121596495Y-121299314D02*
X121977447Y-121299314D01*
X121739352Y-120965980D02*
X121739352Y-121823123D01*
X121786971Y-121918361D01*
X121882209Y-121965980D01*
X121977447Y-121965980D01*
X122739352Y-121918361D02*
X122644114Y-121965980D01*
X122453638Y-121965980D01*
X122358400Y-121918361D01*
X122310780Y-121870742D01*
X122263161Y-121775504D01*
X122263161Y-121489790D01*
X122310780Y-121394552D01*
X122358400Y-121346933D01*
X122453638Y-121299314D01*
X122644114Y-121299314D01*
X122739352Y-121346933D01*
X123691733Y-121965980D02*
X123120304Y-121965980D01*
X123406019Y-121965980D02*
X123406019Y-120965980D01*
X123310780Y-121108838D01*
X123215542Y-121204076D01*
X123120304Y-121251695D01*
%TO.C,Jntc2*%
X142162400Y-121727980D02*
X142162400Y-122442266D01*
X142114780Y-122585123D01*
X142019542Y-122680361D01*
X141876685Y-122727980D01*
X141781447Y-122727980D01*
X142638590Y-122061314D02*
X142638590Y-122727980D01*
X142638590Y-122156552D02*
X142686209Y-122108933D01*
X142781447Y-122061314D01*
X142924304Y-122061314D01*
X143019542Y-122108933D01*
X143067161Y-122204171D01*
X143067161Y-122727980D01*
X143400495Y-122061314D02*
X143781447Y-122061314D01*
X143543352Y-121727980D02*
X143543352Y-122585123D01*
X143590971Y-122680361D01*
X143686209Y-122727980D01*
X143781447Y-122727980D01*
X144543352Y-122680361D02*
X144448114Y-122727980D01*
X144257638Y-122727980D01*
X144162400Y-122680361D01*
X144114780Y-122632742D01*
X144067161Y-122537504D01*
X144067161Y-122251790D01*
X144114780Y-122156552D01*
X144162400Y-122108933D01*
X144257638Y-122061314D01*
X144448114Y-122061314D01*
X144543352Y-122108933D01*
X144924304Y-121823219D02*
X144971923Y-121775600D01*
X145067161Y-121727980D01*
X145305257Y-121727980D01*
X145400495Y-121775600D01*
X145448114Y-121823219D01*
X145495733Y-121918457D01*
X145495733Y-122013695D01*
X145448114Y-122156552D01*
X144876685Y-122727980D01*
X145495733Y-122727980D01*
%TO.C,Q1*%
X125837961Y-97321619D02*
X125742723Y-97274000D01*
X125647485Y-97178761D01*
X125504628Y-97035904D01*
X125409390Y-96988285D01*
X125314152Y-96988285D01*
X125361771Y-97226380D02*
X125266533Y-97178761D01*
X125171295Y-97083523D01*
X125123676Y-96893047D01*
X125123676Y-96559714D01*
X125171295Y-96369238D01*
X125266533Y-96274000D01*
X125361771Y-96226380D01*
X125552247Y-96226380D01*
X125647485Y-96274000D01*
X125742723Y-96369238D01*
X125790342Y-96559714D01*
X125790342Y-96893047D01*
X125742723Y-97083523D01*
X125647485Y-97178761D01*
X125552247Y-97226380D01*
X125361771Y-97226380D01*
X126742723Y-97226380D02*
X126171295Y-97226380D01*
X126457009Y-97226380D02*
X126457009Y-96226380D01*
X126361771Y-96369238D01*
X126266533Y-96464476D01*
X126171295Y-96512095D01*
%TO.C,Q2*%
X141687561Y-115762019D02*
X141592323Y-115714400D01*
X141497085Y-115619161D01*
X141354228Y-115476304D01*
X141258990Y-115428685D01*
X141163752Y-115428685D01*
X141211371Y-115666780D02*
X141116133Y-115619161D01*
X141020895Y-115523923D01*
X140973276Y-115333447D01*
X140973276Y-115000114D01*
X141020895Y-114809638D01*
X141116133Y-114714400D01*
X141211371Y-114666780D01*
X141401847Y-114666780D01*
X141497085Y-114714400D01*
X141592323Y-114809638D01*
X141639942Y-115000114D01*
X141639942Y-115333447D01*
X141592323Y-115523923D01*
X141497085Y-115619161D01*
X141401847Y-115666780D01*
X141211371Y-115666780D01*
X142020895Y-114762019D02*
X142068514Y-114714400D01*
X142163752Y-114666780D01*
X142401847Y-114666780D01*
X142497085Y-114714400D01*
X142544704Y-114762019D01*
X142592323Y-114857257D01*
X142592323Y-114952495D01*
X142544704Y-115095352D01*
X141973276Y-115666780D01*
X142592323Y-115666780D01*
%TO.C,R1*%
X123134380Y-98820266D02*
X122658190Y-99153600D01*
X123134380Y-99391695D02*
X122134380Y-99391695D01*
X122134380Y-99010742D01*
X122182000Y-98915504D01*
X122229619Y-98867885D01*
X122324857Y-98820266D01*
X122467714Y-98820266D01*
X122562952Y-98867885D01*
X122610571Y-98915504D01*
X122658190Y-99010742D01*
X122658190Y-99391695D01*
X123134380Y-97867885D02*
X123134380Y-98439314D01*
X123134380Y-98153600D02*
X122134380Y-98153600D01*
X122277238Y-98248838D01*
X122372476Y-98344076D01*
X122420095Y-98439314D01*
%TO.C,R2*%
X129281180Y-96686666D02*
X128804990Y-97020000D01*
X129281180Y-97258095D02*
X128281180Y-97258095D01*
X128281180Y-96877142D01*
X128328800Y-96781904D01*
X128376419Y-96734285D01*
X128471657Y-96686666D01*
X128614514Y-96686666D01*
X128709752Y-96734285D01*
X128757371Y-96781904D01*
X128804990Y-96877142D01*
X128804990Y-97258095D01*
X128376419Y-96305714D02*
X128328800Y-96258095D01*
X128281180Y-96162857D01*
X128281180Y-95924761D01*
X128328800Y-95829523D01*
X128376419Y-95781904D01*
X128471657Y-95734285D01*
X128566895Y-95734285D01*
X128709752Y-95781904D01*
X129281180Y-96353333D01*
X129281180Y-95734285D01*
%TO.C,R3*%
X120746780Y-101411066D02*
X120270590Y-101744400D01*
X120746780Y-101982495D02*
X119746780Y-101982495D01*
X119746780Y-101601542D01*
X119794400Y-101506304D01*
X119842019Y-101458685D01*
X119937257Y-101411066D01*
X120080114Y-101411066D01*
X120175352Y-101458685D01*
X120222971Y-101506304D01*
X120270590Y-101601542D01*
X120270590Y-101982495D01*
X119746780Y-101077733D02*
X119746780Y-100458685D01*
X120127733Y-100792019D01*
X120127733Y-100649161D01*
X120175352Y-100553923D01*
X120222971Y-100506304D01*
X120318209Y-100458685D01*
X120556304Y-100458685D01*
X120651542Y-100506304D01*
X120699161Y-100553923D01*
X120746780Y-100649161D01*
X120746780Y-100934876D01*
X120699161Y-101030114D01*
X120651542Y-101077733D01*
%TO.C,R4*%
X123567180Y-101766666D02*
X123090990Y-102100000D01*
X123567180Y-102338095D02*
X122567180Y-102338095D01*
X122567180Y-101957142D01*
X122614800Y-101861904D01*
X122662419Y-101814285D01*
X122757657Y-101766666D01*
X122900514Y-101766666D01*
X122995752Y-101814285D01*
X123043371Y-101861904D01*
X123090990Y-101957142D01*
X123090990Y-102338095D01*
X122900514Y-100909523D02*
X123567180Y-100909523D01*
X122519561Y-101147619D02*
X123233847Y-101385714D01*
X123233847Y-100766666D01*
%TO.C,R5*%
X127401580Y-108777066D02*
X126925390Y-109110400D01*
X127401580Y-109348495D02*
X126401580Y-109348495D01*
X126401580Y-108967542D01*
X126449200Y-108872304D01*
X126496819Y-108824685D01*
X126592057Y-108777066D01*
X126734914Y-108777066D01*
X126830152Y-108824685D01*
X126877771Y-108872304D01*
X126925390Y-108967542D01*
X126925390Y-109348495D01*
X126401580Y-107872304D02*
X126401580Y-108348495D01*
X126877771Y-108396114D01*
X126830152Y-108348495D01*
X126782533Y-108253257D01*
X126782533Y-108015161D01*
X126830152Y-107919923D01*
X126877771Y-107872304D01*
X126973009Y-107824685D01*
X127211104Y-107824685D01*
X127306342Y-107872304D01*
X127353961Y-107919923D01*
X127401580Y-108015161D01*
X127401580Y-108253257D01*
X127353961Y-108348495D01*
X127306342Y-108396114D01*
%TO.C,R6*%
X126741180Y-114009466D02*
X126264990Y-114342800D01*
X126741180Y-114580895D02*
X125741180Y-114580895D01*
X125741180Y-114199942D01*
X125788800Y-114104704D01*
X125836419Y-114057085D01*
X125931657Y-114009466D01*
X126074514Y-114009466D01*
X126169752Y-114057085D01*
X126217371Y-114104704D01*
X126264990Y-114199942D01*
X126264990Y-114580895D01*
X125741180Y-113152323D02*
X125741180Y-113342800D01*
X125788800Y-113438038D01*
X125836419Y-113485657D01*
X125979276Y-113580895D01*
X126169752Y-113628514D01*
X126550704Y-113628514D01*
X126645942Y-113580895D01*
X126693561Y-113533276D01*
X126741180Y-113438038D01*
X126741180Y-113247561D01*
X126693561Y-113152323D01*
X126645942Y-113104704D01*
X126550704Y-113057085D01*
X126312609Y-113057085D01*
X126217371Y-113104704D01*
X126169752Y-113152323D01*
X126122133Y-113247561D01*
X126122133Y-113438038D01*
X126169752Y-113533276D01*
X126217371Y-113580895D01*
X126312609Y-113628514D01*
%TO.C,R7*%
X136393180Y-96026266D02*
X135916990Y-96359600D01*
X136393180Y-96597695D02*
X135393180Y-96597695D01*
X135393180Y-96216742D01*
X135440800Y-96121504D01*
X135488419Y-96073885D01*
X135583657Y-96026266D01*
X135726514Y-96026266D01*
X135821752Y-96073885D01*
X135869371Y-96121504D01*
X135916990Y-96216742D01*
X135916990Y-96597695D01*
X135393180Y-95692933D02*
X135393180Y-95026266D01*
X136393180Y-95454838D01*
%TO.C,R8*%
X124151380Y-110783666D02*
X123675190Y-111117000D01*
X124151380Y-111355095D02*
X123151380Y-111355095D01*
X123151380Y-110974142D01*
X123199000Y-110878904D01*
X123246619Y-110831285D01*
X123341857Y-110783666D01*
X123484714Y-110783666D01*
X123579952Y-110831285D01*
X123627571Y-110878904D01*
X123675190Y-110974142D01*
X123675190Y-111355095D01*
X123579952Y-110212238D02*
X123532333Y-110307476D01*
X123484714Y-110355095D01*
X123389476Y-110402714D01*
X123341857Y-110402714D01*
X123246619Y-110355095D01*
X123199000Y-110307476D01*
X123151380Y-110212238D01*
X123151380Y-110021761D01*
X123199000Y-109926523D01*
X123246619Y-109878904D01*
X123341857Y-109831285D01*
X123389476Y-109831285D01*
X123484714Y-109878904D01*
X123532333Y-109926523D01*
X123579952Y-110021761D01*
X123579952Y-110212238D01*
X123627571Y-110307476D01*
X123675190Y-110355095D01*
X123770428Y-110402714D01*
X123960904Y-110402714D01*
X124056142Y-110355095D01*
X124103761Y-110307476D01*
X124151380Y-110212238D01*
X124151380Y-110021761D01*
X124103761Y-109926523D01*
X124056142Y-109878904D01*
X123960904Y-109831285D01*
X123770428Y-109831285D01*
X123675190Y-109878904D01*
X123627571Y-109926523D01*
X123579952Y-110021761D01*
%TO.C,R9*%
X121128780Y-106846666D02*
X120652590Y-107180000D01*
X121128780Y-107418095D02*
X120128780Y-107418095D01*
X120128780Y-107037142D01*
X120176400Y-106941904D01*
X120224019Y-106894285D01*
X120319257Y-106846666D01*
X120462114Y-106846666D01*
X120557352Y-106894285D01*
X120604971Y-106941904D01*
X120652590Y-107037142D01*
X120652590Y-107418095D01*
X121128780Y-106370476D02*
X121128780Y-106180000D01*
X121081161Y-106084761D01*
X121033542Y-106037142D01*
X120890685Y-105941904D01*
X120700209Y-105894285D01*
X120319257Y-105894285D01*
X120224019Y-105941904D01*
X120176400Y-105989523D01*
X120128780Y-106084761D01*
X120128780Y-106275238D01*
X120176400Y-106370476D01*
X120224019Y-106418095D01*
X120319257Y-106465714D01*
X120557352Y-106465714D01*
X120652590Y-106418095D01*
X120700209Y-106370476D01*
X120747828Y-106275238D01*
X120747828Y-106084761D01*
X120700209Y-105989523D01*
X120652590Y-105941904D01*
X120557352Y-105894285D01*
%TO.C,R15*%
X142625842Y-107157780D02*
X142292509Y-106681590D01*
X142054414Y-107157780D02*
X142054414Y-106157780D01*
X142435366Y-106157780D01*
X142530604Y-106205400D01*
X142578223Y-106253019D01*
X142625842Y-106348257D01*
X142625842Y-106491114D01*
X142578223Y-106586352D01*
X142530604Y-106633971D01*
X142435366Y-106681590D01*
X142054414Y-106681590D01*
X143578223Y-107157780D02*
X143006795Y-107157780D01*
X143292509Y-107157780D02*
X143292509Y-106157780D01*
X143197271Y-106300638D01*
X143102033Y-106395876D01*
X143006795Y-106443495D01*
X144482985Y-106157780D02*
X144006795Y-106157780D01*
X143959176Y-106633971D01*
X144006795Y-106586352D01*
X144102033Y-106538733D01*
X144340128Y-106538733D01*
X144435366Y-106586352D01*
X144482985Y-106633971D01*
X144530604Y-106729209D01*
X144530604Y-106967304D01*
X144482985Y-107062542D01*
X144435366Y-107110161D01*
X144340128Y-107157780D01*
X144102033Y-107157780D01*
X144006795Y-107110161D01*
X143959176Y-107062542D01*
%TO.C,R16*%
X137025142Y-109316780D02*
X136691809Y-108840590D01*
X136453714Y-109316780D02*
X136453714Y-108316780D01*
X136834666Y-108316780D01*
X136929904Y-108364400D01*
X136977523Y-108412019D01*
X137025142Y-108507257D01*
X137025142Y-108650114D01*
X136977523Y-108745352D01*
X136929904Y-108792971D01*
X136834666Y-108840590D01*
X136453714Y-108840590D01*
X137977523Y-109316780D02*
X137406095Y-109316780D01*
X137691809Y-109316780D02*
X137691809Y-108316780D01*
X137596571Y-108459638D01*
X137501333Y-108554876D01*
X137406095Y-108602495D01*
X138834666Y-108316780D02*
X138644190Y-108316780D01*
X138548952Y-108364400D01*
X138501333Y-108412019D01*
X138406095Y-108554876D01*
X138358476Y-108745352D01*
X138358476Y-109126304D01*
X138406095Y-109221542D01*
X138453714Y-109269161D01*
X138548952Y-109316780D01*
X138739428Y-109316780D01*
X138834666Y-109269161D01*
X138882285Y-109221542D01*
X138929904Y-109126304D01*
X138929904Y-108888209D01*
X138882285Y-108792971D01*
X138834666Y-108745352D01*
X138739428Y-108697733D01*
X138548952Y-108697733D01*
X138453714Y-108745352D01*
X138406095Y-108792971D01*
X138358476Y-108888209D01*
%TO.C,R17*%
X132351542Y-119916380D02*
X132018209Y-119440190D01*
X131780114Y-119916380D02*
X131780114Y-118916380D01*
X132161066Y-118916380D01*
X132256304Y-118964000D01*
X132303923Y-119011619D01*
X132351542Y-119106857D01*
X132351542Y-119249714D01*
X132303923Y-119344952D01*
X132256304Y-119392571D01*
X132161066Y-119440190D01*
X131780114Y-119440190D01*
X133303923Y-119916380D02*
X132732495Y-119916380D01*
X133018209Y-119916380D02*
X133018209Y-118916380D01*
X132922971Y-119059238D01*
X132827733Y-119154476D01*
X132732495Y-119202095D01*
X133637257Y-118916380D02*
X134303923Y-118916380D01*
X133875352Y-119916380D01*
%TO.C,R18*%
X146780780Y-104443257D02*
X146304590Y-104776590D01*
X146780780Y-105014685D02*
X145780780Y-105014685D01*
X145780780Y-104633733D01*
X145828400Y-104538495D01*
X145876019Y-104490876D01*
X145971257Y-104443257D01*
X146114114Y-104443257D01*
X146209352Y-104490876D01*
X146256971Y-104538495D01*
X146304590Y-104633733D01*
X146304590Y-105014685D01*
X146780780Y-103490876D02*
X146780780Y-104062304D01*
X146780780Y-103776590D02*
X145780780Y-103776590D01*
X145923638Y-103871828D01*
X146018876Y-103967066D01*
X146066495Y-104062304D01*
X146209352Y-102919447D02*
X146161733Y-103014685D01*
X146114114Y-103062304D01*
X146018876Y-103109923D01*
X145971257Y-103109923D01*
X145876019Y-103062304D01*
X145828400Y-103014685D01*
X145780780Y-102919447D01*
X145780780Y-102728971D01*
X145828400Y-102633733D01*
X145876019Y-102586114D01*
X145971257Y-102538495D01*
X146018876Y-102538495D01*
X146114114Y-102586114D01*
X146161733Y-102633733D01*
X146209352Y-102728971D01*
X146209352Y-102919447D01*
X146256971Y-103014685D01*
X146304590Y-103062304D01*
X146399828Y-103109923D01*
X146590304Y-103109923D01*
X146685542Y-103062304D01*
X146733161Y-103014685D01*
X146780780Y-102919447D01*
X146780780Y-102728971D01*
X146733161Y-102633733D01*
X146685542Y-102586114D01*
X146590304Y-102538495D01*
X146399828Y-102538495D01*
X146304590Y-102586114D01*
X146256971Y-102633733D01*
X146209352Y-102728971D01*
%TO.C,R19*%
X138853942Y-96718380D02*
X138520609Y-96242190D01*
X138282514Y-96718380D02*
X138282514Y-95718380D01*
X138663466Y-95718380D01*
X138758704Y-95766000D01*
X138806323Y-95813619D01*
X138853942Y-95908857D01*
X138853942Y-96051714D01*
X138806323Y-96146952D01*
X138758704Y-96194571D01*
X138663466Y-96242190D01*
X138282514Y-96242190D01*
X139806323Y-96718380D02*
X139234895Y-96718380D01*
X139520609Y-96718380D02*
X139520609Y-95718380D01*
X139425371Y-95861238D01*
X139330133Y-95956476D01*
X139234895Y-96004095D01*
X140282514Y-96718380D02*
X140472990Y-96718380D01*
X140568228Y-96670761D01*
X140615847Y-96623142D01*
X140711085Y-96480285D01*
X140758704Y-96289809D01*
X140758704Y-95908857D01*
X140711085Y-95813619D01*
X140663466Y-95766000D01*
X140568228Y-95718380D01*
X140377752Y-95718380D01*
X140282514Y-95766000D01*
X140234895Y-95813619D01*
X140187276Y-95908857D01*
X140187276Y-96146952D01*
X140234895Y-96242190D01*
X140282514Y-96289809D01*
X140377752Y-96337428D01*
X140568228Y-96337428D01*
X140663466Y-96289809D01*
X140711085Y-96242190D01*
X140758704Y-96146952D01*
%TO.C,R20*%
X145356342Y-98089980D02*
X145023009Y-97613790D01*
X144784914Y-98089980D02*
X144784914Y-97089980D01*
X145165866Y-97089980D01*
X145261104Y-97137600D01*
X145308723Y-97185219D01*
X145356342Y-97280457D01*
X145356342Y-97423314D01*
X145308723Y-97518552D01*
X145261104Y-97566171D01*
X145165866Y-97613790D01*
X144784914Y-97613790D01*
X145737295Y-97185219D02*
X145784914Y-97137600D01*
X145880152Y-97089980D01*
X146118247Y-97089980D01*
X146213485Y-97137600D01*
X146261104Y-97185219D01*
X146308723Y-97280457D01*
X146308723Y-97375695D01*
X146261104Y-97518552D01*
X145689676Y-98089980D01*
X146308723Y-98089980D01*
X146927771Y-97089980D02*
X147023009Y-97089980D01*
X147118247Y-97137600D01*
X147165866Y-97185219D01*
X147213485Y-97280457D01*
X147261104Y-97470933D01*
X147261104Y-97709028D01*
X147213485Y-97899504D01*
X147165866Y-97994742D01*
X147118247Y-98042361D01*
X147023009Y-98089980D01*
X146927771Y-98089980D01*
X146832533Y-98042361D01*
X146784914Y-97994742D01*
X146737295Y-97899504D01*
X146689676Y-97709028D01*
X146689676Y-97470933D01*
X146737295Y-97280457D01*
X146784914Y-97185219D01*
X146832533Y-97137600D01*
X146927771Y-97089980D01*
%TO.C,R21*%
X138091942Y-103373180D02*
X137758609Y-102896990D01*
X137520514Y-103373180D02*
X137520514Y-102373180D01*
X137901466Y-102373180D01*
X137996704Y-102420800D01*
X138044323Y-102468419D01*
X138091942Y-102563657D01*
X138091942Y-102706514D01*
X138044323Y-102801752D01*
X137996704Y-102849371D01*
X137901466Y-102896990D01*
X137520514Y-102896990D01*
X138472895Y-102468419D02*
X138520514Y-102420800D01*
X138615752Y-102373180D01*
X138853847Y-102373180D01*
X138949085Y-102420800D01*
X138996704Y-102468419D01*
X139044323Y-102563657D01*
X139044323Y-102658895D01*
X138996704Y-102801752D01*
X138425276Y-103373180D01*
X139044323Y-103373180D01*
X139996704Y-103373180D02*
X139425276Y-103373180D01*
X139710990Y-103373180D02*
X139710990Y-102373180D01*
X139615752Y-102516038D01*
X139520514Y-102611276D01*
X139425276Y-102658895D01*
%TO.C,R22*%
X148658342Y-108859580D02*
X148325009Y-108383390D01*
X148086914Y-108859580D02*
X148086914Y-107859580D01*
X148467866Y-107859580D01*
X148563104Y-107907200D01*
X148610723Y-107954819D01*
X148658342Y-108050057D01*
X148658342Y-108192914D01*
X148610723Y-108288152D01*
X148563104Y-108335771D01*
X148467866Y-108383390D01*
X148086914Y-108383390D01*
X149039295Y-107954819D02*
X149086914Y-107907200D01*
X149182152Y-107859580D01*
X149420247Y-107859580D01*
X149515485Y-107907200D01*
X149563104Y-107954819D01*
X149610723Y-108050057D01*
X149610723Y-108145295D01*
X149563104Y-108288152D01*
X148991676Y-108859580D01*
X149610723Y-108859580D01*
X149991676Y-107954819D02*
X150039295Y-107907200D01*
X150134533Y-107859580D01*
X150372628Y-107859580D01*
X150467866Y-107907200D01*
X150515485Y-107954819D01*
X150563104Y-108050057D01*
X150563104Y-108145295D01*
X150515485Y-108288152D01*
X149944057Y-108859580D01*
X150563104Y-108859580D01*
%TO.C,R23*%
X144187942Y-94737180D02*
X143854609Y-94260990D01*
X143616514Y-94737180D02*
X143616514Y-93737180D01*
X143997466Y-93737180D01*
X144092704Y-93784800D01*
X144140323Y-93832419D01*
X144187942Y-93927657D01*
X144187942Y-94070514D01*
X144140323Y-94165752D01*
X144092704Y-94213371D01*
X143997466Y-94260990D01*
X143616514Y-94260990D01*
X144568895Y-93832419D02*
X144616514Y-93784800D01*
X144711752Y-93737180D01*
X144949847Y-93737180D01*
X145045085Y-93784800D01*
X145092704Y-93832419D01*
X145140323Y-93927657D01*
X145140323Y-94022895D01*
X145092704Y-94165752D01*
X144521276Y-94737180D01*
X145140323Y-94737180D01*
X145473657Y-93737180D02*
X146092704Y-93737180D01*
X145759371Y-94118133D01*
X145902228Y-94118133D01*
X145997466Y-94165752D01*
X146045085Y-94213371D01*
X146092704Y-94308609D01*
X146092704Y-94546704D01*
X146045085Y-94641942D01*
X145997466Y-94689561D01*
X145902228Y-94737180D01*
X145616514Y-94737180D01*
X145521276Y-94689561D01*
X145473657Y-94641942D01*
%TO.C,Rntc2*%
X145732666Y-113634780D02*
X145399333Y-113158590D01*
X145161238Y-113634780D02*
X145161238Y-112634780D01*
X145542190Y-112634780D01*
X145637428Y-112682400D01*
X145685047Y-112730019D01*
X145732666Y-112825257D01*
X145732666Y-112968114D01*
X145685047Y-113063352D01*
X145637428Y-113110971D01*
X145542190Y-113158590D01*
X145161238Y-113158590D01*
X146161238Y-112968114D02*
X146161238Y-113634780D01*
X146161238Y-113063352D02*
X146208857Y-113015733D01*
X146304095Y-112968114D01*
X146446952Y-112968114D01*
X146542190Y-113015733D01*
X146589809Y-113110971D01*
X146589809Y-113634780D01*
X146923142Y-112968114D02*
X147304095Y-112968114D01*
X147066000Y-112634780D02*
X147066000Y-113491923D01*
X147113619Y-113587161D01*
X147208857Y-113634780D01*
X147304095Y-113634780D01*
X148066000Y-113587161D02*
X147970761Y-113634780D01*
X147780285Y-113634780D01*
X147685047Y-113587161D01*
X147637428Y-113539542D01*
X147589809Y-113444304D01*
X147589809Y-113158590D01*
X147637428Y-113063352D01*
X147685047Y-113015733D01*
X147780285Y-112968114D01*
X147970761Y-112968114D01*
X148066000Y-113015733D01*
X148446952Y-112730019D02*
X148494571Y-112682400D01*
X148589809Y-112634780D01*
X148827904Y-112634780D01*
X148923142Y-112682400D01*
X148970761Y-112730019D01*
X149018380Y-112825257D01*
X149018380Y-112920495D01*
X148970761Y-113063352D01*
X148399333Y-113634780D01*
X149018380Y-113634780D01*
%TO.C,D1*%
X132662704Y-93721180D02*
X132662704Y-92721180D01*
X132900800Y-92721180D01*
X133043657Y-92768800D01*
X133138895Y-92864038D01*
X133186514Y-92959276D01*
X133234133Y-93149752D01*
X133234133Y-93292609D01*
X133186514Y-93483085D01*
X133138895Y-93578323D01*
X133043657Y-93673561D01*
X132900800Y-93721180D01*
X132662704Y-93721180D01*
X134186514Y-93721180D02*
X133615085Y-93721180D01*
X133900800Y-93721180D02*
X133900800Y-92721180D01*
X133805561Y-92864038D01*
X133710323Y-92959276D01*
X133615085Y-93006895D01*
%TO.C,D3*%
X134897904Y-94076780D02*
X134897904Y-93076780D01*
X135136000Y-93076780D01*
X135278857Y-93124400D01*
X135374095Y-93219638D01*
X135421714Y-93314876D01*
X135469333Y-93505352D01*
X135469333Y-93648209D01*
X135421714Y-93838685D01*
X135374095Y-93933923D01*
X135278857Y-94029161D01*
X135136000Y-94076780D01*
X134897904Y-94076780D01*
X135802666Y-93076780D02*
X136421714Y-93076780D01*
X136088380Y-93457733D01*
X136231238Y-93457733D01*
X136326476Y-93505352D01*
X136374095Y-93552971D01*
X136421714Y-93648209D01*
X136421714Y-93886304D01*
X136374095Y-93981542D01*
X136326476Y-94029161D01*
X136231238Y-94076780D01*
X135945523Y-94076780D01*
X135850285Y-94029161D01*
X135802666Y-93981542D01*
%TO.C,Rntc1*%
X114185866Y-116174780D02*
X113852533Y-115698590D01*
X113614438Y-116174780D02*
X113614438Y-115174780D01*
X113995390Y-115174780D01*
X114090628Y-115222400D01*
X114138247Y-115270019D01*
X114185866Y-115365257D01*
X114185866Y-115508114D01*
X114138247Y-115603352D01*
X114090628Y-115650971D01*
X113995390Y-115698590D01*
X113614438Y-115698590D01*
X114614438Y-115508114D02*
X114614438Y-116174780D01*
X114614438Y-115603352D02*
X114662057Y-115555733D01*
X114757295Y-115508114D01*
X114900152Y-115508114D01*
X114995390Y-115555733D01*
X115043009Y-115650971D01*
X115043009Y-116174780D01*
X115376342Y-115508114D02*
X115757295Y-115508114D01*
X115519200Y-115174780D02*
X115519200Y-116031923D01*
X115566819Y-116127161D01*
X115662057Y-116174780D01*
X115757295Y-116174780D01*
X116519200Y-116127161D02*
X116423961Y-116174780D01*
X116233485Y-116174780D01*
X116138247Y-116127161D01*
X116090628Y-116079542D01*
X116043009Y-115984304D01*
X116043009Y-115698590D01*
X116090628Y-115603352D01*
X116138247Y-115555733D01*
X116233485Y-115508114D01*
X116423961Y-115508114D01*
X116519200Y-115555733D01*
X117471580Y-116174780D02*
X116900152Y-116174780D01*
X117185866Y-116174780D02*
X117185866Y-115174780D01*
X117090628Y-115317638D01*
X116995390Y-115412876D01*
X116900152Y-115460495D01*
%TO.C,Led1*%
X157044380Y-108836219D02*
X157044380Y-109312409D01*
X156044380Y-109312409D01*
X156996761Y-108121933D02*
X157044380Y-108217171D01*
X157044380Y-108407647D01*
X156996761Y-108502885D01*
X156901523Y-108550504D01*
X156520571Y-108550504D01*
X156425333Y-108502885D01*
X156377714Y-108407647D01*
X156377714Y-108217171D01*
X156425333Y-108121933D01*
X156520571Y-108074314D01*
X156615809Y-108074314D01*
X156711047Y-108550504D01*
X157044380Y-107217171D02*
X156044380Y-107217171D01*
X156996761Y-107217171D02*
X157044380Y-107312409D01*
X157044380Y-107502885D01*
X156996761Y-107598123D01*
X156949142Y-107645742D01*
X156853904Y-107693361D01*
X156568190Y-107693361D01*
X156472952Y-107645742D01*
X156425333Y-107598123D01*
X156377714Y-107502885D01*
X156377714Y-107312409D01*
X156425333Y-107217171D01*
X157044380Y-106217171D02*
X157044380Y-106788600D01*
X157044380Y-106502885D02*
X156044380Y-106502885D01*
X156187238Y-106598123D01*
X156282476Y-106693361D01*
X156330095Y-106788600D01*
%TO.C,R24*%
X154807180Y-108608857D02*
X154330990Y-108942190D01*
X154807180Y-109180285D02*
X153807180Y-109180285D01*
X153807180Y-108799333D01*
X153854800Y-108704095D01*
X153902419Y-108656476D01*
X153997657Y-108608857D01*
X154140514Y-108608857D01*
X154235752Y-108656476D01*
X154283371Y-108704095D01*
X154330990Y-108799333D01*
X154330990Y-109180285D01*
X153902419Y-108227904D02*
X153854800Y-108180285D01*
X153807180Y-108085047D01*
X153807180Y-107846952D01*
X153854800Y-107751714D01*
X153902419Y-107704095D01*
X153997657Y-107656476D01*
X154092895Y-107656476D01*
X154235752Y-107704095D01*
X154807180Y-108275523D01*
X154807180Y-107656476D01*
X154140514Y-106799333D02*
X154807180Y-106799333D01*
X153759561Y-107037428D02*
X154473847Y-107275523D01*
X154473847Y-106656476D01*
%TO.C,U2*%
X108496195Y-88911180D02*
X108496195Y-89720704D01*
X108543814Y-89815942D01*
X108591433Y-89863561D01*
X108686671Y-89911180D01*
X108877147Y-89911180D01*
X108972385Y-89863561D01*
X109020004Y-89815942D01*
X109067623Y-89720704D01*
X109067623Y-88911180D01*
X109496195Y-89006419D02*
X109543814Y-88958800D01*
X109639052Y-88911180D01*
X109877147Y-88911180D01*
X109972385Y-88958800D01*
X110020004Y-89006419D01*
X110067623Y-89101657D01*
X110067623Y-89196895D01*
X110020004Y-89339752D01*
X109448576Y-89911180D01*
X110067623Y-89911180D01*
%TO.C,U3*%
X140716095Y-84110580D02*
X140716095Y-84920104D01*
X140763714Y-85015342D01*
X140811333Y-85062961D01*
X140906571Y-85110580D01*
X141097047Y-85110580D01*
X141192285Y-85062961D01*
X141239904Y-85015342D01*
X141287523Y-84920104D01*
X141287523Y-84110580D01*
X141668476Y-84110580D02*
X142287523Y-84110580D01*
X141954190Y-84491533D01*
X142097047Y-84491533D01*
X142192285Y-84539152D01*
X142239904Y-84586771D01*
X142287523Y-84682009D01*
X142287523Y-84920104D01*
X142239904Y-85015342D01*
X142192285Y-85062961D01*
X142097047Y-85110580D01*
X141811333Y-85110580D01*
X141716095Y-85062961D01*
X141668476Y-85015342D01*
%TO.C,JPA5*%
X156402380Y-128272304D02*
X157116666Y-128272304D01*
X157259523Y-128319923D01*
X157354761Y-128415161D01*
X157402380Y-128558019D01*
X157402380Y-128653257D01*
X157402380Y-127796114D02*
X156402380Y-127796114D01*
X156402380Y-127415161D01*
X156450000Y-127319923D01*
X156497619Y-127272304D01*
X156592857Y-127224685D01*
X156735714Y-127224685D01*
X156830952Y-127272304D01*
X156878571Y-127319923D01*
X156926190Y-127415161D01*
X156926190Y-127796114D01*
X157116666Y-126843733D02*
X157116666Y-126367542D01*
X157402380Y-126938971D02*
X156402380Y-126605638D01*
X157402380Y-126272304D01*
X156402380Y-125462780D02*
X156402380Y-125938971D01*
X156878571Y-125986590D01*
X156830952Y-125938971D01*
X156783333Y-125843733D01*
X156783333Y-125605638D01*
X156830952Y-125510400D01*
X156878571Y-125462780D01*
X156973809Y-125415161D01*
X157211904Y-125415161D01*
X157307142Y-125462780D01*
X157354761Y-125510400D01*
X157402380Y-125605638D01*
X157402380Y-125843733D01*
X157354761Y-125938971D01*
X157307142Y-125986590D01*
%TO.C,JPA2*%
X146953580Y-128312704D02*
X147667866Y-128312704D01*
X147810723Y-128360323D01*
X147905961Y-128455561D01*
X147953580Y-128598419D01*
X147953580Y-128693657D01*
X147953580Y-127836514D02*
X146953580Y-127836514D01*
X146953580Y-127455561D01*
X147001200Y-127360323D01*
X147048819Y-127312704D01*
X147144057Y-127265085D01*
X147286914Y-127265085D01*
X147382152Y-127312704D01*
X147429771Y-127360323D01*
X147477390Y-127455561D01*
X147477390Y-127836514D01*
X147667866Y-126884133D02*
X147667866Y-126407942D01*
X147953580Y-126979371D02*
X146953580Y-126646038D01*
X147953580Y-126312704D01*
X147048819Y-126026990D02*
X147001200Y-125979371D01*
X146953580Y-125884133D01*
X146953580Y-125646038D01*
X147001200Y-125550800D01*
X147048819Y-125503180D01*
X147144057Y-125455561D01*
X147239295Y-125455561D01*
X147382152Y-125503180D01*
X147953580Y-126074609D01*
X147953580Y-125455561D01*
%TO.C,JPA3*%
X150103180Y-128272304D02*
X150817466Y-128272304D01*
X150960323Y-128319923D01*
X151055561Y-128415161D01*
X151103180Y-128558019D01*
X151103180Y-128653257D01*
X151103180Y-127796114D02*
X150103180Y-127796114D01*
X150103180Y-127415161D01*
X150150800Y-127319923D01*
X150198419Y-127272304D01*
X150293657Y-127224685D01*
X150436514Y-127224685D01*
X150531752Y-127272304D01*
X150579371Y-127319923D01*
X150626990Y-127415161D01*
X150626990Y-127796114D01*
X150817466Y-126843733D02*
X150817466Y-126367542D01*
X151103180Y-126938971D02*
X150103180Y-126605638D01*
X151103180Y-126272304D01*
X150103180Y-126034209D02*
X150103180Y-125415161D01*
X150484133Y-125748495D01*
X150484133Y-125605638D01*
X150531752Y-125510400D01*
X150579371Y-125462780D01*
X150674609Y-125415161D01*
X150912704Y-125415161D01*
X151007942Y-125462780D01*
X151055561Y-125510400D01*
X151103180Y-125605638D01*
X151103180Y-125891352D01*
X151055561Y-125986590D01*
X151007942Y-126034209D01*
%TO.C,JPA4*%
X153252780Y-128272304D02*
X153967066Y-128272304D01*
X154109923Y-128319923D01*
X154205161Y-128415161D01*
X154252780Y-128558019D01*
X154252780Y-128653257D01*
X154252780Y-127796114D02*
X153252780Y-127796114D01*
X153252780Y-127415161D01*
X153300400Y-127319923D01*
X153348019Y-127272304D01*
X153443257Y-127224685D01*
X153586114Y-127224685D01*
X153681352Y-127272304D01*
X153728971Y-127319923D01*
X153776590Y-127415161D01*
X153776590Y-127796114D01*
X153967066Y-126843733D02*
X153967066Y-126367542D01*
X154252780Y-126938971D02*
X153252780Y-126605638D01*
X154252780Y-126272304D01*
X153586114Y-125510400D02*
X154252780Y-125510400D01*
X153205161Y-125748495D02*
X153919447Y-125986590D01*
X153919447Y-125367542D01*
%TO.C,JPA0*%
X140552780Y-128272304D02*
X141267066Y-128272304D01*
X141409923Y-128319923D01*
X141505161Y-128415161D01*
X141552780Y-128558019D01*
X141552780Y-128653257D01*
X141552780Y-127796114D02*
X140552780Y-127796114D01*
X140552780Y-127415161D01*
X140600400Y-127319923D01*
X140648019Y-127272304D01*
X140743257Y-127224685D01*
X140886114Y-127224685D01*
X140981352Y-127272304D01*
X141028971Y-127319923D01*
X141076590Y-127415161D01*
X141076590Y-127796114D01*
X141267066Y-126843733D02*
X141267066Y-126367542D01*
X141552780Y-126938971D02*
X140552780Y-126605638D01*
X141552780Y-126272304D01*
X140552780Y-125748495D02*
X140552780Y-125653257D01*
X140600400Y-125558019D01*
X140648019Y-125510400D01*
X140743257Y-125462780D01*
X140933733Y-125415161D01*
X141171828Y-125415161D01*
X141362304Y-125462780D01*
X141457542Y-125510400D01*
X141505161Y-125558019D01*
X141552780Y-125653257D01*
X141552780Y-125748495D01*
X141505161Y-125843733D01*
X141457542Y-125891352D01*
X141362304Y-125938971D01*
X141171828Y-125986590D01*
X140933733Y-125986590D01*
X140743257Y-125938971D01*
X140648019Y-125891352D01*
X140600400Y-125843733D01*
X140552780Y-125748495D01*
%TO.C,JPA1*%
X143753180Y-128261904D02*
X144467466Y-128261904D01*
X144610323Y-128309523D01*
X144705561Y-128404761D01*
X144753180Y-128547619D01*
X144753180Y-128642857D01*
X144753180Y-127785714D02*
X143753180Y-127785714D01*
X143753180Y-127404761D01*
X143800800Y-127309523D01*
X143848419Y-127261904D01*
X143943657Y-127214285D01*
X144086514Y-127214285D01*
X144181752Y-127261904D01*
X144229371Y-127309523D01*
X144276990Y-127404761D01*
X144276990Y-127785714D01*
X144467466Y-126833333D02*
X144467466Y-126357142D01*
X144753180Y-126928571D02*
X143753180Y-126595238D01*
X144753180Y-126261904D01*
X144753180Y-125404761D02*
X144753180Y-125976190D01*
X144753180Y-125690476D02*
X143753180Y-125690476D01*
X143896038Y-125785714D01*
X143991276Y-125880952D01*
X144038895Y-125976190D01*
%TD*%
M02*
