M48
; DRILL file {KiCad (5.1.10)-1} date 06/07/21 20:06:14
; FORMAT={-:-/ absolute / inch / decimal}
; #@! TF.CreationDate,2021-06-07T20:06:14+02:00
; #@! TF.GenerationSoftware,Kicad,Pcbnew,(5.1.10)-1
; #@! TF.FileFunction,Plated,1,2,PTH
FMAT,2
INCH
T1C0.0157
T2C0.0315
T3C0.0394
T4C0.0402
T5C0.0591
T6C0.0598
%
G90
G05
T1
X4.746Y-3.688
X4.786Y-3.686
X4.81Y-4.462
X4.865Y-3.715
X4.875Y-3.665
X4.926Y-3.66
X4.926Y-3.66
X4.954Y-4.092
X4.998Y-4.938
X5.056Y-3.676
X5.062Y-4.748
X5.096Y-4.092
X5.124Y-4.812
X5.142Y-4.284
X5.196Y-4.316
X5.358Y-3.712
X5.438Y-4.504
X5.452Y-4.812
X5.528Y-4.498
X5.584Y-4.496
X5.604Y-4.114
X5.646Y-4.498
X5.664Y-4.398
X5.684Y-3.986
X5.814Y-4.516
X6.09Y-4.746
T2
X4.64Y-3.988
X4.64Y-4.388
X5.036Y-4.61
X5.436Y-4.61
T3
X4.4562Y-3.214
X4.5562Y-3.214
X4.6562Y-3.214
X4.7562Y-3.214
X4.7596Y-4.626
X4.816Y-5.114
X4.8562Y-3.214
X4.858Y-4.626
X4.862Y-3.428
X4.916Y-5.114
X4.9562Y-3.214
X4.962Y-3.428
X5.016Y-5.114
X5.0562Y-3.214
X5.062Y-3.428
X5.116Y-5.114
X5.1562Y-3.214
X5.162Y-3.428
X5.216Y-5.114
X5.2562Y-3.214
X5.262Y-3.428
X5.316Y-5.114
X5.3562Y-3.214
X5.362Y-3.428
X5.416Y-5.114
X5.516Y-3.214
X5.516Y-3.432
X5.516Y-5.114
X5.616Y-3.214
X5.616Y-3.432
X5.622Y-4.654
X5.716Y-3.214
X5.716Y-3.432
X5.716Y-5.114
X5.7204Y-4.654
X5.816Y-3.214
X5.816Y-3.432
X5.816Y-5.114
X5.916Y-3.214
X5.916Y-3.432
X5.916Y-5.114
X6.016Y-3.214
X6.016Y-3.432
X6.016Y-5.114
X6.116Y-3.214
X6.116Y-3.432
X6.116Y-5.114
X6.216Y-3.214
X6.216Y-3.432
X6.216Y-5.114
T4
X4.437Y-3.5385
X4.542Y-3.541
X4.642Y-3.5385
X4.742Y-3.536
X4.842Y-3.536
X4.942Y-3.536
X5.042Y-3.536
X5.142Y-3.536
X5.242Y-3.536
X5.475Y-3.5405
X5.58Y-3.543
X5.68Y-3.5405
X5.78Y-3.538
X5.88Y-3.538
X5.98Y-3.538
X6.08Y-3.538
X6.18Y-3.538
X6.28Y-3.538
T5
X4.4445Y-2.8635
X5.2395Y-2.866
X5.4825Y-2.8655
X6.2775Y-2.868
T6
X6.266Y-4.608
X6.266Y-4.808
T0
M30
