%TF.GenerationSoftware,KiCad,Pcbnew,(5.1.10)-1*%
%TF.CreationDate,2021-06-07T20:05:56+02:00*%
%TF.ProjectId,AirFlow,41697246-6c6f-4772-9e6b-696361645f70,rev?*%
%TF.SameCoordinates,Original*%
%TF.FileFunction,Copper,L1,Top*%
%TF.FilePolarity,Positive*%
%FSLAX46Y46*%
G04 Gerber Fmt 4.6, Leading zero omitted, Abs format (unit mm)*
G04 Created by KiCad (PCBNEW (5.1.10)-1) date 2021-06-07 20:05:56*
%MOMM*%
%LPD*%
G01*
G04 APERTURE LIST*
%TA.AperFunction,NonConductor*%
%ADD10C,0.100000*%
%TD*%
%TA.AperFunction,ComponentPad*%
%ADD11O,1.600000X1.600000*%
%TD*%
%TA.AperFunction,ComponentPad*%
%ADD12R,1.600000X1.600000*%
%TD*%
%TA.AperFunction,ComponentPad*%
%ADD13R,3.000000X3.000000*%
%TD*%
%TA.AperFunction,ComponentPad*%
%ADD14C,3.000000*%
%TD*%
%TA.AperFunction,SMDPad,CuDef*%
%ADD15R,0.450000X0.600000*%
%TD*%
%TA.AperFunction,ComponentPad*%
%ADD16O,1.700000X2.000000*%
%TD*%
%TA.AperFunction,SMDPad,CuDef*%
%ADD17R,0.800000X0.900000*%
%TD*%
%TA.AperFunction,ComponentPad*%
%ADD18C,1.600000*%
%TD*%
%TA.AperFunction,SMDPad,CuDef*%
%ADD19R,0.600000X0.450000*%
%TD*%
%TA.AperFunction,SMDPad,CuDef*%
%ADD20C,1.500000*%
%TD*%
%TA.AperFunction,ComponentPad*%
%ADD21R,1.700000X1.700000*%
%TD*%
%TA.AperFunction,ComponentPad*%
%ADD22O,1.700000X1.700000*%
%TD*%
%TA.AperFunction,ComponentPad*%
%ADD23O,1.730000X2.030000*%
%TD*%
%TA.AperFunction,SMDPad,CuDef*%
%ADD24C,0.100000*%
%TD*%
%TA.AperFunction,ViaPad*%
%ADD25C,1.200000*%
%TD*%
%TA.AperFunction,ViaPad*%
%ADD26C,0.800000*%
%TD*%
%TA.AperFunction,Conductor*%
%ADD27C,0.250000*%
%TD*%
%TA.AperFunction,Conductor*%
%ADD28C,0.750000*%
%TD*%
%TA.AperFunction,Conductor*%
%ADD29C,1.500000*%
%TD*%
%TA.AperFunction,Conductor*%
%ADD30C,1.000000*%
%TD*%
%TA.AperFunction,Conductor*%
%ADD31C,0.500000*%
%TD*%
%TA.AperFunction,Conductor*%
%ADD32C,1.250000*%
%TD*%
%TA.AperFunction,Conductor*%
%ADD33C,2.000000*%
%TD*%
%TA.AperFunction,Conductor*%
%ADD34C,0.400000*%
%TD*%
G04 APERTURE END LIST*
D10*
X116394792Y-95402400D02*
G75*
G03*
X116394792Y-95402400I-113592J0D01*
G01*
D11*
%TO.P,A1,32*%
%TO.N,Net-(A1-Pad32)*%
X113186400Y-81635600D03*
%TO.P,A1,31*%
%TO.N,Net-(A1-Pad31)*%
X115726400Y-81635600D03*
D12*
%TO.P,A1,1*%
%TO.N,Net-(A1-Pad1)*%
X122326400Y-129895600D03*
D11*
%TO.P,A1,17*%
%TO.N,Net-(A1-Pad17)*%
X152806400Y-81635600D03*
%TO.P,A1,2*%
%TO.N,Net-(A1-Pad2)*%
X124866400Y-129895600D03*
%TO.P,A1,18*%
%TO.N,Net-(A1-Pad18)*%
X150266400Y-81635600D03*
%TO.P,A1,3*%
%TO.N,Net-(A1-Pad3)*%
X127406400Y-129895600D03*
%TO.P,A1,19*%
%TO.N,Net-(A1-Pad19)*%
X147726400Y-81635600D03*
%TO.P,A1,4*%
%TO.N,+3V3*%
X129946400Y-129895600D03*
%TO.P,A1,20*%
%TO.N,Net-(A1-Pad20)*%
X145186400Y-81635600D03*
%TO.P,A1,5*%
%TO.N,+5V*%
X132486400Y-129895600D03*
%TO.P,A1,21*%
%TO.N,Net-(A1-Pad21)*%
X142646400Y-81635600D03*
%TO.P,A1,6*%
%TO.N,GND*%
X135026400Y-129895600D03*
%TO.P,A1,22*%
%TO.N,Net-(A1-Pad22)*%
X140106400Y-81635600D03*
%TO.P,A1,7*%
%TO.N,GND*%
X137566400Y-129895600D03*
%TO.P,A1,23*%
%TO.N,Net-(A1-Pad23)*%
X136046400Y-81635600D03*
%TO.P,A1,8*%
%TO.N,Net-(A1-Pad8)*%
X140106400Y-129895600D03*
%TO.P,A1,24*%
%TO.N,Net-(A1-Pad24)*%
X133506400Y-81635600D03*
%TO.P,A1,9*%
%TO.N,Net-(A1-Pad9)*%
X145186400Y-129895600D03*
%TO.P,A1,25*%
%TO.N,Net-(A1-Pad25)*%
X130966400Y-81635600D03*
%TO.P,A1,10*%
%TO.N,Net-(A1-Pad10)*%
X147726400Y-129895600D03*
%TO.P,A1,26*%
%TO.N,Net-(A1-Pad26)*%
X128426400Y-81635600D03*
%TO.P,A1,11*%
%TO.N,Net-(A1-Pad11)*%
X150266400Y-129895600D03*
%TO.P,A1,27*%
%TO.N,Net-(A1-Pad27)*%
X125886400Y-81635600D03*
%TO.P,A1,12*%
%TO.N,Net-(A1-Pad12)*%
X152806400Y-129895600D03*
%TO.P,A1,28*%
%TO.N,Net-(A1-Pad28)*%
X123346400Y-81635600D03*
%TO.P,A1,13*%
%TO.N,Net-(A1-Pad13)*%
X155346400Y-129895600D03*
%TO.P,A1,29*%
%TO.N,GND*%
X120806400Y-81635600D03*
%TO.P,A1,14*%
%TO.N,Net-(A1-Pad14)*%
X157886400Y-129895600D03*
%TO.P,A1,30*%
%TO.N,Net-(A1-Pad30)*%
X118266400Y-81635600D03*
%TO.P,A1,15*%
%TO.N,Net-(A1-Pad15)*%
X157886400Y-81635600D03*
%TO.P,A1,16*%
%TO.N,Net-(A1-Pad16)*%
X155346400Y-81635600D03*
%TD*%
D13*
%TO.P,J1,1*%
%TO.N,+12V*%
X159156400Y-122123200D03*
D14*
%TO.P,J1,2*%
%TO.N,GND*%
X159156400Y-117043200D03*
%TD*%
%TO.P,U1,1*%
%TO.N,Net-(R2-Pad1)*%
%TA.AperFunction,SMDPad,CuDef*%
G36*
G01*
X130408000Y-99718000D02*
X130408000Y-99418000D01*
G75*
G02*
X130558000Y-99268000I150000J0D01*
G01*
X132208000Y-99268000D01*
G75*
G02*
X132358000Y-99418000I0J-150000D01*
G01*
X132358000Y-99718000D01*
G75*
G02*
X132208000Y-99868000I-150000J0D01*
G01*
X130558000Y-99868000D01*
G75*
G02*
X130408000Y-99718000I0J150000D01*
G01*
G37*
%TD.AperFunction*%
%TO.P,U1,2*%
%TO.N,Net-(Q1-Pad2)*%
%TA.AperFunction,SMDPad,CuDef*%
G36*
G01*
X130408000Y-100988000D02*
X130408000Y-100688000D01*
G75*
G02*
X130558000Y-100538000I150000J0D01*
G01*
X132208000Y-100538000D01*
G75*
G02*
X132358000Y-100688000I0J-150000D01*
G01*
X132358000Y-100988000D01*
G75*
G02*
X132208000Y-101138000I-150000J0D01*
G01*
X130558000Y-101138000D01*
G75*
G02*
X130408000Y-100988000I0J150000D01*
G01*
G37*
%TD.AperFunction*%
%TO.P,U1,3*%
%TO.N,Net-(R1-Pad1)*%
%TA.AperFunction,SMDPad,CuDef*%
G36*
G01*
X130408000Y-102258000D02*
X130408000Y-101958000D01*
G75*
G02*
X130558000Y-101808000I150000J0D01*
G01*
X132208000Y-101808000D01*
G75*
G02*
X132358000Y-101958000I0J-150000D01*
G01*
X132358000Y-102258000D01*
G75*
G02*
X132208000Y-102408000I-150000J0D01*
G01*
X130558000Y-102408000D01*
G75*
G02*
X130408000Y-102258000I0J150000D01*
G01*
G37*
%TD.AperFunction*%
%TO.P,U1,4*%
%TO.N,+5V*%
%TA.AperFunction,SMDPad,CuDef*%
G36*
G01*
X130408000Y-103528000D02*
X130408000Y-103228000D01*
G75*
G02*
X130558000Y-103078000I150000J0D01*
G01*
X132208000Y-103078000D01*
G75*
G02*
X132358000Y-103228000I0J-150000D01*
G01*
X132358000Y-103528000D01*
G75*
G02*
X132208000Y-103678000I-150000J0D01*
G01*
X130558000Y-103678000D01*
G75*
G02*
X130408000Y-103528000I0J150000D01*
G01*
G37*
%TD.AperFunction*%
%TO.P,U1,5*%
%TO.N,Net-(C1-Pad1)*%
%TA.AperFunction,SMDPad,CuDef*%
G36*
G01*
X130408000Y-104798000D02*
X130408000Y-104498000D01*
G75*
G02*
X130558000Y-104348000I150000J0D01*
G01*
X132208000Y-104348000D01*
G75*
G02*
X132358000Y-104498000I0J-150000D01*
G01*
X132358000Y-104798000D01*
G75*
G02*
X132208000Y-104948000I-150000J0D01*
G01*
X130558000Y-104948000D01*
G75*
G02*
X130408000Y-104798000I0J150000D01*
G01*
G37*
%TD.AperFunction*%
%TO.P,U1,6*%
%TO.N,Net-(C1-Pad2)*%
%TA.AperFunction,SMDPad,CuDef*%
G36*
G01*
X130408000Y-106068000D02*
X130408000Y-105768000D01*
G75*
G02*
X130558000Y-105618000I150000J0D01*
G01*
X132208000Y-105618000D01*
G75*
G02*
X132358000Y-105768000I0J-150000D01*
G01*
X132358000Y-106068000D01*
G75*
G02*
X132208000Y-106218000I-150000J0D01*
G01*
X130558000Y-106218000D01*
G75*
G02*
X130408000Y-106068000I0J150000D01*
G01*
G37*
%TD.AperFunction*%
%TO.P,U1,7*%
%TO.N,Net-(R5-Pad2)*%
%TA.AperFunction,SMDPad,CuDef*%
G36*
G01*
X130408000Y-107338000D02*
X130408000Y-107038000D01*
G75*
G02*
X130558000Y-106888000I150000J0D01*
G01*
X132208000Y-106888000D01*
G75*
G02*
X132358000Y-107038000I0J-150000D01*
G01*
X132358000Y-107338000D01*
G75*
G02*
X132208000Y-107488000I-150000J0D01*
G01*
X130558000Y-107488000D01*
G75*
G02*
X130408000Y-107338000I0J150000D01*
G01*
G37*
%TD.AperFunction*%
%TO.P,U1,8*%
%TO.N,Net-(R16-Pad1)*%
%TA.AperFunction,SMDPad,CuDef*%
G36*
G01*
X135358000Y-107338000D02*
X135358000Y-107038000D01*
G75*
G02*
X135508000Y-106888000I150000J0D01*
G01*
X137158000Y-106888000D01*
G75*
G02*
X137308000Y-107038000I0J-150000D01*
G01*
X137308000Y-107338000D01*
G75*
G02*
X137158000Y-107488000I-150000J0D01*
G01*
X135508000Y-107488000D01*
G75*
G02*
X135358000Y-107338000I0J150000D01*
G01*
G37*
%TD.AperFunction*%
%TO.P,U1,9*%
%TO.N,Net-(Q2-Pad2)*%
%TA.AperFunction,SMDPad,CuDef*%
G36*
G01*
X135358000Y-106068000D02*
X135358000Y-105768000D01*
G75*
G02*
X135508000Y-105618000I150000J0D01*
G01*
X137158000Y-105618000D01*
G75*
G02*
X137308000Y-105768000I0J-150000D01*
G01*
X137308000Y-106068000D01*
G75*
G02*
X137158000Y-106218000I-150000J0D01*
G01*
X135508000Y-106218000D01*
G75*
G02*
X135358000Y-106068000I0J150000D01*
G01*
G37*
%TD.AperFunction*%
%TO.P,U1,10*%
%TO.N,Net-(R15-Pad1)*%
%TA.AperFunction,SMDPad,CuDef*%
G36*
G01*
X135358000Y-104798000D02*
X135358000Y-104498000D01*
G75*
G02*
X135508000Y-104348000I150000J0D01*
G01*
X137158000Y-104348000D01*
G75*
G02*
X137308000Y-104498000I0J-150000D01*
G01*
X137308000Y-104798000D01*
G75*
G02*
X137158000Y-104948000I-150000J0D01*
G01*
X135508000Y-104948000D01*
G75*
G02*
X135358000Y-104798000I0J150000D01*
G01*
G37*
%TD.AperFunction*%
%TO.P,U1,11*%
%TO.N,GND*%
%TA.AperFunction,SMDPad,CuDef*%
G36*
G01*
X135358000Y-103528000D02*
X135358000Y-103228000D01*
G75*
G02*
X135508000Y-103078000I150000J0D01*
G01*
X137158000Y-103078000D01*
G75*
G02*
X137308000Y-103228000I0J-150000D01*
G01*
X137308000Y-103528000D01*
G75*
G02*
X137158000Y-103678000I-150000J0D01*
G01*
X135508000Y-103678000D01*
G75*
G02*
X135358000Y-103528000I0J150000D01*
G01*
G37*
%TD.AperFunction*%
%TO.P,U1,12*%
%TO.N,Net-(C2-Pad1)*%
%TA.AperFunction,SMDPad,CuDef*%
G36*
G01*
X135358000Y-102258000D02*
X135358000Y-101958000D01*
G75*
G02*
X135508000Y-101808000I150000J0D01*
G01*
X137158000Y-101808000D01*
G75*
G02*
X137308000Y-101958000I0J-150000D01*
G01*
X137308000Y-102258000D01*
G75*
G02*
X137158000Y-102408000I-150000J0D01*
G01*
X135508000Y-102408000D01*
G75*
G02*
X135358000Y-102258000I0J150000D01*
G01*
G37*
%TD.AperFunction*%
%TO.P,U1,13*%
%TO.N,Net-(C2-Pad2)*%
%TA.AperFunction,SMDPad,CuDef*%
G36*
G01*
X135358000Y-100988000D02*
X135358000Y-100688000D01*
G75*
G02*
X135508000Y-100538000I150000J0D01*
G01*
X137158000Y-100538000D01*
G75*
G02*
X137308000Y-100688000I0J-150000D01*
G01*
X137308000Y-100988000D01*
G75*
G02*
X137158000Y-101138000I-150000J0D01*
G01*
X135508000Y-101138000D01*
G75*
G02*
X135358000Y-100988000I0J150000D01*
G01*
G37*
%TD.AperFunction*%
%TO.P,U1,14*%
%TO.N,Net-(R19-Pad2)*%
%TA.AperFunction,SMDPad,CuDef*%
G36*
G01*
X135358000Y-99718000D02*
X135358000Y-99418000D01*
G75*
G02*
X135508000Y-99268000I150000J0D01*
G01*
X137158000Y-99268000D01*
G75*
G02*
X137308000Y-99418000I0J-150000D01*
G01*
X137308000Y-99718000D01*
G75*
G02*
X137158000Y-99868000I-150000J0D01*
G01*
X135508000Y-99868000D01*
G75*
G02*
X135358000Y-99718000I0J150000D01*
G01*
G37*
%TD.AperFunction*%
%TD*%
%TO.P,C3,1*%
%TO.N,+5V*%
%TA.AperFunction,SMDPad,CuDef*%
G36*
G01*
X129904000Y-111929000D02*
X129904000Y-110829000D01*
G75*
G02*
X130154000Y-110579000I250000J0D01*
G01*
X132654000Y-110579000D01*
G75*
G02*
X132904000Y-110829000I0J-250000D01*
G01*
X132904000Y-111929000D01*
G75*
G02*
X132654000Y-112179000I-250000J0D01*
G01*
X130154000Y-112179000D01*
G75*
G02*
X129904000Y-111929000I0J250000D01*
G01*
G37*
%TD.AperFunction*%
%TO.P,C3,2*%
%TO.N,GND*%
%TA.AperFunction,SMDPad,CuDef*%
G36*
G01*
X134304000Y-111929000D02*
X134304000Y-110829000D01*
G75*
G02*
X134554000Y-110579000I250000J0D01*
G01*
X137054000Y-110579000D01*
G75*
G02*
X137304000Y-110829000I0J-250000D01*
G01*
X137304000Y-111929000D01*
G75*
G02*
X137054000Y-112179000I-250000J0D01*
G01*
X134554000Y-112179000D01*
G75*
G02*
X134304000Y-111929000I0J250000D01*
G01*
G37*
%TD.AperFunction*%
%TD*%
%TO.P,C1,1*%
%TO.N,Net-(C1-Pad1)*%
%TA.AperFunction,SMDPad,CuDef*%
G36*
G01*
X124543800Y-104851800D02*
X125493800Y-104851800D01*
G75*
G02*
X125743800Y-105101800I0J-250000D01*
G01*
X125743800Y-105776800D01*
G75*
G02*
X125493800Y-106026800I-250000J0D01*
G01*
X124543800Y-106026800D01*
G75*
G02*
X124293800Y-105776800I0J250000D01*
G01*
X124293800Y-105101800D01*
G75*
G02*
X124543800Y-104851800I250000J0D01*
G01*
G37*
%TD.AperFunction*%
%TO.P,C1,2*%
%TO.N,Net-(C1-Pad2)*%
%TA.AperFunction,SMDPad,CuDef*%
G36*
G01*
X124543800Y-106926800D02*
X125493800Y-106926800D01*
G75*
G02*
X125743800Y-107176800I0J-250000D01*
G01*
X125743800Y-107851800D01*
G75*
G02*
X125493800Y-108101800I-250000J0D01*
G01*
X124543800Y-108101800D01*
G75*
G02*
X124293800Y-107851800I0J250000D01*
G01*
X124293800Y-107176800D01*
G75*
G02*
X124543800Y-106926800I250000J0D01*
G01*
G37*
%TD.AperFunction*%
%TD*%
%TO.P,C2,2*%
%TO.N,Net-(C2-Pad2)*%
%TA.AperFunction,SMDPad,CuDef*%
G36*
G01*
X140810400Y-100805000D02*
X140810400Y-99855000D01*
G75*
G02*
X141060400Y-99605000I250000J0D01*
G01*
X141735400Y-99605000D01*
G75*
G02*
X141985400Y-99855000I0J-250000D01*
G01*
X141985400Y-100805000D01*
G75*
G02*
X141735400Y-101055000I-250000J0D01*
G01*
X141060400Y-101055000D01*
G75*
G02*
X140810400Y-100805000I0J250000D01*
G01*
G37*
%TD.AperFunction*%
%TO.P,C2,1*%
%TO.N,Net-(C2-Pad1)*%
%TA.AperFunction,SMDPad,CuDef*%
G36*
G01*
X138735400Y-100805000D02*
X138735400Y-99855000D01*
G75*
G02*
X138985400Y-99605000I250000J0D01*
G01*
X139660400Y-99605000D01*
G75*
G02*
X139910400Y-99855000I0J-250000D01*
G01*
X139910400Y-100805000D01*
G75*
G02*
X139660400Y-101055000I-250000J0D01*
G01*
X138985400Y-101055000D01*
G75*
G02*
X138735400Y-100805000I0J250000D01*
G01*
G37*
%TD.AperFunction*%
%TD*%
%TO.P,C4,1*%
%TO.N,+5V*%
%TA.AperFunction,SMDPad,CuDef*%
G36*
G01*
X127033000Y-101753000D02*
X127983000Y-101753000D01*
G75*
G02*
X128233000Y-102003000I0J-250000D01*
G01*
X128233000Y-102678000D01*
G75*
G02*
X127983000Y-102928000I-250000J0D01*
G01*
X127033000Y-102928000D01*
G75*
G02*
X126783000Y-102678000I0J250000D01*
G01*
X126783000Y-102003000D01*
G75*
G02*
X127033000Y-101753000I250000J0D01*
G01*
G37*
%TD.AperFunction*%
%TO.P,C4,2*%
%TO.N,GND*%
%TA.AperFunction,SMDPad,CuDef*%
G36*
G01*
X127033000Y-103828000D02*
X127983000Y-103828000D01*
G75*
G02*
X128233000Y-104078000I0J-250000D01*
G01*
X128233000Y-104753000D01*
G75*
G02*
X127983000Y-105003000I-250000J0D01*
G01*
X127033000Y-105003000D01*
G75*
G02*
X126783000Y-104753000I0J250000D01*
G01*
X126783000Y-104078000D01*
G75*
G02*
X127033000Y-103828000I250000J0D01*
G01*
G37*
%TD.AperFunction*%
%TD*%
D15*
%TO.P,D2,2*%
%TO.N,Out1*%
X150164800Y-119312400D03*
%TO.P,D2,1*%
%TO.N,+3V3*%
X150164800Y-117212400D03*
%TD*%
%TO.P,D4,1*%
%TO.N,+3V3*%
X150012400Y-115451600D03*
%TO.P,D4,2*%
%TO.N,Out2*%
X150012400Y-113351600D03*
%TD*%
%TO.P,Jntc1,1*%
%TO.N,Net-(Jntc1-Pad1)*%
%TA.AperFunction,ComponentPad*%
G36*
G01*
X120043200Y-118250400D02*
X120043200Y-116750400D01*
G75*
G02*
X120293200Y-116500400I250000J0D01*
G01*
X121493200Y-116500400D01*
G75*
G02*
X121743200Y-116750400I0J-250000D01*
G01*
X121743200Y-118250400D01*
G75*
G02*
X121493200Y-118500400I-250000J0D01*
G01*
X120293200Y-118500400D01*
G75*
G02*
X120043200Y-118250400I0J250000D01*
G01*
G37*
%TD.AperFunction*%
D16*
%TO.P,Jntc1,2*%
%TO.N,+12V*%
X123393200Y-117500400D03*
%TD*%
%TO.P,Jntc2,2*%
%TO.N,+12V*%
X145298800Y-118211600D03*
%TO.P,Jntc2,1*%
%TO.N,Net-(Jntc2-Pad1)*%
%TA.AperFunction,ComponentPad*%
G36*
G01*
X141948800Y-118961600D02*
X141948800Y-117461600D01*
G75*
G02*
X142198800Y-117211600I250000J0D01*
G01*
X143398800Y-117211600D01*
G75*
G02*
X143648800Y-117461600I0J-250000D01*
G01*
X143648800Y-118961600D01*
G75*
G02*
X143398800Y-119211600I-250000J0D01*
G01*
X142198800Y-119211600D01*
G75*
G02*
X141948800Y-118961600I0J250000D01*
G01*
G37*
%TD.AperFunction*%
%TD*%
D17*
%TO.P,Q1,3*%
%TO.N,Net-(Jntc1-Pad1)*%
X125920500Y-93297500D03*
%TO.P,Q1,2*%
%TO.N,Net-(Q1-Pad2)*%
X126870500Y-95297500D03*
%TO.P,Q1,1*%
%TO.N,Net-(Q1-Pad1)*%
X124970500Y-95297500D03*
%TD*%
%TO.P,Q2,1*%
%TO.N,Net-(Q2-Pad1)*%
X141983500Y-110950500D03*
%TO.P,Q2,2*%
%TO.N,Net-(Q2-Pad2)*%
X140083500Y-110950500D03*
%TO.P,Q2,3*%
%TO.N,Net-(Jntc2-Pad1)*%
X141033500Y-112950500D03*
%TD*%
%TO.P,R1,1*%
%TO.N,Net-(R1-Pad1)*%
%TA.AperFunction,SMDPad,CuDef*%
G36*
G01*
X123876000Y-99103601D02*
X123876000Y-98203599D01*
G75*
G02*
X124125999Y-97953600I249999J0D01*
G01*
X124826001Y-97953600D01*
G75*
G02*
X125076000Y-98203599I0J-249999D01*
G01*
X125076000Y-99103601D01*
G75*
G02*
X124826001Y-99353600I-249999J0D01*
G01*
X124125999Y-99353600D01*
G75*
G02*
X123876000Y-99103601I0J249999D01*
G01*
G37*
%TD.AperFunction*%
%TO.P,R1,2*%
%TO.N,GND*%
%TA.AperFunction,SMDPad,CuDef*%
G36*
G01*
X125876000Y-99103601D02*
X125876000Y-98203599D01*
G75*
G02*
X126125999Y-97953600I249999J0D01*
G01*
X126826001Y-97953600D01*
G75*
G02*
X127076000Y-98203599I0J-249999D01*
G01*
X127076000Y-99103601D01*
G75*
G02*
X126826001Y-99353600I-249999J0D01*
G01*
X126125999Y-99353600D01*
G75*
G02*
X125876000Y-99103601I0J249999D01*
G01*
G37*
%TD.AperFunction*%
%TD*%
%TO.P,R2,1*%
%TO.N,Net-(R2-Pad1)*%
%TA.AperFunction,SMDPad,CuDef*%
G36*
G01*
X130752001Y-98120000D02*
X129851999Y-98120000D01*
G75*
G02*
X129602000Y-97870001I0J249999D01*
G01*
X129602000Y-97169999D01*
G75*
G02*
X129851999Y-96920000I249999J0D01*
G01*
X130752001Y-96920000D01*
G75*
G02*
X131002000Y-97169999I0J-249999D01*
G01*
X131002000Y-97870001D01*
G75*
G02*
X130752001Y-98120000I-249999J0D01*
G01*
G37*
%TD.AperFunction*%
%TO.P,R2,2*%
%TO.N,Net-(Q1-Pad1)*%
%TA.AperFunction,SMDPad,CuDef*%
G36*
G01*
X130752001Y-96120000D02*
X129851999Y-96120000D01*
G75*
G02*
X129602000Y-95870001I0J249999D01*
G01*
X129602000Y-95169999D01*
G75*
G02*
X129851999Y-94920000I249999J0D01*
G01*
X130752001Y-94920000D01*
G75*
G02*
X131002000Y-95169999I0J-249999D01*
G01*
X131002000Y-95870001D01*
G75*
G02*
X130752001Y-96120000I-249999J0D01*
G01*
G37*
%TD.AperFunction*%
%TD*%
D11*
%TO.P,R3,2*%
%TO.N,GND*%
X117856000Y-111455200D03*
D18*
%TO.P,R3,1*%
%TO.N,Net-(Q1-Pad2)*%
X117856000Y-101295200D03*
%TD*%
%TO.P,R4,2*%
%TO.N,Net-(R1-Pad1)*%
%TA.AperFunction,SMDPad,CuDef*%
G36*
G01*
X125214801Y-101200000D02*
X124314799Y-101200000D01*
G75*
G02*
X124064800Y-100950001I0J249999D01*
G01*
X124064800Y-100249999D01*
G75*
G02*
X124314799Y-100000000I249999J0D01*
G01*
X125214801Y-100000000D01*
G75*
G02*
X125464800Y-100249999I0J-249999D01*
G01*
X125464800Y-100950001D01*
G75*
G02*
X125214801Y-101200000I-249999J0D01*
G01*
G37*
%TD.AperFunction*%
%TO.P,R4,1*%
%TO.N,+5V*%
%TA.AperFunction,SMDPad,CuDef*%
G36*
G01*
X125214801Y-103200000D02*
X124314799Y-103200000D01*
G75*
G02*
X124064800Y-102950001I0J249999D01*
G01*
X124064800Y-102249999D01*
G75*
G02*
X124314799Y-102000000I249999J0D01*
G01*
X125214801Y-102000000D01*
G75*
G02*
X125464800Y-102249999I0J-249999D01*
G01*
X125464800Y-102950001D01*
G75*
G02*
X125214801Y-103200000I-249999J0D01*
G01*
G37*
%TD.AperFunction*%
%TD*%
%TO.P,R5,2*%
%TO.N,Net-(R5-Pad2)*%
%TA.AperFunction,SMDPad,CuDef*%
G36*
G01*
X127946999Y-108286500D02*
X128847001Y-108286500D01*
G75*
G02*
X129097000Y-108536499I0J-249999D01*
G01*
X129097000Y-109236501D01*
G75*
G02*
X128847001Y-109486500I-249999J0D01*
G01*
X127946999Y-109486500D01*
G75*
G02*
X127697000Y-109236501I0J249999D01*
G01*
X127697000Y-108536499D01*
G75*
G02*
X127946999Y-108286500I249999J0D01*
G01*
G37*
%TD.AperFunction*%
%TO.P,R5,1*%
%TO.N,Net-(C1-Pad2)*%
%TA.AperFunction,SMDPad,CuDef*%
G36*
G01*
X127946999Y-106286500D02*
X128847001Y-106286500D01*
G75*
G02*
X129097000Y-106536499I0J-249999D01*
G01*
X129097000Y-107236501D01*
G75*
G02*
X128847001Y-107486500I-249999J0D01*
G01*
X127946999Y-107486500D01*
G75*
G02*
X127697000Y-107236501I0J249999D01*
G01*
X127697000Y-106536499D01*
G75*
G02*
X127946999Y-106286500I249999J0D01*
G01*
G37*
%TD.AperFunction*%
%TD*%
%TO.P,R6,1*%
%TO.N,Net-(R5-Pad2)*%
%TA.AperFunction,SMDPad,CuDef*%
G36*
G01*
X127565999Y-111277600D02*
X128466001Y-111277600D01*
G75*
G02*
X128716000Y-111527599I0J-249999D01*
G01*
X128716000Y-112227601D01*
G75*
G02*
X128466001Y-112477600I-249999J0D01*
G01*
X127565999Y-112477600D01*
G75*
G02*
X127316000Y-112227601I0J249999D01*
G01*
X127316000Y-111527599D01*
G75*
G02*
X127565999Y-111277600I249999J0D01*
G01*
G37*
%TD.AperFunction*%
%TO.P,R6,2*%
%TO.N,Out1*%
%TA.AperFunction,SMDPad,CuDef*%
G36*
G01*
X127565999Y-113277600D02*
X128466001Y-113277600D01*
G75*
G02*
X128716000Y-113527599I0J-249999D01*
G01*
X128716000Y-114227601D01*
G75*
G02*
X128466001Y-114477600I-249999J0D01*
G01*
X127565999Y-114477600D01*
G75*
G02*
X127316000Y-114227601I0J249999D01*
G01*
X127316000Y-113527599D01*
G75*
G02*
X127565999Y-113277600I249999J0D01*
G01*
G37*
%TD.AperFunction*%
%TD*%
%TO.P,R7,1*%
%TO.N,Net-(C1-Pad1)*%
%TA.AperFunction,SMDPad,CuDef*%
G36*
G01*
X131816800Y-96462001D02*
X131816800Y-95561999D01*
G75*
G02*
X132066799Y-95312000I249999J0D01*
G01*
X132766801Y-95312000D01*
G75*
G02*
X133016800Y-95561999I0J-249999D01*
G01*
X133016800Y-96462001D01*
G75*
G02*
X132766801Y-96712000I-249999J0D01*
G01*
X132066799Y-96712000D01*
G75*
G02*
X131816800Y-96462001I0J249999D01*
G01*
G37*
%TD.AperFunction*%
%TO.P,R7,2*%
%TO.N,GND*%
%TA.AperFunction,SMDPad,CuDef*%
G36*
G01*
X133816800Y-96462001D02*
X133816800Y-95561999D01*
G75*
G02*
X134066799Y-95312000I249999J0D01*
G01*
X134766801Y-95312000D01*
G75*
G02*
X135016800Y-95561999I0J-249999D01*
G01*
X135016800Y-96462001D01*
G75*
G02*
X134766801Y-96712000I-249999J0D01*
G01*
X134066799Y-96712000D01*
G75*
G02*
X133816800Y-96462001I0J249999D01*
G01*
G37*
%TD.AperFunction*%
%TD*%
%TO.P,R8,1*%
%TO.N,Net-(Jntc1-Pad1)*%
%TA.AperFunction,SMDPad,CuDef*%
G36*
G01*
X125799001Y-112217000D02*
X124898999Y-112217000D01*
G75*
G02*
X124649000Y-111967001I0J249999D01*
G01*
X124649000Y-111266999D01*
G75*
G02*
X124898999Y-111017000I249999J0D01*
G01*
X125799001Y-111017000D01*
G75*
G02*
X126049000Y-111266999I0J-249999D01*
G01*
X126049000Y-111967001D01*
G75*
G02*
X125799001Y-112217000I-249999J0D01*
G01*
G37*
%TD.AperFunction*%
%TO.P,R8,2*%
%TO.N,Net-(C1-Pad2)*%
%TA.AperFunction,SMDPad,CuDef*%
G36*
G01*
X125799001Y-110217000D02*
X124898999Y-110217000D01*
G75*
G02*
X124649000Y-109967001I0J249999D01*
G01*
X124649000Y-109266999D01*
G75*
G02*
X124898999Y-109017000I249999J0D01*
G01*
X125799001Y-109017000D01*
G75*
G02*
X126049000Y-109266999I0J-249999D01*
G01*
X126049000Y-109967001D01*
G75*
G02*
X125799001Y-110217000I-249999J0D01*
G01*
G37*
%TD.AperFunction*%
%TD*%
%TO.P,R9,2*%
%TO.N,Net-(C1-Pad1)*%
%TA.AperFunction,SMDPad,CuDef*%
G36*
G01*
X122776401Y-106280000D02*
X121876399Y-106280000D01*
G75*
G02*
X121626400Y-106030001I0J249999D01*
G01*
X121626400Y-105329999D01*
G75*
G02*
X121876399Y-105080000I249999J0D01*
G01*
X122776401Y-105080000D01*
G75*
G02*
X123026400Y-105329999I0J-249999D01*
G01*
X123026400Y-106030001D01*
G75*
G02*
X122776401Y-106280000I-249999J0D01*
G01*
G37*
%TD.AperFunction*%
%TO.P,R9,1*%
%TO.N,+12V*%
%TA.AperFunction,SMDPad,CuDef*%
G36*
G01*
X122776401Y-108280000D02*
X121876399Y-108280000D01*
G75*
G02*
X121626400Y-108030001I0J249999D01*
G01*
X121626400Y-107329999D01*
G75*
G02*
X121876399Y-107080000I249999J0D01*
G01*
X122776401Y-107080000D01*
G75*
G02*
X123026400Y-107329999I0J-249999D01*
G01*
X123026400Y-108030001D01*
G75*
G02*
X122776401Y-108280000I-249999J0D01*
G01*
G37*
%TD.AperFunction*%
%TD*%
%TO.P,R15,2*%
%TO.N,GND*%
%TA.AperFunction,SMDPad,CuDef*%
G36*
G01*
X140303200Y-106266401D02*
X140303200Y-105366399D01*
G75*
G02*
X140553199Y-105116400I249999J0D01*
G01*
X141253201Y-105116400D01*
G75*
G02*
X141503200Y-105366399I0J-249999D01*
G01*
X141503200Y-106266401D01*
G75*
G02*
X141253201Y-106516400I-249999J0D01*
G01*
X140553199Y-106516400D01*
G75*
G02*
X140303200Y-106266401I0J249999D01*
G01*
G37*
%TD.AperFunction*%
%TO.P,R15,1*%
%TO.N,Net-(R15-Pad1)*%
%TA.AperFunction,SMDPad,CuDef*%
G36*
G01*
X138303200Y-106266401D02*
X138303200Y-105366399D01*
G75*
G02*
X138553199Y-105116400I249999J0D01*
G01*
X139253201Y-105116400D01*
G75*
G02*
X139503200Y-105366399I0J-249999D01*
G01*
X139503200Y-106266401D01*
G75*
G02*
X139253201Y-106516400I-249999J0D01*
G01*
X138553199Y-106516400D01*
G75*
G02*
X138303200Y-106266401I0J249999D01*
G01*
G37*
%TD.AperFunction*%
%TD*%
%TO.P,R16,2*%
%TO.N,Net-(Q2-Pad1)*%
%TA.AperFunction,SMDPad,CuDef*%
G36*
G01*
X141370000Y-109060401D02*
X141370000Y-108160399D01*
G75*
G02*
X141619999Y-107910400I249999J0D01*
G01*
X142320001Y-107910400D01*
G75*
G02*
X142570000Y-108160399I0J-249999D01*
G01*
X142570000Y-109060401D01*
G75*
G02*
X142320001Y-109310400I-249999J0D01*
G01*
X141619999Y-109310400D01*
G75*
G02*
X141370000Y-109060401I0J249999D01*
G01*
G37*
%TD.AperFunction*%
%TO.P,R16,1*%
%TO.N,Net-(R16-Pad1)*%
%TA.AperFunction,SMDPad,CuDef*%
G36*
G01*
X139370000Y-109060401D02*
X139370000Y-108160399D01*
G75*
G02*
X139619999Y-107910400I249999J0D01*
G01*
X140320001Y-107910400D01*
G75*
G02*
X140570000Y-108160399I0J-249999D01*
G01*
X140570000Y-109060401D01*
G75*
G02*
X140320001Y-109310400I-249999J0D01*
G01*
X139619999Y-109310400D01*
G75*
G02*
X139370000Y-109060401I0J249999D01*
G01*
G37*
%TD.AperFunction*%
%TD*%
%TO.P,R17,1*%
%TO.N,Net-(Q2-Pad2)*%
X138074400Y-117094000D03*
D11*
%TO.P,R17,2*%
%TO.N,GND*%
X127914400Y-117094000D03*
%TD*%
%TO.P,R18,1*%
%TO.N,+5V*%
%TA.AperFunction,SMDPad,CuDef*%
G36*
G01*
X144228399Y-102200400D02*
X145128401Y-102200400D01*
G75*
G02*
X145378400Y-102450399I0J-249999D01*
G01*
X145378400Y-103150401D01*
G75*
G02*
X145128401Y-103400400I-249999J0D01*
G01*
X144228399Y-103400400D01*
G75*
G02*
X143978400Y-103150401I0J249999D01*
G01*
X143978400Y-102450399D01*
G75*
G02*
X144228399Y-102200400I249999J0D01*
G01*
G37*
%TD.AperFunction*%
%TO.P,R18,2*%
%TO.N,Net-(R15-Pad1)*%
%TA.AperFunction,SMDPad,CuDef*%
G36*
G01*
X144228399Y-104200400D02*
X145128401Y-104200400D01*
G75*
G02*
X145378400Y-104450399I0J-249999D01*
G01*
X145378400Y-105150401D01*
G75*
G02*
X145128401Y-105400400I-249999J0D01*
G01*
X144228399Y-105400400D01*
G75*
G02*
X143978400Y-105150401I0J249999D01*
G01*
X143978400Y-104450399D01*
G75*
G02*
X144228399Y-104200400I249999J0D01*
G01*
G37*
%TD.AperFunction*%
%TD*%
%TO.P,R19,1*%
%TO.N,Net-(C2-Pad2)*%
%TA.AperFunction,SMDPad,CuDef*%
G36*
G01*
X139115600Y-97289199D02*
X139115600Y-98189201D01*
G75*
G02*
X138865601Y-98439200I-249999J0D01*
G01*
X138165599Y-98439200D01*
G75*
G02*
X137915600Y-98189201I0J249999D01*
G01*
X137915600Y-97289199D01*
G75*
G02*
X138165599Y-97039200I249999J0D01*
G01*
X138865601Y-97039200D01*
G75*
G02*
X139115600Y-97289199I0J-249999D01*
G01*
G37*
%TD.AperFunction*%
%TO.P,R19,2*%
%TO.N,Net-(R19-Pad2)*%
%TA.AperFunction,SMDPad,CuDef*%
G36*
G01*
X137115600Y-97289199D02*
X137115600Y-98189201D01*
G75*
G02*
X136865601Y-98439200I-249999J0D01*
G01*
X136165599Y-98439200D01*
G75*
G02*
X135915600Y-98189201I0J249999D01*
G01*
X135915600Y-97289199D01*
G75*
G02*
X136165599Y-97039200I249999J0D01*
G01*
X136865601Y-97039200D01*
G75*
G02*
X137115600Y-97289199I0J-249999D01*
G01*
G37*
%TD.AperFunction*%
%TD*%
%TO.P,R20,2*%
%TO.N,Out2*%
%TA.AperFunction,SMDPad,CuDef*%
G36*
G01*
X143030400Y-97935201D02*
X143030400Y-97035199D01*
G75*
G02*
X143280399Y-96785200I249999J0D01*
G01*
X143980401Y-96785200D01*
G75*
G02*
X144230400Y-97035199I0J-249999D01*
G01*
X144230400Y-97935201D01*
G75*
G02*
X143980401Y-98185200I-249999J0D01*
G01*
X143280399Y-98185200D01*
G75*
G02*
X143030400Y-97935201I0J249999D01*
G01*
G37*
%TD.AperFunction*%
%TO.P,R20,1*%
%TO.N,Net-(R19-Pad2)*%
%TA.AperFunction,SMDPad,CuDef*%
G36*
G01*
X141030400Y-97935201D02*
X141030400Y-97035199D01*
G75*
G02*
X141280399Y-96785200I249999J0D01*
G01*
X141980401Y-96785200D01*
G75*
G02*
X142230400Y-97035199I0J-249999D01*
G01*
X142230400Y-97935201D01*
G75*
G02*
X141980401Y-98185200I-249999J0D01*
G01*
X141280399Y-98185200D01*
G75*
G02*
X141030400Y-97935201I0J249999D01*
G01*
G37*
%TD.AperFunction*%
%TD*%
%TO.P,R21,2*%
%TO.N,GND*%
%TA.AperFunction,SMDPad,CuDef*%
G36*
G01*
X142030400Y-103269201D02*
X142030400Y-102369199D01*
G75*
G02*
X142280399Y-102119200I249999J0D01*
G01*
X142980401Y-102119200D01*
G75*
G02*
X143230400Y-102369199I0J-249999D01*
G01*
X143230400Y-103269201D01*
G75*
G02*
X142980401Y-103519200I-249999J0D01*
G01*
X142280399Y-103519200D01*
G75*
G02*
X142030400Y-103269201I0J249999D01*
G01*
G37*
%TD.AperFunction*%
%TO.P,R21,1*%
%TO.N,Net-(C2-Pad1)*%
%TA.AperFunction,SMDPad,CuDef*%
G36*
G01*
X140030400Y-103269201D02*
X140030400Y-102369199D01*
G75*
G02*
X140280399Y-102119200I249999J0D01*
G01*
X140980401Y-102119200D01*
G75*
G02*
X141230400Y-102369199I0J-249999D01*
G01*
X141230400Y-103269201D01*
G75*
G02*
X140980401Y-103519200I-249999J0D01*
G01*
X140280399Y-103519200D01*
G75*
G02*
X140030400Y-103269201I0J249999D01*
G01*
G37*
%TD.AperFunction*%
%TD*%
%TO.P,R22,2*%
%TO.N,Net-(C2-Pad2)*%
%TA.AperFunction,SMDPad,CuDef*%
G36*
G01*
X146364400Y-108755601D02*
X146364400Y-107855599D01*
G75*
G02*
X146614399Y-107605600I249999J0D01*
G01*
X147314401Y-107605600D01*
G75*
G02*
X147564400Y-107855599I0J-249999D01*
G01*
X147564400Y-108755601D01*
G75*
G02*
X147314401Y-109005600I-249999J0D01*
G01*
X146614399Y-109005600D01*
G75*
G02*
X146364400Y-108755601I0J249999D01*
G01*
G37*
%TD.AperFunction*%
%TO.P,R22,1*%
%TO.N,Net-(Jntc2-Pad1)*%
%TA.AperFunction,SMDPad,CuDef*%
G36*
G01*
X144364400Y-108755601D02*
X144364400Y-107855599D01*
G75*
G02*
X144614399Y-107605600I249999J0D01*
G01*
X145314401Y-107605600D01*
G75*
G02*
X145564400Y-107855599I0J-249999D01*
G01*
X145564400Y-108755601D01*
G75*
G02*
X145314401Y-109005600I-249999J0D01*
G01*
X144614399Y-109005600D01*
G75*
G02*
X144364400Y-108755601I0J249999D01*
G01*
G37*
%TD.AperFunction*%
%TD*%
%TO.P,R23,1*%
%TO.N,+12V*%
%TA.AperFunction,SMDPad,CuDef*%
G36*
G01*
X143027200Y-93783999D02*
X143027200Y-94684001D01*
G75*
G02*
X142777201Y-94934000I-249999J0D01*
G01*
X142077199Y-94934000D01*
G75*
G02*
X141827200Y-94684001I0J249999D01*
G01*
X141827200Y-93783999D01*
G75*
G02*
X142077199Y-93534000I249999J0D01*
G01*
X142777201Y-93534000D01*
G75*
G02*
X143027200Y-93783999I0J-249999D01*
G01*
G37*
%TD.AperFunction*%
%TO.P,R23,2*%
%TO.N,Net-(C2-Pad1)*%
%TA.AperFunction,SMDPad,CuDef*%
G36*
G01*
X141027200Y-93783999D02*
X141027200Y-94684001D01*
G75*
G02*
X140777201Y-94934000I-249999J0D01*
G01*
X140077199Y-94934000D01*
G75*
G02*
X139827200Y-94684001I0J249999D01*
G01*
X139827200Y-93783999D01*
G75*
G02*
X140077199Y-93534000I249999J0D01*
G01*
X140777201Y-93534000D01*
G75*
G02*
X141027200Y-93783999I0J-249999D01*
G01*
G37*
%TD.AperFunction*%
%TD*%
%TO.P,Rntc2,1*%
%TO.N,+12V*%
%TA.AperFunction,SMDPad,CuDef*%
G36*
G01*
X144872400Y-112006801D02*
X144872400Y-111106799D01*
G75*
G02*
X145122399Y-110856800I249999J0D01*
G01*
X145822401Y-110856800D01*
G75*
G02*
X146072400Y-111106799I0J-249999D01*
G01*
X146072400Y-112006801D01*
G75*
G02*
X145822401Y-112256800I-249999J0D01*
G01*
X145122399Y-112256800D01*
G75*
G02*
X144872400Y-112006801I0J249999D01*
G01*
G37*
%TD.AperFunction*%
%TO.P,Rntc2,2*%
%TO.N,Net-(Jntc2-Pad1)*%
%TA.AperFunction,SMDPad,CuDef*%
G36*
G01*
X146872400Y-112006801D02*
X146872400Y-111106799D01*
G75*
G02*
X147122399Y-110856800I249999J0D01*
G01*
X147822401Y-110856800D01*
G75*
G02*
X148072400Y-111106799I0J-249999D01*
G01*
X148072400Y-112006801D01*
G75*
G02*
X147822401Y-112256800I-249999J0D01*
G01*
X147122399Y-112256800D01*
G75*
G02*
X146872400Y-112006801I0J249999D01*
G01*
G37*
%TD.AperFunction*%
%TD*%
D19*
%TO.P,D1,2*%
%TO.N,Net-(C1-Pad1)*%
X131809200Y-93268800D03*
%TO.P,D1,1*%
%TO.N,+5V*%
X129709200Y-93268800D03*
%TD*%
D15*
%TO.P,D3,1*%
%TO.N,+5V*%
X137718800Y-93438000D03*
%TO.P,D3,2*%
%TO.N,Net-(C2-Pad1)*%
X137718800Y-95538000D03*
%TD*%
%TO.P,Rntc1,1*%
%TO.N,+12V*%
%TA.AperFunction,SMDPad,CuDef*%
G36*
G01*
X118405200Y-113595999D02*
X118405200Y-114496001D01*
G75*
G02*
X118155201Y-114746000I-249999J0D01*
G01*
X117455199Y-114746000D01*
G75*
G02*
X117205200Y-114496001I0J249999D01*
G01*
X117205200Y-113595999D01*
G75*
G02*
X117455199Y-113346000I249999J0D01*
G01*
X118155201Y-113346000D01*
G75*
G02*
X118405200Y-113595999I0J-249999D01*
G01*
G37*
%TD.AperFunction*%
%TO.P,Rntc1,2*%
%TO.N,Net-(Jntc1-Pad1)*%
%TA.AperFunction,SMDPad,CuDef*%
G36*
G01*
X116405200Y-113595999D02*
X116405200Y-114496001D01*
G75*
G02*
X116155201Y-114746000I-249999J0D01*
G01*
X115455199Y-114746000D01*
G75*
G02*
X115205200Y-114496001I0J249999D01*
G01*
X115205200Y-113595999D01*
G75*
G02*
X115455199Y-113346000I249999J0D01*
G01*
X116155201Y-113346000D01*
G75*
G02*
X116405200Y-113595999I0J-249999D01*
G01*
G37*
%TD.AperFunction*%
%TD*%
%TO.P,Led1,1*%
%TO.N,Net-(Led1-Pad1)*%
%TA.AperFunction,SMDPad,CuDef*%
G36*
G01*
X158692001Y-109388600D02*
X157791999Y-109388600D01*
G75*
G02*
X157542000Y-109138601I0J249999D01*
G01*
X157542000Y-108488599D01*
G75*
G02*
X157791999Y-108238600I249999J0D01*
G01*
X158692001Y-108238600D01*
G75*
G02*
X158942000Y-108488599I0J-249999D01*
G01*
X158942000Y-109138601D01*
G75*
G02*
X158692001Y-109388600I-249999J0D01*
G01*
G37*
%TD.AperFunction*%
%TO.P,Led1,2*%
%TO.N,+12V*%
%TA.AperFunction,SMDPad,CuDef*%
G36*
G01*
X158692001Y-107338600D02*
X157791999Y-107338600D01*
G75*
G02*
X157542000Y-107088601I0J249999D01*
G01*
X157542000Y-106438599D01*
G75*
G02*
X157791999Y-106188600I249999J0D01*
G01*
X158692001Y-106188600D01*
G75*
G02*
X158942000Y-106438599I0J-249999D01*
G01*
X158942000Y-107088601D01*
G75*
G02*
X158692001Y-107338600I-249999J0D01*
G01*
G37*
%TD.AperFunction*%
%TD*%
%TO.P,R24,1*%
%TO.N,Net-(Led1-Pad1)*%
%TA.AperFunction,SMDPad,CuDef*%
G36*
G01*
X152254799Y-106366000D02*
X153154801Y-106366000D01*
G75*
G02*
X153404800Y-106615999I0J-249999D01*
G01*
X153404800Y-107316001D01*
G75*
G02*
X153154801Y-107566000I-249999J0D01*
G01*
X152254799Y-107566000D01*
G75*
G02*
X152004800Y-107316001I0J249999D01*
G01*
X152004800Y-106615999D01*
G75*
G02*
X152254799Y-106366000I249999J0D01*
G01*
G37*
%TD.AperFunction*%
%TO.P,R24,2*%
%TO.N,GND*%
%TA.AperFunction,SMDPad,CuDef*%
G36*
G01*
X152254799Y-108366000D02*
X153154801Y-108366000D01*
G75*
G02*
X153404800Y-108615999I0J-249999D01*
G01*
X153404800Y-109316001D01*
G75*
G02*
X153154801Y-109566000I-249999J0D01*
G01*
X152254799Y-109566000D01*
G75*
G02*
X152004800Y-109316001I0J249999D01*
G01*
X152004800Y-108615999D01*
G75*
G02*
X152254799Y-108366000I249999J0D01*
G01*
G37*
%TD.AperFunction*%
%TD*%
D20*
%TO.P,TP1,1*%
%TO.N,Net-(Jntc1-Pad1)*%
X122224800Y-94843600D03*
%TD*%
%TO.P,TP2,1*%
%TO.N,Net-(Jntc2-Pad1)*%
X143764000Y-113030000D03*
%TD*%
D21*
%TO.P,J5,1*%
%TO.N,D7*%
X140106400Y-87172800D03*
D22*
%TO.P,J5,2*%
%TO.N,D6*%
X142646400Y-87172800D03*
%TO.P,J5,3*%
%TO.N,D5*%
X145186400Y-87172800D03*
%TO.P,J5,4*%
%TO.N,D4*%
X147726400Y-87172800D03*
%TO.P,J5,5*%
%TO.N,D3*%
X150266400Y-87172800D03*
%TO.P,J5,6*%
%TO.N,D2*%
X152806400Y-87172800D03*
%TO.P,J5,7*%
%TO.N,D1*%
X155346400Y-87172800D03*
%TO.P,J5,8*%
%TO.N,D0*%
X157886400Y-87172800D03*
%TD*%
D21*
%TO.P,J6,1*%
%TO.N,D13*%
X123494800Y-87071200D03*
D22*
%TO.P,J6,2*%
%TO.N,D12*%
X126034800Y-87071200D03*
%TO.P,J6,3*%
%TO.N,D11*%
X128574800Y-87071200D03*
%TO.P,J6,4*%
%TO.N,D10*%
X131114800Y-87071200D03*
%TO.P,J6,5*%
%TO.N,D9*%
X133654800Y-87071200D03*
%TO.P,J6,6*%
%TO.N,D8*%
X136194800Y-87071200D03*
%TD*%
D23*
%TO.P,U2,5*%
%TO.N,D12*%
X122986800Y-89814400D03*
%TO.P,U2,6*%
%TO.N,D13*%
X120446800Y-89814400D03*
%TO.P,U2,3*%
%TO.N,D10*%
X128066800Y-89814400D03*
%TO.P,U2,4*%
%TO.N,D11*%
X125526800Y-89814400D03*
%TO.P,U2,1*%
%TO.N,Net-(U2-Pad1)*%
X133146800Y-89814400D03*
%TO.P,U2,2*%
%TO.N,Net-(U2-Pad2)*%
X130606800Y-89814400D03*
D14*
%TO.P,U2,10*%
%TO.N,Net-(U2-Pad10)*%
X112890300Y-72732900D03*
%TO.P,U2,11*%
%TO.N,Net-(U2-Pad11)*%
X133083300Y-72796400D03*
D23*
%TO.P,U2,7*%
%TO.N,GND*%
X117906800Y-89877900D03*
%TO.P,U2,8*%
%TO.N,Net-(U2-Pad8)*%
X115366800Y-89941400D03*
%TO.P,U2,9*%
%TO.N,+5V*%
X112699800Y-89877900D03*
%TD*%
%TO.P,U3,5*%
%TO.N,D3*%
X149352000Y-89865200D03*
%TO.P,U3,6*%
%TO.N,D5*%
X146812000Y-89865200D03*
%TO.P,U3,3*%
%TO.N,D1*%
X154432000Y-89865200D03*
%TO.P,U3,4*%
%TO.N,D0*%
X151892000Y-89865200D03*
%TO.P,U3,1*%
%TO.N,Net-(U3-Pad1)*%
X159512000Y-89865200D03*
%TO.P,U3,2*%
%TO.N,Net-(U3-Pad2)*%
X156972000Y-89865200D03*
D14*
%TO.P,U3,10*%
%TO.N,Net-(U3-Pad10)*%
X139255500Y-72783700D03*
%TO.P,U3,11*%
%TO.N,Net-(U3-Pad11)*%
X159448500Y-72847200D03*
D23*
%TO.P,U3,7*%
%TO.N,GND*%
X144272000Y-89928700D03*
%TO.P,U3,8*%
%TO.N,Net-(U3-Pad8)*%
X141732000Y-89992200D03*
%TO.P,U3,9*%
%TO.N,+5V*%
X139065000Y-89928700D03*
%TD*%
%TA.AperFunction,SMDPad,CuDef*%
D24*
%TO.P,JPA5,1*%
%TO.N,Net-(A1-Pad14)*%
G36*
X159500000Y-127160400D02*
G01*
X159500000Y-127660400D01*
X159499398Y-127660400D01*
X159499398Y-127684934D01*
X159494588Y-127733765D01*
X159485016Y-127781890D01*
X159470772Y-127828845D01*
X159451995Y-127874178D01*
X159428864Y-127917451D01*
X159401604Y-127958250D01*
X159370476Y-127996179D01*
X159335779Y-128030876D01*
X159297850Y-128062004D01*
X159257051Y-128089264D01*
X159213778Y-128112395D01*
X159168445Y-128131172D01*
X159121490Y-128145416D01*
X159073365Y-128154988D01*
X159024534Y-128159798D01*
X159000000Y-128159798D01*
X159000000Y-128160400D01*
X158500000Y-128160400D01*
X158500000Y-128159798D01*
X158475466Y-128159798D01*
X158426635Y-128154988D01*
X158378510Y-128145416D01*
X158331555Y-128131172D01*
X158286222Y-128112395D01*
X158242949Y-128089264D01*
X158202150Y-128062004D01*
X158164221Y-128030876D01*
X158129524Y-127996179D01*
X158098396Y-127958250D01*
X158071136Y-127917451D01*
X158048005Y-127874178D01*
X158029228Y-127828845D01*
X158014984Y-127781890D01*
X158005412Y-127733765D01*
X158000602Y-127684934D01*
X158000602Y-127660400D01*
X158000000Y-127660400D01*
X158000000Y-127160400D01*
X159500000Y-127160400D01*
G37*
%TD.AperFunction*%
%TA.AperFunction,SMDPad,CuDef*%
%TO.P,JPA5,2*%
%TO.N,Out2*%
G36*
X158000602Y-126360400D02*
G01*
X158000602Y-126335866D01*
X158005412Y-126287035D01*
X158014984Y-126238910D01*
X158029228Y-126191955D01*
X158048005Y-126146622D01*
X158071136Y-126103349D01*
X158098396Y-126062550D01*
X158129524Y-126024621D01*
X158164221Y-125989924D01*
X158202150Y-125958796D01*
X158242949Y-125931536D01*
X158286222Y-125908405D01*
X158331555Y-125889628D01*
X158378510Y-125875384D01*
X158426635Y-125865812D01*
X158475466Y-125861002D01*
X158500000Y-125861002D01*
X158500000Y-125860400D01*
X159000000Y-125860400D01*
X159000000Y-125861002D01*
X159024534Y-125861002D01*
X159073365Y-125865812D01*
X159121490Y-125875384D01*
X159168445Y-125889628D01*
X159213778Y-125908405D01*
X159257051Y-125931536D01*
X159297850Y-125958796D01*
X159335779Y-125989924D01*
X159370476Y-126024621D01*
X159401604Y-126062550D01*
X159428864Y-126103349D01*
X159451995Y-126146622D01*
X159470772Y-126191955D01*
X159485016Y-126238910D01*
X159494588Y-126287035D01*
X159499398Y-126335866D01*
X159499398Y-126360400D01*
X159500000Y-126360400D01*
X159500000Y-126860400D01*
X158000000Y-126860400D01*
X158000000Y-126360400D01*
X158000602Y-126360400D01*
G37*
%TD.AperFunction*%
%TD*%
%TA.AperFunction,SMDPad,CuDef*%
%TO.P,JPA2,1*%
%TO.N,Net-(A1-Pad11)*%
G36*
X150051200Y-127200800D02*
G01*
X150051200Y-127700800D01*
X150050598Y-127700800D01*
X150050598Y-127725334D01*
X150045788Y-127774165D01*
X150036216Y-127822290D01*
X150021972Y-127869245D01*
X150003195Y-127914578D01*
X149980064Y-127957851D01*
X149952804Y-127998650D01*
X149921676Y-128036579D01*
X149886979Y-128071276D01*
X149849050Y-128102404D01*
X149808251Y-128129664D01*
X149764978Y-128152795D01*
X149719645Y-128171572D01*
X149672690Y-128185816D01*
X149624565Y-128195388D01*
X149575734Y-128200198D01*
X149551200Y-128200198D01*
X149551200Y-128200800D01*
X149051200Y-128200800D01*
X149051200Y-128200198D01*
X149026666Y-128200198D01*
X148977835Y-128195388D01*
X148929710Y-128185816D01*
X148882755Y-128171572D01*
X148837422Y-128152795D01*
X148794149Y-128129664D01*
X148753350Y-128102404D01*
X148715421Y-128071276D01*
X148680724Y-128036579D01*
X148649596Y-127998650D01*
X148622336Y-127957851D01*
X148599205Y-127914578D01*
X148580428Y-127869245D01*
X148566184Y-127822290D01*
X148556612Y-127774165D01*
X148551802Y-127725334D01*
X148551802Y-127700800D01*
X148551200Y-127700800D01*
X148551200Y-127200800D01*
X150051200Y-127200800D01*
G37*
%TD.AperFunction*%
%TA.AperFunction,SMDPad,CuDef*%
%TO.P,JPA2,2*%
%TO.N,Out1*%
G36*
X148551802Y-126400800D02*
G01*
X148551802Y-126376266D01*
X148556612Y-126327435D01*
X148566184Y-126279310D01*
X148580428Y-126232355D01*
X148599205Y-126187022D01*
X148622336Y-126143749D01*
X148649596Y-126102950D01*
X148680724Y-126065021D01*
X148715421Y-126030324D01*
X148753350Y-125999196D01*
X148794149Y-125971936D01*
X148837422Y-125948805D01*
X148882755Y-125930028D01*
X148929710Y-125915784D01*
X148977835Y-125906212D01*
X149026666Y-125901402D01*
X149051200Y-125901402D01*
X149051200Y-125900800D01*
X149551200Y-125900800D01*
X149551200Y-125901402D01*
X149575734Y-125901402D01*
X149624565Y-125906212D01*
X149672690Y-125915784D01*
X149719645Y-125930028D01*
X149764978Y-125948805D01*
X149808251Y-125971936D01*
X149849050Y-125999196D01*
X149886979Y-126030324D01*
X149921676Y-126065021D01*
X149952804Y-126102950D01*
X149980064Y-126143749D01*
X150003195Y-126187022D01*
X150021972Y-126232355D01*
X150036216Y-126279310D01*
X150045788Y-126327435D01*
X150050598Y-126376266D01*
X150050598Y-126400800D01*
X150051200Y-126400800D01*
X150051200Y-126900800D01*
X148551200Y-126900800D01*
X148551200Y-126400800D01*
X148551802Y-126400800D01*
G37*
%TD.AperFunction*%
%TD*%
%TA.AperFunction,SMDPad,CuDef*%
%TO.P,JPA3,2*%
%TO.N,Out1*%
G36*
X151701402Y-126360400D02*
G01*
X151701402Y-126335866D01*
X151706212Y-126287035D01*
X151715784Y-126238910D01*
X151730028Y-126191955D01*
X151748805Y-126146622D01*
X151771936Y-126103349D01*
X151799196Y-126062550D01*
X151830324Y-126024621D01*
X151865021Y-125989924D01*
X151902950Y-125958796D01*
X151943749Y-125931536D01*
X151987022Y-125908405D01*
X152032355Y-125889628D01*
X152079310Y-125875384D01*
X152127435Y-125865812D01*
X152176266Y-125861002D01*
X152200800Y-125861002D01*
X152200800Y-125860400D01*
X152700800Y-125860400D01*
X152700800Y-125861002D01*
X152725334Y-125861002D01*
X152774165Y-125865812D01*
X152822290Y-125875384D01*
X152869245Y-125889628D01*
X152914578Y-125908405D01*
X152957851Y-125931536D01*
X152998650Y-125958796D01*
X153036579Y-125989924D01*
X153071276Y-126024621D01*
X153102404Y-126062550D01*
X153129664Y-126103349D01*
X153152795Y-126146622D01*
X153171572Y-126191955D01*
X153185816Y-126238910D01*
X153195388Y-126287035D01*
X153200198Y-126335866D01*
X153200198Y-126360400D01*
X153200800Y-126360400D01*
X153200800Y-126860400D01*
X151700800Y-126860400D01*
X151700800Y-126360400D01*
X151701402Y-126360400D01*
G37*
%TD.AperFunction*%
%TA.AperFunction,SMDPad,CuDef*%
%TO.P,JPA3,1*%
%TO.N,Net-(A1-Pad12)*%
G36*
X153200800Y-127160400D02*
G01*
X153200800Y-127660400D01*
X153200198Y-127660400D01*
X153200198Y-127684934D01*
X153195388Y-127733765D01*
X153185816Y-127781890D01*
X153171572Y-127828845D01*
X153152795Y-127874178D01*
X153129664Y-127917451D01*
X153102404Y-127958250D01*
X153071276Y-127996179D01*
X153036579Y-128030876D01*
X152998650Y-128062004D01*
X152957851Y-128089264D01*
X152914578Y-128112395D01*
X152869245Y-128131172D01*
X152822290Y-128145416D01*
X152774165Y-128154988D01*
X152725334Y-128159798D01*
X152700800Y-128159798D01*
X152700800Y-128160400D01*
X152200800Y-128160400D01*
X152200800Y-128159798D01*
X152176266Y-128159798D01*
X152127435Y-128154988D01*
X152079310Y-128145416D01*
X152032355Y-128131172D01*
X151987022Y-128112395D01*
X151943749Y-128089264D01*
X151902950Y-128062004D01*
X151865021Y-128030876D01*
X151830324Y-127996179D01*
X151799196Y-127958250D01*
X151771936Y-127917451D01*
X151748805Y-127874178D01*
X151730028Y-127828845D01*
X151715784Y-127781890D01*
X151706212Y-127733765D01*
X151701402Y-127684934D01*
X151701402Y-127660400D01*
X151700800Y-127660400D01*
X151700800Y-127160400D01*
X153200800Y-127160400D01*
G37*
%TD.AperFunction*%
%TD*%
%TA.AperFunction,SMDPad,CuDef*%
%TO.P,JPA4,1*%
%TO.N,Net-(A1-Pad13)*%
G36*
X156350400Y-127160400D02*
G01*
X156350400Y-127660400D01*
X156349798Y-127660400D01*
X156349798Y-127684934D01*
X156344988Y-127733765D01*
X156335416Y-127781890D01*
X156321172Y-127828845D01*
X156302395Y-127874178D01*
X156279264Y-127917451D01*
X156252004Y-127958250D01*
X156220876Y-127996179D01*
X156186179Y-128030876D01*
X156148250Y-128062004D01*
X156107451Y-128089264D01*
X156064178Y-128112395D01*
X156018845Y-128131172D01*
X155971890Y-128145416D01*
X155923765Y-128154988D01*
X155874934Y-128159798D01*
X155850400Y-128159798D01*
X155850400Y-128160400D01*
X155350400Y-128160400D01*
X155350400Y-128159798D01*
X155325866Y-128159798D01*
X155277035Y-128154988D01*
X155228910Y-128145416D01*
X155181955Y-128131172D01*
X155136622Y-128112395D01*
X155093349Y-128089264D01*
X155052550Y-128062004D01*
X155014621Y-128030876D01*
X154979924Y-127996179D01*
X154948796Y-127958250D01*
X154921536Y-127917451D01*
X154898405Y-127874178D01*
X154879628Y-127828845D01*
X154865384Y-127781890D01*
X154855812Y-127733765D01*
X154851002Y-127684934D01*
X154851002Y-127660400D01*
X154850400Y-127660400D01*
X154850400Y-127160400D01*
X156350400Y-127160400D01*
G37*
%TD.AperFunction*%
%TA.AperFunction,SMDPad,CuDef*%
%TO.P,JPA4,2*%
%TO.N,Out2*%
G36*
X154851002Y-126360400D02*
G01*
X154851002Y-126335866D01*
X154855812Y-126287035D01*
X154865384Y-126238910D01*
X154879628Y-126191955D01*
X154898405Y-126146622D01*
X154921536Y-126103349D01*
X154948796Y-126062550D01*
X154979924Y-126024621D01*
X155014621Y-125989924D01*
X155052550Y-125958796D01*
X155093349Y-125931536D01*
X155136622Y-125908405D01*
X155181955Y-125889628D01*
X155228910Y-125875384D01*
X155277035Y-125865812D01*
X155325866Y-125861002D01*
X155350400Y-125861002D01*
X155350400Y-125860400D01*
X155850400Y-125860400D01*
X155850400Y-125861002D01*
X155874934Y-125861002D01*
X155923765Y-125865812D01*
X155971890Y-125875384D01*
X156018845Y-125889628D01*
X156064178Y-125908405D01*
X156107451Y-125931536D01*
X156148250Y-125958796D01*
X156186179Y-125989924D01*
X156220876Y-126024621D01*
X156252004Y-126062550D01*
X156279264Y-126103349D01*
X156302395Y-126146622D01*
X156321172Y-126191955D01*
X156335416Y-126238910D01*
X156344988Y-126287035D01*
X156349798Y-126335866D01*
X156349798Y-126360400D01*
X156350400Y-126360400D01*
X156350400Y-126860400D01*
X154850400Y-126860400D01*
X154850400Y-126360400D01*
X154851002Y-126360400D01*
G37*
%TD.AperFunction*%
%TD*%
%TA.AperFunction,SMDPad,CuDef*%
%TO.P,JPA0,2*%
%TO.N,A0*%
G36*
X142151002Y-126360400D02*
G01*
X142151002Y-126335866D01*
X142155812Y-126287035D01*
X142165384Y-126238910D01*
X142179628Y-126191955D01*
X142198405Y-126146622D01*
X142221536Y-126103349D01*
X142248796Y-126062550D01*
X142279924Y-126024621D01*
X142314621Y-125989924D01*
X142352550Y-125958796D01*
X142393349Y-125931536D01*
X142436622Y-125908405D01*
X142481955Y-125889628D01*
X142528910Y-125875384D01*
X142577035Y-125865812D01*
X142625866Y-125861002D01*
X142650400Y-125861002D01*
X142650400Y-125860400D01*
X143150400Y-125860400D01*
X143150400Y-125861002D01*
X143174934Y-125861002D01*
X143223765Y-125865812D01*
X143271890Y-125875384D01*
X143318845Y-125889628D01*
X143364178Y-125908405D01*
X143407451Y-125931536D01*
X143448250Y-125958796D01*
X143486179Y-125989924D01*
X143520876Y-126024621D01*
X143552004Y-126062550D01*
X143579264Y-126103349D01*
X143602395Y-126146622D01*
X143621172Y-126191955D01*
X143635416Y-126238910D01*
X143644988Y-126287035D01*
X143649798Y-126335866D01*
X143649798Y-126360400D01*
X143650400Y-126360400D01*
X143650400Y-126860400D01*
X142150400Y-126860400D01*
X142150400Y-126360400D01*
X142151002Y-126360400D01*
G37*
%TD.AperFunction*%
%TA.AperFunction,SMDPad,CuDef*%
%TO.P,JPA0,1*%
%TO.N,Net-(A1-Pad9)*%
G36*
X143650400Y-127160400D02*
G01*
X143650400Y-127660400D01*
X143649798Y-127660400D01*
X143649798Y-127684934D01*
X143644988Y-127733765D01*
X143635416Y-127781890D01*
X143621172Y-127828845D01*
X143602395Y-127874178D01*
X143579264Y-127917451D01*
X143552004Y-127958250D01*
X143520876Y-127996179D01*
X143486179Y-128030876D01*
X143448250Y-128062004D01*
X143407451Y-128089264D01*
X143364178Y-128112395D01*
X143318845Y-128131172D01*
X143271890Y-128145416D01*
X143223765Y-128154988D01*
X143174934Y-128159798D01*
X143150400Y-128159798D01*
X143150400Y-128160400D01*
X142650400Y-128160400D01*
X142650400Y-128159798D01*
X142625866Y-128159798D01*
X142577035Y-128154988D01*
X142528910Y-128145416D01*
X142481955Y-128131172D01*
X142436622Y-128112395D01*
X142393349Y-128089264D01*
X142352550Y-128062004D01*
X142314621Y-128030876D01*
X142279924Y-127996179D01*
X142248796Y-127958250D01*
X142221536Y-127917451D01*
X142198405Y-127874178D01*
X142179628Y-127828845D01*
X142165384Y-127781890D01*
X142155812Y-127733765D01*
X142151002Y-127684934D01*
X142151002Y-127660400D01*
X142150400Y-127660400D01*
X142150400Y-127160400D01*
X143650400Y-127160400D01*
G37*
%TD.AperFunction*%
%TD*%
%TA.AperFunction,SMDPad,CuDef*%
%TO.P,JPA1,1*%
%TO.N,Net-(A1-Pad10)*%
G36*
X146850800Y-127150000D02*
G01*
X146850800Y-127650000D01*
X146850198Y-127650000D01*
X146850198Y-127674534D01*
X146845388Y-127723365D01*
X146835816Y-127771490D01*
X146821572Y-127818445D01*
X146802795Y-127863778D01*
X146779664Y-127907051D01*
X146752404Y-127947850D01*
X146721276Y-127985779D01*
X146686579Y-128020476D01*
X146648650Y-128051604D01*
X146607851Y-128078864D01*
X146564578Y-128101995D01*
X146519245Y-128120772D01*
X146472290Y-128135016D01*
X146424165Y-128144588D01*
X146375334Y-128149398D01*
X146350800Y-128149398D01*
X146350800Y-128150000D01*
X145850800Y-128150000D01*
X145850800Y-128149398D01*
X145826266Y-128149398D01*
X145777435Y-128144588D01*
X145729310Y-128135016D01*
X145682355Y-128120772D01*
X145637022Y-128101995D01*
X145593749Y-128078864D01*
X145552950Y-128051604D01*
X145515021Y-128020476D01*
X145480324Y-127985779D01*
X145449196Y-127947850D01*
X145421936Y-127907051D01*
X145398805Y-127863778D01*
X145380028Y-127818445D01*
X145365784Y-127771490D01*
X145356212Y-127723365D01*
X145351402Y-127674534D01*
X145351402Y-127650000D01*
X145350800Y-127650000D01*
X145350800Y-127150000D01*
X146850800Y-127150000D01*
G37*
%TD.AperFunction*%
%TA.AperFunction,SMDPad,CuDef*%
%TO.P,JPA1,2*%
%TO.N,A1*%
G36*
X145351402Y-126350000D02*
G01*
X145351402Y-126325466D01*
X145356212Y-126276635D01*
X145365784Y-126228510D01*
X145380028Y-126181555D01*
X145398805Y-126136222D01*
X145421936Y-126092949D01*
X145449196Y-126052150D01*
X145480324Y-126014221D01*
X145515021Y-125979524D01*
X145552950Y-125948396D01*
X145593749Y-125921136D01*
X145637022Y-125898005D01*
X145682355Y-125879228D01*
X145729310Y-125864984D01*
X145777435Y-125855412D01*
X145826266Y-125850602D01*
X145850800Y-125850602D01*
X145850800Y-125850000D01*
X146350800Y-125850000D01*
X146350800Y-125850602D01*
X146375334Y-125850602D01*
X146424165Y-125855412D01*
X146472290Y-125864984D01*
X146519245Y-125879228D01*
X146564578Y-125898005D01*
X146607851Y-125921136D01*
X146648650Y-125948396D01*
X146686579Y-125979524D01*
X146721276Y-126014221D01*
X146752404Y-126052150D01*
X146779664Y-126092949D01*
X146802795Y-126136222D01*
X146821572Y-126181555D01*
X146835816Y-126228510D01*
X146845388Y-126276635D01*
X146850198Y-126325466D01*
X146850198Y-126350000D01*
X146850800Y-126350000D01*
X146850800Y-126850000D01*
X145350800Y-126850000D01*
X145350800Y-126350000D01*
X145351402Y-126350000D01*
G37*
%TD.AperFunction*%
%TD*%
D25*
%TO.N,GND*%
X130606800Y-108813600D03*
X125831600Y-103936800D03*
X142341600Y-104495600D03*
D26*
%TO.N,+3V3*%
X147675600Y-114706400D03*
D25*
%TO.N,+5V*%
X131978400Y-109626400D03*
D26*
X144373600Y-101244400D03*
X128422400Y-93370400D03*
D25*
X129438400Y-103936800D03*
D26*
X136093200Y-94284800D03*
D25*
X126949200Y-125425200D03*
%TO.N,+12V*%
X128574800Y-120599200D03*
X154686000Y-120548400D03*
D26*
%TO.N,Net-(Jntc1-Pad1)*%
X125120400Y-92964000D03*
X125120400Y-92964000D03*
X121564400Y-93624400D03*
X122174000Y-113334800D03*
X123571000Y-94361000D03*
X123825000Y-93091000D03*
X120548400Y-93675200D03*
%TO.N,Net-(Jntc2-Pad1)*%
X143408400Y-114249200D03*
X143865600Y-111709200D03*
X138125200Y-114401600D03*
X140411200Y-114249200D03*
X141833600Y-114198400D03*
%TO.N,Out1*%
X138480800Y-122224800D03*
X130149600Y-122224800D03*
%TD*%
D27*
%TO.N,*%
X116281200Y-95961200D02*
X115671600Y-95351600D01*
X116789200Y-95504000D02*
X115417600Y-96875600D01*
D28*
%TO.N,Net-(Q1-Pad2)*%
X126870500Y-96428200D02*
X126870500Y-95635000D01*
D27*
X126492000Y-96469200D02*
X126870500Y-96090700D01*
D28*
X126644400Y-96418400D02*
X122021600Y-96418400D01*
D27*
X117856000Y-100482400D02*
X117856000Y-101295200D01*
D28*
X121869200Y-96469200D02*
X117856000Y-100482400D01*
X131383000Y-100838000D02*
X130200400Y-100838000D01*
X130200400Y-100838000D02*
X128320800Y-98958400D01*
X128320800Y-97878500D02*
X126870500Y-96428200D01*
X128320800Y-98958400D02*
X128320800Y-97878500D01*
D29*
%TO.N,GND*%
X135149001Y-130026999D02*
X135149001Y-116605999D01*
D30*
X122682000Y-104038400D02*
X125831600Y-104038400D01*
D31*
X126085600Y-98263200D02*
X126085600Y-97332800D01*
X122682000Y-97332800D02*
X122682000Y-104140000D01*
X125933200Y-97332800D02*
X122732800Y-97332800D01*
D32*
X133807200Y-109016800D02*
X135804000Y-111013600D01*
D27*
X134162800Y-105308400D02*
X133807200Y-105664000D01*
D30*
X133807200Y-104851200D02*
X133807200Y-105714800D01*
X138811000Y-103403400D02*
X140970000Y-105562400D01*
X136333000Y-103378000D02*
X138731500Y-103378000D01*
D27*
X140890500Y-105537000D02*
X141300200Y-105537000D01*
D28*
X142443200Y-104292400D02*
X142443200Y-102904800D01*
D30*
X141300200Y-105537000D02*
X142341600Y-104495600D01*
D27*
X133807200Y-105714800D02*
X133807200Y-105714800D01*
X133807200Y-105664000D02*
X133807200Y-105714800D01*
D28*
X130810000Y-108712000D02*
X131267200Y-108254800D01*
X131267200Y-108254800D02*
X132943600Y-108254800D01*
D27*
X133807200Y-109118400D02*
X133807200Y-109382200D01*
D30*
X133807200Y-105562400D02*
X133807200Y-108966000D01*
D28*
X125831600Y-103936800D02*
X126711800Y-103936800D01*
D30*
X117856000Y-106578400D02*
X117856000Y-111455200D01*
X120446800Y-104089200D02*
X117805200Y-106730800D01*
X122682000Y-104089200D02*
X120497600Y-104089200D01*
X134416800Y-96012000D02*
X134416800Y-92608400D01*
D27*
X120954800Y-81792798D02*
X120929001Y-81766999D01*
D30*
X135229600Y-103378000D02*
X136333000Y-103378000D01*
X133858000Y-97942400D02*
X133858000Y-102108000D01*
D27*
X152704800Y-108966000D02*
X152704800Y-111201200D01*
X152704800Y-111201200D02*
X154686000Y-113182400D01*
D30*
X135149001Y-130026999D02*
X137689001Y-130026999D01*
D27*
X155295600Y-113182400D02*
X159156400Y-117043200D01*
X154686000Y-113182400D02*
X155295600Y-113182400D01*
X135149001Y-112033999D02*
X135804000Y-111379000D01*
D29*
X135149001Y-116605999D02*
X135149001Y-112033999D01*
D27*
X133858000Y-104749600D02*
X134162800Y-104444800D01*
X127190500Y-104415500D02*
X126711800Y-103936800D01*
X127508000Y-104415500D02*
X127190500Y-104415500D01*
D30*
X120929001Y-81766999D02*
X120929001Y-83794999D01*
X118008400Y-86080600D02*
X118008400Y-90017600D01*
X134416800Y-92608400D02*
X136398000Y-92608400D01*
X136398000Y-92608400D02*
X137007600Y-91998800D01*
X137007600Y-91998800D02*
X142849600Y-91998800D01*
D31*
X142849600Y-91998800D02*
X143065500Y-91782900D01*
D30*
X133858000Y-97942400D02*
X133858000Y-97485200D01*
D27*
X134416800Y-96824800D02*
X134416800Y-96012000D01*
D30*
X133756400Y-97332800D02*
X134416800Y-96672400D01*
D27*
X133756400Y-102108000D02*
X133756400Y-102666800D01*
D30*
X133908800Y-102362000D02*
X135001000Y-103454200D01*
X134493000Y-104013000D02*
X133807200Y-104698800D01*
X134950200Y-103505000D02*
X134569200Y-103886000D01*
X133858000Y-109118400D02*
X133096000Y-108356400D01*
D27*
X133807200Y-109016800D02*
X133705600Y-109016800D01*
D30*
X142849600Y-91998800D02*
X143764000Y-91998800D01*
X144272000Y-91490800D02*
X144272000Y-89928700D01*
X143764000Y-91998800D02*
X144272000Y-91490800D01*
X120294001Y-83794999D02*
X118008400Y-86080600D01*
X120929001Y-83794999D02*
X120294001Y-83794999D01*
D27*
%TO.N,Net-(Q1-Pad1)*%
X124970500Y-95297500D02*
X125238000Y-95297500D01*
D31*
X129143000Y-94361000D02*
X130302000Y-95520000D01*
X126187200Y-94335600D02*
X129155700Y-94335600D01*
X125238000Y-95297500D02*
X126174500Y-94361000D01*
D28*
%TO.N,Net-(R2-Pad1)*%
X131383000Y-99568000D02*
X131383000Y-98601000D01*
X131383000Y-98601000D02*
X130302000Y-97520000D01*
D27*
%TO.N,+3V3*%
X150164800Y-115604000D02*
X150012400Y-115451600D01*
D31*
X150164800Y-117212400D02*
X150164800Y-115604000D01*
X148420800Y-115451600D02*
X147675600Y-114706400D01*
X150012400Y-115451600D02*
X148420800Y-115451600D01*
%TO.N,+5V*%
X127508000Y-102658000D02*
X125089500Y-102658000D01*
D27*
X125089500Y-102658000D02*
X124777500Y-102346000D01*
D32*
X132334000Y-124986598D02*
X132334000Y-112115600D01*
D27*
X132609001Y-112584001D02*
X131404000Y-111379000D01*
D28*
X129438400Y-103936800D02*
X129997200Y-103378000D01*
X129997200Y-103378000D02*
X131383000Y-103378000D01*
D30*
X131978400Y-110896400D02*
X131978400Y-109565800D01*
D28*
X144373600Y-102514400D02*
X144373600Y-101263200D01*
D27*
X128524000Y-93268800D02*
X128422400Y-93370400D01*
D31*
X129709200Y-93268800D02*
X128524000Y-93268800D01*
D27*
X132537200Y-129955198D02*
X132609001Y-130026999D01*
D30*
X132537200Y-125037398D02*
X132537200Y-125222000D01*
D27*
X128045300Y-102340500D02*
X127508000Y-102340500D01*
D28*
X127842100Y-102340500D02*
X129438400Y-103936800D01*
D27*
X127508000Y-102340500D02*
X127842100Y-102340500D01*
D31*
X136093200Y-94284800D02*
X137363200Y-94284800D01*
X137718800Y-93929200D02*
X137718800Y-93438000D01*
X137363200Y-94284800D02*
X137718800Y-93929200D01*
D30*
X132537200Y-125222000D02*
X132537200Y-129955198D01*
X132334000Y-125425200D02*
X132537200Y-125222000D01*
X127000000Y-125425200D02*
X132334000Y-125425200D01*
%TO.N,+12V*%
X120396000Y-109610400D02*
X122326400Y-107680000D01*
X120396000Y-109610400D02*
X120396000Y-114198400D01*
X120396000Y-114198400D02*
X121880000Y-115682400D01*
D27*
X145472400Y-118647600D02*
X145349600Y-118770400D01*
D28*
X145472400Y-111556800D02*
X145472400Y-118647600D01*
X150672800Y-104952800D02*
X150672800Y-111556800D01*
D27*
X150672800Y-104648000D02*
X150672800Y-104952800D01*
X155226800Y-106763600D02*
X153416000Y-104952800D01*
X158242000Y-106763600D02*
X155226800Y-106763600D01*
X153416000Y-104952800D02*
X150672800Y-104952800D01*
X150672800Y-111556800D02*
X150672800Y-111709200D01*
D28*
X150672800Y-111709200D02*
X154736800Y-115773200D01*
D30*
X159156400Y-122123200D02*
X155651200Y-122123200D01*
D27*
X123698000Y-117805200D02*
X123393200Y-117500400D01*
D30*
X126492000Y-120599200D02*
X123393200Y-117500400D01*
X128574800Y-120599200D02*
X126492000Y-120599200D01*
D27*
X120243600Y-114046000D02*
X120396000Y-114198400D01*
D30*
X117805200Y-114046000D02*
X120243600Y-114046000D01*
D27*
X154736800Y-120497600D02*
X154686000Y-120548400D01*
D28*
X154736800Y-115773200D02*
X154736800Y-120497600D01*
D30*
X154686000Y-121158000D02*
X155651200Y-122123200D01*
X154686000Y-120548400D02*
X154686000Y-121158000D01*
D28*
X143306800Y-94234000D02*
X142427200Y-94234000D01*
X150672800Y-101600000D02*
X143306800Y-94234000D01*
X150672800Y-104648000D02*
X150672800Y-101600000D01*
D30*
X121880000Y-115682400D02*
X123048400Y-115682400D01*
X123393200Y-116027200D02*
X123393200Y-117500400D01*
X123048400Y-115682400D02*
X123393200Y-116027200D01*
D28*
%TO.N,Net-(R1-Pad1)*%
X124510800Y-98672400D02*
X124510800Y-100228400D01*
D27*
X124285500Y-99854000D02*
X124777500Y-100346000D01*
D31*
X131383000Y-102108000D02*
X129794000Y-102108000D01*
X128032000Y-100346000D02*
X124777500Y-100346000D01*
X129794000Y-102108000D02*
X128032000Y-100346000D01*
%TO.N,Net-(Jntc1-Pad1)*%
X125349000Y-111617000D02*
X124698000Y-111617000D01*
D28*
X115112800Y-99466400D02*
X117144800Y-97434400D01*
D27*
X125349000Y-111617000D02*
X124450600Y-111617000D01*
D31*
X124450600Y-111617000D02*
X122732800Y-113334800D01*
X122732800Y-113334800D02*
X122174000Y-113334800D01*
D27*
X122174000Y-113334800D02*
X122174000Y-113334800D01*
X125920500Y-93297500D02*
X126869700Y-93297500D01*
D30*
X126492000Y-93268800D02*
X127587500Y-92173300D01*
D27*
X125920500Y-93297500D02*
X125403100Y-93297500D01*
X125882400Y-93259400D02*
X125920500Y-93297500D01*
D30*
X125920500Y-93297500D02*
X124945900Y-93297500D01*
X124945900Y-93297500D02*
X124790200Y-93141800D01*
D28*
X118567200Y-97434400D02*
X119430800Y-96570800D01*
X117144800Y-97434400D02*
X118567200Y-97434400D01*
X115112800Y-99466400D02*
X115112800Y-113353600D01*
X115805200Y-114046000D02*
X115805200Y-115500400D01*
X117805200Y-117500400D02*
X120893200Y-117500400D01*
X115805200Y-115500400D02*
X117805200Y-117500400D01*
X115112800Y-113353600D02*
X115805200Y-114046000D01*
X127587500Y-92173300D02*
X129619500Y-92173300D01*
X129619500Y-92173300D02*
X129946400Y-91846400D01*
D33*
X121158000Y-92557600D02*
X123850400Y-92557600D01*
D28*
X120548400Y-95148400D02*
X120700800Y-95300800D01*
X120548400Y-92151200D02*
X120548400Y-93675200D01*
X123240800Y-94691200D02*
X123571000Y-94361000D01*
X123240800Y-94996000D02*
X123240800Y-94691200D01*
X121005600Y-94996000D02*
X120700800Y-95300800D01*
X123240800Y-94996000D02*
X121005600Y-94996000D01*
D30*
X125920500Y-93297500D02*
X125920500Y-92011500D01*
X124904500Y-92011500D02*
X123825000Y-93091000D01*
X125920500Y-92011500D02*
X124904500Y-92011500D01*
D28*
X123571000Y-94361000D02*
X124790200Y-93141800D01*
D30*
X123825000Y-93091000D02*
X123545600Y-93370400D01*
D28*
X120548400Y-93675200D02*
X120548400Y-95148400D01*
X120218200Y-95783400D02*
X119430800Y-96570800D01*
X120700800Y-95300800D02*
X120218200Y-95783400D01*
D31*
X123291600Y-93624400D02*
X123825000Y-93091000D01*
D33*
X121564400Y-93624400D02*
X123291600Y-93624400D01*
D31*
X120599200Y-93624400D02*
X120548400Y-93675200D01*
X121564400Y-93624400D02*
X120599200Y-93624400D01*
D27*
%TO.N,Net-(Jntc2-Pad1)*%
X141122400Y-113039400D02*
X141033500Y-112950500D01*
D28*
X141122400Y-114706400D02*
X141122400Y-113039400D01*
X145116800Y-108947200D02*
X147624800Y-111455200D01*
D27*
X144964400Y-108305600D02*
X144964400Y-109048800D01*
D28*
X141033500Y-112950500D02*
X142522700Y-112950500D01*
X142522700Y-112950500D02*
X143865600Y-111607600D01*
X143865600Y-109404400D02*
X144964400Y-108305600D01*
X143865600Y-111607600D02*
X143865600Y-109404400D01*
X142849600Y-118770400D02*
X142849600Y-116433600D01*
X142849600Y-116433600D02*
X141122400Y-114706400D01*
D27*
X141033500Y-112950500D02*
X141652500Y-112950500D01*
D30*
X141652500Y-112950500D02*
X143967200Y-115265200D01*
D31*
X141033500Y-112950500D02*
X140389100Y-112950500D01*
X140389100Y-112950500D02*
X139344400Y-113995200D01*
X139344400Y-113995200D02*
X139344400Y-115671600D01*
X139344400Y-115671600D02*
X140512800Y-116840000D01*
D30*
X141884400Y-113741200D02*
X141071600Y-114554000D01*
X143306800Y-113741200D02*
X141884400Y-113741200D01*
D31*
X141033500Y-112950500D02*
X141033500Y-113118900D01*
X141338300Y-113322100D02*
X140411200Y-114249200D01*
X140360400Y-114198400D02*
X140360400Y-115468400D01*
X140360400Y-115468400D02*
X141427200Y-116535200D01*
X142976399Y-113349199D02*
X142640799Y-113684799D01*
X143698801Y-113349199D02*
X142976399Y-113349199D01*
X143764000Y-113284000D02*
X143698801Y-113349199D01*
X144068800Y-113284000D02*
X143764000Y-113284000D01*
D27*
X140083500Y-110950500D02*
X140083500Y-111173300D01*
D28*
X138074400Y-113182400D02*
X138430000Y-112826800D01*
X138074400Y-113182400D02*
X138074400Y-117094000D01*
X140083500Y-111173300D02*
X138430000Y-112826800D01*
D34*
X135483600Y-105918000D02*
X134874000Y-106527600D01*
X134874000Y-106527600D02*
X134874000Y-108000800D01*
X134874000Y-108000800D02*
X136144000Y-109270800D01*
X136144000Y-109270800D02*
X137668000Y-109270800D01*
X139347700Y-110950500D02*
X140083500Y-110950500D01*
X137668000Y-109270800D02*
X139347700Y-110950500D01*
D30*
%TO.N,Net-(Q2-Pad1)*%
X141983500Y-110950500D02*
X141983500Y-108623900D01*
D27*
X141983500Y-108623900D02*
X141970000Y-108610400D01*
D31*
%TO.N,Net-(R5-Pad2)*%
X129009900Y-108835700D02*
X130708400Y-107137200D01*
X128016000Y-111877600D02*
X128016000Y-109267500D01*
D27*
X128016000Y-109267500D02*
X128397000Y-108886500D01*
%TO.N,Net-(R15-Pad1)*%
X136333000Y-104648000D02*
X138001500Y-104648000D01*
X138001500Y-104648000D02*
X138890500Y-105537000D01*
X138890500Y-105537000D02*
X138890500Y-106175300D01*
D31*
X138839700Y-106378500D02*
X139598400Y-107137200D01*
X142544800Y-106934000D02*
X144678400Y-104800400D01*
X139598400Y-107137200D02*
X142494000Y-107137200D01*
%TO.N,Net-(R16-Pad1)*%
X136333000Y-107188000D02*
X137298200Y-108153200D01*
X137298200Y-108153200D02*
X138582400Y-108153200D01*
X139039600Y-108610400D02*
X139970000Y-108610400D01*
X138582400Y-108153200D02*
X139039600Y-108610400D01*
D28*
%TO.N,Net-(R19-Pad2)*%
X136515600Y-97739200D02*
X136515600Y-99385400D01*
D27*
X136515600Y-99385400D02*
X136333000Y-99568000D01*
X136515600Y-97739200D02*
X136515600Y-97215200D01*
X136515600Y-97739200D02*
X136515600Y-97520000D01*
X141630400Y-97485200D02*
X141274800Y-97485200D01*
D31*
X140233400Y-96443800D02*
X137591800Y-96443800D01*
X141274800Y-97485200D02*
X140233400Y-96443800D01*
X136515600Y-97520000D02*
X137591800Y-96443800D01*
D28*
%TO.N,Net-(C1-Pad1)*%
X125018800Y-105439300D02*
X122567100Y-105439300D01*
D27*
X122567100Y-105439300D02*
X122326400Y-105680000D01*
D34*
X132537200Y-97790000D02*
X132537200Y-95980000D01*
D27*
X132416800Y-96012000D02*
X132416800Y-95709200D01*
X132416800Y-96012000D02*
X132416800Y-95383600D01*
D31*
X131809200Y-94776000D02*
X131809200Y-93268800D01*
X132416800Y-95383600D02*
X131809200Y-94776000D01*
D27*
X125307000Y-105727500D02*
X125018800Y-105439300D01*
X131383000Y-104648000D02*
X132181600Y-104648000D01*
D34*
X132842000Y-98094800D02*
X132525790Y-97778590D01*
X132842000Y-104089200D02*
X132842000Y-98130820D01*
X132290590Y-104648000D02*
X132842000Y-104096590D01*
D31*
X125018800Y-105439300D02*
X125192700Y-105613200D01*
X125192700Y-105613200D02*
X129184400Y-105613200D01*
X129760799Y-105036801D02*
X130065599Y-105036801D01*
X129184400Y-105613200D02*
X129760799Y-105036801D01*
X130454400Y-104648000D02*
X131383000Y-104648000D01*
X130065599Y-105036801D02*
X130454400Y-104648000D01*
D27*
%TO.N,Net-(C1-Pad2)*%
X131383000Y-105918000D02*
X130492500Y-105918000D01*
D31*
X129524000Y-106886500D02*
X128397000Y-106886500D01*
X130492500Y-105918000D02*
X129524000Y-106886500D01*
D28*
X128397000Y-107086400D02*
X125100500Y-107086400D01*
D27*
X125100500Y-106886500D02*
X124968000Y-107019000D01*
D28*
X125349000Y-109617000D02*
X125349000Y-107400000D01*
D27*
X125349000Y-107400000D02*
X124968000Y-107019000D01*
D31*
%TO.N,Net-(C2-Pad2)*%
X136333000Y-100838000D02*
X137464800Y-100838000D01*
D27*
X138125200Y-98129600D02*
X138515600Y-97739200D01*
D31*
X138125200Y-100177600D02*
X138125200Y-98129600D01*
X137464800Y-100838000D02*
X138125200Y-100177600D01*
D27*
X141397900Y-100330000D02*
X141397900Y-99894300D01*
X139242800Y-97739200D02*
X138515600Y-97739200D01*
D31*
X141397900Y-99894300D02*
X139242800Y-97739200D01*
D28*
X141397900Y-100330000D02*
X142849600Y-100330000D01*
X142849600Y-100330000D02*
X143916400Y-99263200D01*
D31*
X144170400Y-99263200D02*
X143916400Y-99263200D01*
D28*
X146710400Y-101803200D02*
X144170400Y-99263200D01*
X146862800Y-102006400D02*
X146862800Y-108508800D01*
D27*
%TO.N,Net-(C2-Pad1)*%
X136333000Y-102108000D02*
X138379200Y-102108000D01*
D31*
X138379200Y-102108000D02*
X138379200Y-101273700D01*
X138379200Y-101273700D02*
X139322900Y-100330000D01*
D27*
X135358000Y-102108000D02*
X136333000Y-102108000D01*
D31*
X139954000Y-102108000D02*
X136333000Y-102108000D01*
X140630400Y-102784400D02*
X139954000Y-102108000D01*
D27*
X140630400Y-102819200D02*
X140630400Y-102784400D01*
D34*
X134874000Y-97891600D02*
X134874000Y-101420800D01*
D31*
X139529600Y-95131600D02*
X137262522Y-95131600D01*
X140427200Y-94234000D02*
X139529600Y-95131600D01*
X135510400Y-102108000D02*
X136333000Y-102108000D01*
D34*
X134874000Y-101420800D02*
X135561200Y-102108000D01*
D31*
X137312400Y-95131600D02*
X137718800Y-95538000D01*
X137262522Y-95131600D02*
X137312400Y-95131600D01*
D34*
X135415590Y-96978532D02*
X137262522Y-95131600D01*
X135415590Y-97248410D02*
X135415590Y-96978532D01*
X134874000Y-97790000D02*
X135415590Y-97248410D01*
X134874000Y-97891600D02*
X134874000Y-97790000D01*
D27*
%TO.N,Net-(Led1-Pad1)*%
X158242000Y-108813600D02*
X155600400Y-108813600D01*
X155600400Y-108813600D02*
X154228800Y-107442000D01*
X153180800Y-107442000D02*
X152704800Y-106966000D01*
X154228800Y-107442000D02*
X153180800Y-107442000D01*
D28*
%TO.N,D2*%
X152806400Y-87630000D02*
X152806400Y-87172800D01*
%TO.N,D3*%
X149352000Y-89865200D02*
X149352000Y-89357200D01*
D31*
X150685500Y-87591900D02*
X150266400Y-87172800D01*
D28*
X150266400Y-87630000D02*
X150266400Y-87172800D01*
X149352000Y-89865200D02*
X149352000Y-89052400D01*
X150266400Y-88138000D02*
X150266400Y-87172800D01*
X149352000Y-89052400D02*
X150266400Y-88138000D01*
D31*
%TO.N,D5*%
X145605500Y-87591900D02*
X145186400Y-87172800D01*
D28*
X146812000Y-89865200D02*
X146812000Y-89357200D01*
X145186400Y-87731600D02*
X145186400Y-87172800D01*
X146812000Y-89357200D02*
X145186400Y-87731600D01*
D31*
%TO.N,D10*%
X128524000Y-89458800D02*
X130797300Y-87185500D01*
%TO.N,D11*%
X126187200Y-89344500D02*
X128460500Y-87071200D01*
%TO.N,D12*%
X123291600Y-89814400D02*
X126034800Y-87071200D01*
X122986800Y-89814400D02*
X123291600Y-89814400D01*
%TO.N,D13*%
X120650000Y-89357200D02*
X122923300Y-87083900D01*
D28*
%TO.N,D0*%
X151892000Y-89865200D02*
X151892000Y-89255600D01*
D31*
X151892000Y-90932000D02*
X151866600Y-90957400D01*
X151892000Y-89865200D02*
X151892000Y-90932000D01*
D27*
X151866600Y-90957400D02*
X151790400Y-90881200D01*
X152857200Y-91948000D02*
X151866600Y-90957400D01*
X160426400Y-91948000D02*
X159969200Y-91948000D01*
X160985200Y-91389200D02*
X160426400Y-91948000D01*
X160121600Y-87172800D02*
X160985200Y-88036400D01*
X160985200Y-88036400D02*
X160985200Y-91389200D01*
X157886400Y-87172800D02*
X160121600Y-87172800D01*
X159969200Y-91948000D02*
X152958800Y-91948000D01*
X160020000Y-91948000D02*
X159969200Y-91948000D01*
D28*
%TO.N,D1*%
X154432000Y-89865200D02*
X154432000Y-89255600D01*
D31*
X155765500Y-87591900D02*
X155346400Y-87172800D01*
D28*
X155346400Y-87579200D02*
X155346400Y-87172800D01*
X155346400Y-87172800D02*
X155346400Y-87985600D01*
X154432000Y-88900000D02*
X154432000Y-89865200D01*
X155346400Y-87985600D02*
X154432000Y-88900000D01*
D30*
%TO.N,Net-(A1-Pad9)*%
X142900400Y-127660400D02*
X142900400Y-129133600D01*
X143662400Y-129895600D02*
X145186400Y-129895600D01*
X142900400Y-129133600D02*
X143662400Y-129895600D01*
D27*
%TO.N,Net-(A1-Pad10)*%
X147269200Y-129438400D02*
X147726400Y-129895600D01*
D28*
X147726400Y-129895600D02*
X147726400Y-129692400D01*
X146100800Y-128066800D02*
X146100800Y-127650000D01*
X147726400Y-129692400D02*
X146100800Y-128066800D01*
%TO.N,Net-(A1-Pad11)*%
X150266400Y-129895600D02*
X150266400Y-129387600D01*
X149301200Y-128422400D02*
X149301200Y-127700800D01*
X150266400Y-129387600D02*
X149301200Y-128422400D01*
%TO.N,Net-(A1-Pad12)*%
X152552400Y-129590800D02*
X152552400Y-127711200D01*
%TO.N,Net-(A1-Pad13)*%
X155346400Y-129895600D02*
X155346400Y-128727200D01*
X155600400Y-128473200D02*
X155600400Y-127660400D01*
X155346400Y-128727200D02*
X155600400Y-128473200D01*
%TO.N,Net-(A1-Pad14)*%
X157886400Y-129895600D02*
X158851600Y-128930400D01*
X158851600Y-127762000D02*
X158750000Y-127660400D01*
X158851600Y-128930400D02*
X158851600Y-127762000D01*
%TO.N,Net-(U3-Pad1)*%
X159359600Y-89712800D02*
X159512000Y-89865200D01*
%TO.N,Net-(U3-Pad2)*%
X156972000Y-89865200D02*
X156972000Y-89204800D01*
D27*
%TO.N,Out1*%
X150114000Y-122224800D02*
X150164800Y-122275600D01*
D31*
X150164800Y-122275600D02*
X150164800Y-124460000D01*
X138480800Y-122224800D02*
X150114000Y-122224800D01*
X150164800Y-119312400D02*
X150164800Y-122275600D01*
X130200400Y-116366800D02*
X130200400Y-121970800D01*
X127762000Y-113842800D02*
X130200400Y-116281200D01*
X150164800Y-124460000D02*
X149402800Y-124460000D01*
X149301200Y-124561600D02*
X149301200Y-126400800D01*
D27*
X149402800Y-124460000D02*
X149301200Y-124561600D01*
D31*
X149341600Y-126360400D02*
X149301200Y-126400800D01*
X152450800Y-126360400D02*
X149341600Y-126360400D01*
D28*
%TO.N,Out2*%
X149485600Y-102902000D02*
X143764000Y-97180400D01*
X151739600Y-118973600D02*
X152552400Y-119786400D01*
X151739600Y-115078800D02*
X151739600Y-118973600D01*
X150012400Y-113351600D02*
X151739600Y-115078800D01*
X149504400Y-112843600D02*
X150012400Y-113351600D01*
X149504400Y-103022400D02*
X149504400Y-112843600D01*
D31*
X152552400Y-119786400D02*
X152552400Y-121767600D01*
X155600400Y-124815600D02*
X155600400Y-126360400D01*
X152552400Y-121767600D02*
X155600400Y-124815600D01*
X155600400Y-126360400D02*
X158750000Y-126360400D01*
%TD*%
M02*
