%TF.GenerationSoftware,KiCad,Pcbnew,(5.1.10)-1*%
%TF.CreationDate,2021-06-07T20:05:56+02:00*%
%TF.ProjectId,AirFlow,41697246-6c6f-4772-9e6b-696361645f70,rev?*%
%TF.SameCoordinates,Original*%
%TF.FileFunction,Legend,Bot*%
%TF.FilePolarity,Positive*%
%FSLAX46Y46*%
G04 Gerber Fmt 4.6, Leading zero omitted, Abs format (unit mm)*
G04 Created by KiCad (PCBNEW (5.1.10)-1) date 2021-06-07 20:05:56*
%MOMM*%
%LPD*%
G01*
G04 APERTURE LIST*
%ADD10C,0.120000*%
G04 APERTURE END LIST*
D10*
%TO.C,A1*%
X160556400Y-92045600D02*
X163096400Y-94585600D01*
X160556400Y-80615600D02*
X160556400Y-92045600D01*
X158906400Y-78965600D02*
X160556400Y-80615600D01*
X94256400Y-78965600D02*
X158906400Y-78965600D01*
X94256400Y-88495600D02*
X94256400Y-78965600D01*
X87906400Y-88495600D02*
X94256400Y-88495600D01*
X87906400Y-100175600D02*
X87906400Y-88495600D01*
X94256400Y-100175600D02*
X87906400Y-100175600D01*
X94256400Y-120245600D02*
X94256400Y-100175600D01*
X92356400Y-120245600D02*
X94256400Y-120245600D01*
X92356400Y-129385600D02*
X92356400Y-120245600D01*
X94256400Y-129385600D02*
X92356400Y-129385600D01*
X94256400Y-132565600D02*
X94256400Y-129385600D01*
X160556400Y-132565600D02*
X94256400Y-132565600D01*
X160556400Y-129895600D02*
X160556400Y-132565600D01*
X163096400Y-127355600D02*
X160556400Y-129895600D01*
X163096400Y-94585600D02*
X163096400Y-127355600D01*
%TO.C,J5*%
X138776400Y-85842800D02*
X138776400Y-87172800D01*
X140106400Y-85842800D02*
X138776400Y-85842800D01*
X141376400Y-85842800D02*
X141376400Y-88502800D01*
X141376400Y-88502800D02*
X159216400Y-88502800D01*
X141376400Y-85842800D02*
X159216400Y-85842800D01*
X159216400Y-85842800D02*
X159216400Y-88502800D01*
%TO.C,J6*%
X122164800Y-85741200D02*
X122164800Y-87071200D01*
X123494800Y-85741200D02*
X122164800Y-85741200D01*
X124764800Y-85741200D02*
X124764800Y-88401200D01*
X124764800Y-88401200D02*
X137524800Y-88401200D01*
X124764800Y-85741200D02*
X137524800Y-85741200D01*
X137524800Y-85741200D02*
X137524800Y-88401200D01*
%TO.C,JP0*%
X158937200Y-84733600D02*
X158937200Y-83333600D01*
X158237200Y-82633600D02*
X157637200Y-82633600D01*
X156937200Y-83333600D02*
X156937200Y-84733600D01*
X157637200Y-85433600D02*
X158237200Y-85433600D01*
X158237200Y-85433600D02*
G75*
G03*
X158937200Y-84733600I0J700000D01*
G01*
X156937200Y-84733600D02*
G75*
G03*
X157637200Y-85433600I700000J0D01*
G01*
X157637200Y-82633600D02*
G75*
G03*
X156937200Y-83333600I0J-700000D01*
G01*
X158937200Y-83333600D02*
G75*
G03*
X158237200Y-82633600I-700000J0D01*
G01*
%TO.C,JP1*%
X155148000Y-85433600D02*
X155748000Y-85433600D01*
X154448000Y-83333600D02*
X154448000Y-84733600D01*
X155748000Y-82633600D02*
X155148000Y-82633600D01*
X156448000Y-84733600D02*
X156448000Y-83333600D01*
X156448000Y-83333600D02*
G75*
G03*
X155748000Y-82633600I-700000J0D01*
G01*
X155148000Y-82633600D02*
G75*
G03*
X154448000Y-83333600I0J-700000D01*
G01*
X154448000Y-84733600D02*
G75*
G03*
X155148000Y-85433600I700000J0D01*
G01*
X155748000Y-85433600D02*
G75*
G03*
X156448000Y-84733600I0J700000D01*
G01*
%TO.C,JP2*%
X153958800Y-84733600D02*
X153958800Y-83333600D01*
X153258800Y-82633600D02*
X152658800Y-82633600D01*
X151958800Y-83333600D02*
X151958800Y-84733600D01*
X152658800Y-85433600D02*
X153258800Y-85433600D01*
X153258800Y-85433600D02*
G75*
G03*
X153958800Y-84733600I0J700000D01*
G01*
X151958800Y-84733600D02*
G75*
G03*
X152658800Y-85433600I700000J0D01*
G01*
X152658800Y-82633600D02*
G75*
G03*
X151958800Y-83333600I0J-700000D01*
G01*
X153958800Y-83333600D02*
G75*
G03*
X153258800Y-82633600I-700000J0D01*
G01*
%TO.C,JP3*%
X150169600Y-85433600D02*
X150769600Y-85433600D01*
X149469600Y-83333600D02*
X149469600Y-84733600D01*
X150769600Y-82633600D02*
X150169600Y-82633600D01*
X151469600Y-84733600D02*
X151469600Y-83333600D01*
X151469600Y-83333600D02*
G75*
G03*
X150769600Y-82633600I-700000J0D01*
G01*
X150169600Y-82633600D02*
G75*
G03*
X149469600Y-83333600I0J-700000D01*
G01*
X149469600Y-84733600D02*
G75*
G03*
X150169600Y-85433600I700000J0D01*
G01*
X150769600Y-85433600D02*
G75*
G03*
X151469600Y-84733600I0J700000D01*
G01*
%TO.C,JP4*%
X148980400Y-84733600D02*
X148980400Y-83333600D01*
X148280400Y-82633600D02*
X147680400Y-82633600D01*
X146980400Y-83333600D02*
X146980400Y-84733600D01*
X147680400Y-85433600D02*
X148280400Y-85433600D01*
X148280400Y-85433600D02*
G75*
G03*
X148980400Y-84733600I0J700000D01*
G01*
X146980400Y-84733600D02*
G75*
G03*
X147680400Y-85433600I700000J0D01*
G01*
X147680400Y-82633600D02*
G75*
G03*
X146980400Y-83333600I0J-700000D01*
G01*
X148980400Y-83333600D02*
G75*
G03*
X148280400Y-82633600I-700000J0D01*
G01*
%TO.C,JP5*%
X145191200Y-85433600D02*
X145791200Y-85433600D01*
X144491200Y-83333600D02*
X144491200Y-84733600D01*
X145791200Y-82633600D02*
X145191200Y-82633600D01*
X146491200Y-84733600D02*
X146491200Y-83333600D01*
X146491200Y-83333600D02*
G75*
G03*
X145791200Y-82633600I-700000J0D01*
G01*
X145191200Y-82633600D02*
G75*
G03*
X144491200Y-83333600I0J-700000D01*
G01*
X144491200Y-84733600D02*
G75*
G03*
X145191200Y-85433600I700000J0D01*
G01*
X145791200Y-85433600D02*
G75*
G03*
X146491200Y-84733600I0J700000D01*
G01*
%TO.C,JP6*%
X142702000Y-85433600D02*
X143302000Y-85433600D01*
X142002000Y-83333600D02*
X142002000Y-84733600D01*
X143302000Y-82633600D02*
X142702000Y-82633600D01*
X144002000Y-84733600D02*
X144002000Y-83333600D01*
X144002000Y-83333600D02*
G75*
G03*
X143302000Y-82633600I-700000J0D01*
G01*
X142702000Y-82633600D02*
G75*
G03*
X142002000Y-83333600I0J-700000D01*
G01*
X142002000Y-84733600D02*
G75*
G03*
X142702000Y-85433600I700000J0D01*
G01*
X143302000Y-85433600D02*
G75*
G03*
X144002000Y-84733600I0J700000D01*
G01*
%TO.C,JP7*%
X141512800Y-84733600D02*
X141512800Y-83333600D01*
X140812800Y-82633600D02*
X140212800Y-82633600D01*
X139512800Y-83333600D02*
X139512800Y-84733600D01*
X140212800Y-85433600D02*
X140812800Y-85433600D01*
X140812800Y-85433600D02*
G75*
G03*
X141512800Y-84733600I0J700000D01*
G01*
X139512800Y-84733600D02*
G75*
G03*
X140212800Y-85433600I700000J0D01*
G01*
X140212800Y-82633600D02*
G75*
G03*
X139512800Y-83333600I0J-700000D01*
G01*
X141512800Y-83333600D02*
G75*
G03*
X140812800Y-82633600I-700000J0D01*
G01*
%TO.C,JP8*%
X137144000Y-84682800D02*
X137144000Y-83282800D01*
X136444000Y-82582800D02*
X135844000Y-82582800D01*
X135144000Y-83282800D02*
X135144000Y-84682800D01*
X135844000Y-85382800D02*
X136444000Y-85382800D01*
X136444000Y-85382800D02*
G75*
G03*
X137144000Y-84682800I0J700000D01*
G01*
X135144000Y-84682800D02*
G75*
G03*
X135844000Y-85382800I700000J0D01*
G01*
X135844000Y-82582800D02*
G75*
G03*
X135144000Y-83282800I0J-700000D01*
G01*
X137144000Y-83282800D02*
G75*
G03*
X136444000Y-82582800I-700000J0D01*
G01*
%TO.C,JP9*%
X133354800Y-85382800D02*
X133954800Y-85382800D01*
X132654800Y-83282800D02*
X132654800Y-84682800D01*
X133954800Y-82582800D02*
X133354800Y-82582800D01*
X134654800Y-84682800D02*
X134654800Y-83282800D01*
X134654800Y-83282800D02*
G75*
G03*
X133954800Y-82582800I-700000J0D01*
G01*
X133354800Y-82582800D02*
G75*
G03*
X132654800Y-83282800I0J-700000D01*
G01*
X132654800Y-84682800D02*
G75*
G03*
X133354800Y-85382800I700000J0D01*
G01*
X133954800Y-85382800D02*
G75*
G03*
X134654800Y-84682800I0J700000D01*
G01*
%TO.C,JP10*%
X132114800Y-84682800D02*
X132114800Y-83282800D01*
X131414800Y-82582800D02*
X130814800Y-82582800D01*
X130114800Y-83282800D02*
X130114800Y-84682800D01*
X130814800Y-85382800D02*
X131414800Y-85382800D01*
X131414800Y-85382800D02*
G75*
G03*
X132114800Y-84682800I0J700000D01*
G01*
X130114800Y-84682800D02*
G75*
G03*
X130814800Y-85382800I700000J0D01*
G01*
X130814800Y-82582800D02*
G75*
G03*
X130114800Y-83282800I0J-700000D01*
G01*
X132114800Y-83282800D02*
G75*
G03*
X131414800Y-82582800I-700000J0D01*
G01*
%TO.C,JP11*%
X128325600Y-85372400D02*
X128925600Y-85372400D01*
X127625600Y-83272400D02*
X127625600Y-84672400D01*
X128925600Y-82572400D02*
X128325600Y-82572400D01*
X129625600Y-84672400D02*
X129625600Y-83272400D01*
X129625600Y-83272400D02*
G75*
G03*
X128925600Y-82572400I-700000J0D01*
G01*
X128325600Y-82572400D02*
G75*
G03*
X127625600Y-83272400I0J-700000D01*
G01*
X127625600Y-84672400D02*
G75*
G03*
X128325600Y-85372400I700000J0D01*
G01*
X128925600Y-85372400D02*
G75*
G03*
X129625600Y-84672400I0J700000D01*
G01*
%TO.C,JP12*%
X125785600Y-85382800D02*
X126385600Y-85382800D01*
X125085600Y-83282800D02*
X125085600Y-84682800D01*
X126385600Y-82582800D02*
X125785600Y-82582800D01*
X127085600Y-84682800D02*
X127085600Y-83282800D01*
X127085600Y-83282800D02*
G75*
G03*
X126385600Y-82582800I-700000J0D01*
G01*
X125785600Y-82582800D02*
G75*
G03*
X125085600Y-83282800I0J-700000D01*
G01*
X125085600Y-84682800D02*
G75*
G03*
X125785600Y-85382800I700000J0D01*
G01*
X126385600Y-85382800D02*
G75*
G03*
X127085600Y-84682800I0J700000D01*
G01*
%TO.C,JP13*%
X124596400Y-84672400D02*
X124596400Y-83272400D01*
X123896400Y-82572400D02*
X123296400Y-82572400D01*
X122596400Y-83272400D02*
X122596400Y-84672400D01*
X123296400Y-85372400D02*
X123896400Y-85372400D01*
X123896400Y-85372400D02*
G75*
G03*
X124596400Y-84672400I0J700000D01*
G01*
X122596400Y-84672400D02*
G75*
G03*
X123296400Y-85372400I700000J0D01*
G01*
X123296400Y-82572400D02*
G75*
G03*
X122596400Y-83272400I0J-700000D01*
G01*
X124596400Y-83272400D02*
G75*
G03*
X123896400Y-82572400I-700000J0D01*
G01*
%TO.C,JP_SCL1*%
X113431600Y-83192400D02*
X112831600Y-83192400D01*
X114131600Y-85292400D02*
X114131600Y-83892400D01*
X112831600Y-85992400D02*
X113431600Y-85992400D01*
X112131600Y-83892400D02*
X112131600Y-85292400D01*
X112831600Y-83192400D02*
G75*
G03*
X112131600Y-83892400I0J-700000D01*
G01*
X114131600Y-83892400D02*
G75*
G03*
X113431600Y-83192400I-700000J0D01*
G01*
X113431600Y-85992400D02*
G75*
G03*
X114131600Y-85292400I0J700000D01*
G01*
X112131600Y-85292400D02*
G75*
G03*
X112831600Y-85992400I700000J0D01*
G01*
%TO.C,JP_SDA1*%
X114874800Y-83892400D02*
X114874800Y-85292400D01*
X115574800Y-85992400D02*
X116174800Y-85992400D01*
X116874800Y-85292400D02*
X116874800Y-83892400D01*
X116174800Y-83192400D02*
X115574800Y-83192400D01*
X114874800Y-85292400D02*
G75*
G03*
X115574800Y-85992400I700000J0D01*
G01*
X116174800Y-85992400D02*
G75*
G03*
X116874800Y-85292400I0J700000D01*
G01*
X116874800Y-83892400D02*
G75*
G03*
X116174800Y-83192400I-700000J0D01*
G01*
X115574800Y-83192400D02*
G75*
G03*
X114874800Y-83892400I0J-700000D01*
G01*
%TO.C,JP3V3*%
X130997200Y-127588000D02*
X130997200Y-126188000D01*
X130297200Y-125488000D02*
X129697200Y-125488000D01*
X128997200Y-126188000D02*
X128997200Y-127588000D01*
X129697200Y-128288000D02*
X130297200Y-128288000D01*
X130997200Y-126188000D02*
G75*
G03*
X130297200Y-125488000I-700000J0D01*
G01*
X129697200Y-125488000D02*
G75*
G03*
X128997200Y-126188000I0J-700000D01*
G01*
X128997200Y-127588000D02*
G75*
G03*
X129697200Y-128288000I700000J0D01*
G01*
X130297200Y-128288000D02*
G75*
G03*
X130997200Y-127588000I0J700000D01*
G01*
%TO.C,JP5V1*%
X132186400Y-128247600D02*
X132786400Y-128247600D01*
X131486400Y-126147600D02*
X131486400Y-127547600D01*
X132786400Y-125447600D02*
X132186400Y-125447600D01*
X133486400Y-127547600D02*
X133486400Y-126147600D01*
X132786400Y-128247600D02*
G75*
G03*
X133486400Y-127547600I0J700000D01*
G01*
X131486400Y-127547600D02*
G75*
G03*
X132186400Y-128247600I700000J0D01*
G01*
X132186400Y-125447600D02*
G75*
G03*
X131486400Y-126147600I0J-700000D01*
G01*
X133486400Y-126147600D02*
G75*
G03*
X132786400Y-125447600I-700000J0D01*
G01*
%TO.C,JPGND1*%
X138515600Y-127496800D02*
X138515600Y-126096800D01*
X137815600Y-125396800D02*
X137215600Y-125396800D01*
X136515600Y-126096800D02*
X136515600Y-127496800D01*
X137215600Y-128196800D02*
X137815600Y-128196800D01*
X138515600Y-126096800D02*
G75*
G03*
X137815600Y-125396800I-700000J0D01*
G01*
X137215600Y-125396800D02*
G75*
G03*
X136515600Y-126096800I0J-700000D01*
G01*
X136515600Y-127496800D02*
G75*
G03*
X137215600Y-128196800I700000J0D01*
G01*
X137815600Y-128196800D02*
G75*
G03*
X138515600Y-127496800I0J700000D01*
G01*
%TO.C,JPGND2*%
X134726400Y-128207200D02*
X135326400Y-128207200D01*
X134026400Y-126107200D02*
X134026400Y-127507200D01*
X135326400Y-125407200D02*
X134726400Y-125407200D01*
X136026400Y-127507200D02*
X136026400Y-126107200D01*
X135326400Y-128207200D02*
G75*
G03*
X136026400Y-127507200I0J700000D01*
G01*
X134026400Y-127507200D02*
G75*
G03*
X134726400Y-128207200I700000J0D01*
G01*
X134726400Y-125407200D02*
G75*
G03*
X134026400Y-126107200I0J-700000D01*
G01*
X136026400Y-126107200D02*
G75*
G03*
X135326400Y-125407200I-700000J0D01*
G01*
%TD*%
M02*
